<svg width="184" height="58" viewBox="0 0 184 58" fill="none" xmlns="http://www.w3.org/2000/svg">
<path d="M7.725 5.25H9.2L16.575 23H14.725L12.425 17.45H4.45L2.175 23H0.3L7.725 5.25ZM12.025 16.075L8.45 7.3L4.825 16.075H12.025ZM34.315 9.975H35.99L30.39 23H28.915L26.19 16.525L23.49 23H22.015L16.415 9.975H18.065L22.815 21.25L25.215 15.375L23.015 10H24.54L26.19 14.225L27.865 10H29.365L27.19 15.375L29.59 21.25L34.315 9.975ZM43.4375 23.25C42.5042 23.25 41.6375 23.075 40.8375 22.725C40.0375 22.3583 39.3458 21.8667 38.7625 21.25C38.1792 20.6167 37.7208 19.8917 37.3875 19.075C37.0708 18.2583 36.9125 17.3833 36.9125 16.45C36.9125 15.2333 37.1875 14.1167 37.7375 13.1C38.3042 12.0833 39.0792 11.275 40.0625 10.675C41.0458 10.0583 42.1625 9.75 43.4125 9.75C44.6958 9.75 45.8125 10.0583 46.7625 10.675C47.7292 11.2917 48.4875 12.1083 49.0375 13.125C49.5875 14.125 49.8625 15.225 49.8625 16.425C49.8625 16.5583 49.8625 16.6917 49.8625 16.825C49.8625 16.9417 49.8542 17.0333 49.8375 17.1H38.6875C38.7708 18.0333 39.0292 18.8667 39.4625 19.6C39.9125 20.3167 40.4875 20.8917 41.1875 21.325C41.9042 21.7417 42.6792 21.95 43.5125 21.95C44.3625 21.95 45.1625 21.7333 45.9125 21.3C46.6792 20.8667 47.2125 20.3 47.5125 19.6L48.9875 20C48.7208 20.6167 48.3125 21.175 47.7625 21.675C47.2125 22.175 46.5625 22.5667 45.8125 22.85C45.0792 23.1167 44.2875 23.25 43.4375 23.25ZM38.6375 15.875H48.2625C48.1958 14.925 47.9375 14.0917 47.4875 13.375C47.0542 12.6583 46.4792 12.1 45.7625 11.7C45.0625 11.2833 44.2875 11.075 43.4375 11.075C42.5875 11.075 41.8125 11.2833 41.1125 11.7C40.4125 12.1 39.8375 12.6667 39.3875 13.4C38.9542 14.1167 38.7042 14.9417 38.6375 15.875ZM56.7604 23.25C55.6937 23.25 54.702 23.075 53.7854 22.725C52.8687 22.375 52.077 21.8417 51.4104 21.125L52.1104 19.925C52.8437 20.6083 53.577 21.1083 54.3104 21.425C55.0604 21.725 55.852 21.875 56.6854 21.875C57.702 21.875 58.527 21.675 59.1604 21.275C59.7937 20.8583 60.1104 20.2667 60.1104 19.5C60.1104 18.9833 59.952 18.5917 59.6354 18.325C59.3354 18.0417 58.8937 17.8167 58.3104 17.65C57.7437 17.4667 57.0604 17.275 56.2604 17.075C55.3604 16.825 54.602 16.5667 53.9854 16.3C53.3854 16.0167 52.927 15.6667 52.6104 15.25C52.3104 14.8167 52.1604 14.2583 52.1604 13.575C52.1604 12.725 52.3687 12.025 52.7854 11.475C53.2187 10.9083 53.802 10.4833 54.5354 10.2C55.2854 9.9 56.1187 9.75 57.0354 9.75C58.0354 9.75 58.9187 9.90833 59.6854 10.225C60.452 10.5417 61.077 10.9833 61.5604 11.55L60.7354 12.7C60.2687 12.1667 59.7104 11.775 59.0604 11.525C58.427 11.2583 57.7187 11.125 56.9354 11.125C56.402 11.125 55.8937 11.2 55.4104 11.35C54.927 11.4833 54.527 11.7167 54.2104 12.05C53.9104 12.3667 53.7604 12.8083 53.7604 13.375C53.7604 13.8417 53.877 14.2083 54.1104 14.475C54.3437 14.725 54.6937 14.9417 55.1604 15.125C55.627 15.2917 56.202 15.475 56.8854 15.675C57.8687 15.9417 58.727 16.2167 59.4604 16.5C60.1937 16.7667 60.7604 17.1167 61.1604 17.55C61.5604 17.9833 61.7604 18.5917 61.7604 19.375C61.7604 20.5917 61.302 21.5417 60.3854 22.225C59.4687 22.9083 58.2604 23.25 56.7604 23.25ZM70.1203 23.25C69.187 23.25 68.3203 23.075 67.5203 22.725C66.737 22.3583 66.0536 21.8667 65.4703 21.25C64.9036 20.6167 64.462 19.9 64.1453 19.1C63.8286 18.2833 63.6703 17.425 63.6703 16.525C63.6703 15.5917 63.8286 14.725 64.1453 13.925C64.462 13.1083 64.912 12.3917 65.4953 11.775C66.0786 11.1417 66.762 10.65 67.5453 10.3C68.3453 9.93333 69.212 9.75 70.1453 9.75C71.0786 9.75 71.937 9.93333 72.7203 10.3C73.5036 10.65 74.187 11.1417 74.7703 11.775C75.3536 12.3917 75.8036 13.1083 76.1203 13.925C76.437 14.725 76.5953 15.5917 76.5953 16.525C76.5953 17.425 76.437 18.2833 76.1203 19.1C75.8036 19.9 75.3536 20.6167 74.7703 21.25C74.2036 21.8667 73.5203 22.3583 72.7203 22.725C71.937 23.075 71.0703 23.25 70.1203 23.25ZM65.3953 16.55C65.3953 17.5167 65.6036 18.4 66.0203 19.2C66.4536 19.9833 67.0286 20.6083 67.7453 21.075C68.462 21.525 69.2536 21.75 70.1203 21.75C70.987 21.75 71.7786 21.5167 72.4953 21.05C73.212 20.5833 73.787 19.95 74.2203 19.15C74.6536 18.3333 74.8703 17.45 74.8703 16.5C74.8703 15.5333 74.6536 14.65 74.2203 13.85C73.787 13.05 73.212 12.4167 72.4953 11.95C71.7786 11.4833 70.987 11.25 70.1203 11.25C69.2536 11.25 68.462 11.4917 67.7453 11.975C67.0453 12.4583 66.4786 13.1 66.0453 13.9C65.612 14.6833 65.3953 15.5667 65.3953 16.55ZM98.8135 23H97.1135V15.725C97.1135 14.2083 96.8718 13.0917 96.3885 12.375C95.9051 11.6583 95.1885 11.3 94.2385 11.3C93.2551 11.3 92.3718 11.65 91.5885 12.35C90.8218 13.05 90.2801 13.95 89.9635 15.05V23H88.2635V15.725C88.2635 14.1917 88.0301 13.075 87.5635 12.375C87.0968 11.6583 86.3801 11.3 85.4135 11.3C84.4468 11.3 83.5718 11.6417 82.7885 12.325C82.0051 13.0083 81.4551 13.9083 81.1385 15.025V23H79.4385V9.975H80.9885V12.925C81.5385 11.9083 82.2385 11.125 83.0885 10.575C83.9551 10.025 84.9135 9.75 85.9635 9.75C87.0468 9.75 87.9218 10.0583 88.5885 10.675C89.2551 11.2917 89.6635 12.1 89.8135 13.1C90.4135 12 91.1301 11.1667 91.9635 10.6C92.8135 10.0333 93.7718 9.75 94.8385 9.75C95.5718 9.75 96.1885 9.88333 96.6885 10.15C97.2051 10.4167 97.6135 10.8 97.9135 11.3C98.2301 11.7833 98.4551 12.375 98.5885 13.075C98.7385 13.7583 98.8135 14.525 98.8135 15.375V23ZM108.037 23.25C107.104 23.25 106.237 23.075 105.437 22.725C104.637 22.3583 103.945 21.8667 103.362 21.25C102.779 20.6167 102.32 19.8917 101.987 19.075C101.67 18.2583 101.512 17.3833 101.512 16.45C101.512 15.2333 101.787 14.1167 102.337 13.1C102.904 12.0833 103.679 11.275 104.662 10.675C105.645 10.0583 106.762 9.75 108.012 9.75C109.295 9.75 110.412 10.0583 111.362 10.675C112.329 11.2917 113.087 12.1083 113.637 13.125C114.187 14.125 114.462 15.225 114.462 16.425C114.462 16.5583 114.462 16.6917 114.462 16.825C114.462 16.9417 114.454 17.0333 114.437 17.1H103.287C103.37 18.0333 103.629 18.8667 104.062 19.6C104.512 20.3167 105.087 20.8917 105.787 21.325C106.504 21.7417 107.279 21.95 108.112 21.95C108.962 21.95 109.762 21.7333 110.512 21.3C111.279 20.8667 111.812 20.3 112.112 19.6L113.587 20C113.32 20.6167 112.912 21.175 112.362 21.675C111.812 22.175 111.162 22.5667 110.412 22.85C109.679 23.1167 108.887 23.25 108.037 23.25ZM103.237 15.875H112.862C112.795 14.925 112.537 14.0917 112.087 13.375C111.654 12.6583 111.079 12.1 110.362 11.7C109.662 11.2833 108.887 11.075 108.037 11.075C107.187 11.075 106.412 11.2833 105.712 11.7C105.012 12.1 104.437 12.6667 103.987 13.4C103.554 14.1167 103.304 14.9417 103.237 15.875ZM2.225 52V34.25H9.575C10.3417 34.25 11.0417 34.4083 11.675 34.725C12.325 35.0417 12.8833 35.475 13.35 36.025C13.8167 36.5583 14.1833 37.1583 14.45 37.825C14.7167 38.475 14.85 39.1417 14.85 39.825C14.85 40.7917 14.6333 41.7083 14.2 42.575C13.7833 43.425 13.1917 44.1167 12.425 44.65C11.6583 45.1833 10.7583 45.45 9.725 45.45H3.975V52H2.225ZM3.975 43.9H9.65C10.35 43.9 10.9583 43.7083 11.475 43.325C11.9917 42.9417 12.3917 42.4417 12.675 41.825C12.9583 41.2083 13.1 40.5417 13.1 39.825C13.1 39.0917 12.9333 38.4167 12.6 37.8C12.2667 37.1833 11.825 36.7 11.275 36.35C10.7417 35.9833 10.15 35.8 9.5 35.8H3.975V43.9ZM17.5018 33.75H19.2018V49.05C19.2018 49.7 19.3184 50.125 19.5518 50.325C19.7851 50.525 20.0684 50.625 20.4018 50.625C20.7018 50.625 21.0018 50.5917 21.3018 50.525C21.6018 50.4583 21.8601 50.3917 22.0768 50.325L22.3768 51.7C22.0601 51.8333 21.6684 51.9417 21.2018 52.025C20.7518 52.1083 20.3601 52.15 20.0268 52.15C19.2601 52.15 18.6434 51.925 18.1768 51.475C17.7268 51.025 17.5018 50.4083 17.5018 49.625V33.75ZM23.1883 48.25C23.1883 47.4333 23.4216 46.7333 23.8883 46.15C24.3549 45.55 24.9966 45.0917 25.8133 44.775C26.6466 44.4417 27.6049 44.275 28.6883 44.275C29.3216 44.275 29.9799 44.325 30.6633 44.425C31.3466 44.525 31.9549 44.675 32.4883 44.875V43.775C32.4883 42.675 32.1633 41.8 31.5133 41.15C30.8633 40.5 29.9633 40.175 28.8133 40.175C28.1133 40.175 27.4216 40.3083 26.7383 40.575C26.0716 40.825 25.3716 41.2 24.6383 41.7L23.9883 40.5C24.8383 39.9167 25.6716 39.4833 26.4883 39.2C27.3049 38.9 28.1383 38.75 28.9883 38.75C30.5883 38.75 31.8549 39.2083 32.7883 40.125C33.7216 41.0417 34.1883 42.3083 34.1883 43.925V49.95C34.1883 50.1833 34.2383 50.3583 34.3383 50.475C34.4383 50.575 34.5966 50.6333 34.8133 50.65V52C34.6299 52.0167 34.4716 52.0333 34.3383 52.05C34.2049 52.0667 34.1049 52.0667 34.0383 52.05C33.6216 52.0333 33.3049 51.9 33.0883 51.65C32.8716 51.4 32.7549 51.1333 32.7383 50.85L32.7133 49.9C32.1299 50.65 31.3716 51.2333 30.4383 51.65C29.5049 52.05 28.5549 52.25 27.5883 52.25C26.7549 52.25 25.9966 52.075 25.3133 51.725C24.6466 51.3583 24.1216 50.875 23.7383 50.275C23.3716 49.6583 23.1883 48.9833 23.1883 48.25ZM31.9133 49.25C32.0966 49.0167 32.2383 48.7917 32.3383 48.575C32.4383 48.3583 32.4883 48.1667 32.4883 48V46.1C31.9216 45.8833 31.3299 45.7167 30.7133 45.6C30.1133 45.4833 29.5049 45.425 28.8883 45.425C27.6716 45.425 26.6883 45.6667 25.9383 46.15C25.1883 46.6333 24.8133 47.2917 24.8133 48.125C24.8133 48.6083 24.9383 49.0667 25.1883 49.5C25.4383 49.9167 25.8049 50.2667 26.2883 50.55C26.7716 50.8167 27.3383 50.95 27.9883 50.95C28.8049 50.95 29.5633 50.7917 30.2633 50.475C30.9799 50.1583 31.5299 49.75 31.9133 49.25ZM43.5113 52.25C42.5613 52.25 41.6863 52.075 40.8863 51.725C40.103 51.3583 39.4113 50.8583 38.8113 50.225C38.228 49.5917 37.7697 48.8667 37.4363 48.05C37.1197 47.2333 36.9613 46.3667 36.9613 45.45C36.9613 44.2167 37.2363 43.0917 37.7863 42.075C38.3363 41.0583 39.103 40.25 40.0863 39.65C41.0697 39.05 42.203 38.75 43.4863 38.75C44.703 38.75 45.778 39.0333 46.7113 39.6C47.6447 40.15 48.3363 40.9 48.7863 41.85L47.1363 42.375C46.7697 41.7083 46.253 41.1917 45.5863 40.825C44.9363 40.4417 44.2113 40.25 43.4113 40.25C42.5447 40.25 41.753 40.475 41.0363 40.925C40.3197 41.375 39.7447 41.9917 39.3113 42.775C38.8947 43.5583 38.6863 44.45 38.6863 45.45C38.6863 46.4333 38.903 47.325 39.3363 48.125C39.7697 48.925 40.3447 49.5667 41.0613 50.05C41.778 50.5167 42.5697 50.75 43.4363 50.75C44.003 50.75 44.5447 50.65 45.0613 50.45C45.5947 50.25 46.053 49.9833 46.4363 49.65C46.8363 49.3 47.103 48.925 47.2363 48.525L48.9113 49.025C48.678 49.6417 48.2863 50.2 47.7363 50.7C47.203 51.1833 46.5697 51.5667 45.8363 51.85C45.1197 52.1167 44.3447 52.25 43.5113 52.25ZM57.085 52.25C56.1516 52.25 55.285 52.075 54.485 51.725C53.685 51.3583 52.9933 50.8667 52.41 50.25C51.8266 49.6167 51.3683 48.8917 51.035 48.075C50.7183 47.2583 50.56 46.3833 50.56 45.45C50.56 44.2333 50.835 43.1167 51.385 42.1C51.9516 41.0833 52.7266 40.275 53.71 39.675C54.6933 39.0583 55.81 38.75 57.06 38.75C58.3433 38.75 59.46 39.0583 60.41 39.675C61.3766 40.2917 62.135 41.1083 62.685 42.125C63.235 43.125 63.51 44.225 63.51 45.425C63.51 45.5583 63.51 45.6917 63.51 45.825C63.51 45.9417 63.5016 46.0333 63.485 46.1H52.335C52.4183 47.0333 52.6766 47.8667 53.11 48.6C53.56 49.3167 54.135 49.8917 54.835 50.325C55.5516 50.7417 56.3266 50.95 57.16 50.95C58.01 50.95 58.81 50.7333 59.56 50.3C60.3266 49.8667 60.86 49.3 61.16 48.6L62.635 49C62.3683 49.6167 61.96 50.175 61.41 50.675C60.86 51.175 60.21 51.5667 59.46 51.85C58.7266 52.1167 57.935 52.25 57.085 52.25ZM52.285 44.875H61.91C61.8433 43.925 61.585 43.0917 61.135 42.375C60.7016 41.6583 60.1266 41.1 59.41 40.7C58.71 40.2833 57.935 40.075 57.085 40.075C56.235 40.075 55.46 40.2833 54.76 40.7C54.06 41.1 53.485 41.6667 53.035 42.4C52.6016 43.1167 52.3516 43.9417 52.285 44.875Z" fill="white"/>
</svg>
