<svg width="281" height="42" viewBox="0 0 281 42" fill="none" xmlns="http://www.w3.org/2000/svg">
<path d="M28.2793 18.81H23.4793V15.45H28.2793V9.63H32.2993V29.55H28.2793V18.81ZM17.4193 20.64C17.2793 20.64 17.1593 20.7 17.0593 20.82C15.9993 22.54 14.2693 24.5 11.8693 26.7L8.86926 24.09C11.1093 22.13 12.7093 20.33 13.6693 18.69C14.6293 17.03 15.1093 15.22 15.1093 13.26V10.95H19.1593V13.44C19.1593 15.56 18.7593 17.48 17.9593 19.2L18.1393 19.29L18.9493 18.63C19.3093 18.33 19.6593 18.18 19.9993 18.18C20.3393 18.18 20.6593 18.33 20.9593 18.63L25.6393 23.46L22.6693 26.22L17.7793 20.82C17.6593 20.7 17.5393 20.64 17.4193 20.64ZM32.8093 33.51V36.81H17.3293C15.6293 36.81 14.7793 35.96 14.7793 34.26V27.45H18.8293V33.51H32.8093ZM59.5573 9.63V26.25H55.7173V19.26H53.8573V26.04H50.0473V10.02H53.8573V15.99H55.7173V9.63H59.5573ZM48.9373 24.72C47.5773 25.02 46.1573 25.25 44.6773 25.41C43.2173 25.55 41.3873 25.62 39.1873 25.62H36.9373V11.19H47.7673V14.37H40.6873V16.71H47.4073V19.86H40.6873V22.47C42.3273 22.45 43.7373 22.37 44.9173 22.23C46.1173 22.09 47.2973 21.89 48.4573 21.63L48.9373 24.72ZM41.1973 27.48H59.5573V37.68H55.5973V30.84H41.1973V27.48ZM88.2554 15.87V19.23H84.2954V25.44H80.2754V9.63H84.2954V15.87H88.2554ZM65.0654 25.26L62.0654 22.71C64.1454 21.27 65.6854 19.9 66.6854 18.6C67.6854 17.28 68.2254 15.91 68.3054 14.49H63.1154V11.16H77.5154V14.49H72.3254C72.3054 16.09 71.9054 17.58 71.1254 18.96L71.3354 19.05L72.1454 18.48C72.5054 18.24 72.8654 18.12 73.2254 18.12C73.6254 18.12 73.9854 18.25 74.3054 18.51L78.6854 22.11L75.6854 24.72L71.0054 20.61C70.8254 20.47 70.6554 20.4 70.4954 20.4C70.3154 20.4 70.1654 20.46 70.0454 20.58C68.9254 21.96 67.2654 23.52 65.0654 25.26ZM84.4454 31.74C84.4454 32.9 84.1054 33.93 83.4254 34.83C82.7454 35.73 81.7454 36.43 80.4254 36.93C79.1254 37.43 77.5654 37.68 75.7454 37.68C73.9254 37.68 72.3554 37.43 71.0354 36.93C69.7354 36.43 68.7354 35.73 68.0354 34.83C67.3554 33.93 67.0154 32.9 67.0154 31.74C67.0154 30.58 67.3554 29.55 68.0354 28.65C68.7354 27.75 69.7354 27.05 71.0354 26.55C72.3554 26.05 73.9254 25.8 75.7454 25.8C77.5654 25.8 79.1254 26.05 80.4254 26.55C81.7454 27.05 82.7454 27.75 83.4254 28.65C84.1054 29.55 84.4454 30.58 84.4454 31.74ZM80.2454 31.53C80.2454 30.77 79.8754 30.15 79.1354 29.67C78.3954 29.19 77.2654 28.95 75.7454 28.95C74.2254 28.95 73.0854 29.19 72.3254 29.67C71.5854 30.15 71.2154 30.77 71.2154 31.53V31.98C71.2154 32.72 71.5854 33.33 72.3254 33.81C73.0854 34.29 74.2254 34.53 75.7454 34.53C77.2654 34.53 78.3954 34.29 79.1354 33.81C79.8754 33.33 80.2454 32.72 80.2454 31.98V31.53ZM113.053 9.63V36.27H109.213V22.56H107.293V35.55H103.483V10.02H107.293V19.26H109.213V9.63H113.053ZM102.283 20.82C102.283 23.78 101.713 26.02 100.573 27.54C99.4334 29.04 97.8834 29.79 95.9234 29.79C93.9634 29.79 92.4134 29.04 91.2734 27.54C90.1534 26.02 89.5934 23.78 89.5934 20.82C89.5934 17.86 90.1534 15.63 91.2734 14.13C92.4134 12.61 93.9634 11.85 95.9234 11.85C97.9034 11.85 99.4534 12.6 100.573 14.1C101.713 15.6 102.283 17.84 102.283 20.82ZM98.1734 18.42C98.1734 17.32 97.9634 16.49 97.5434 15.93C97.1434 15.35 96.6034 15.06 95.9234 15.06C95.2634 15.06 94.7234 15.35 94.3034 15.93C93.9034 16.49 93.7034 17.32 93.7034 18.42V23.25C93.7034 24.33 93.9034 25.16 94.3034 25.74C94.7234 26.32 95.2634 26.61 95.9234 26.61C96.6034 26.61 97.1434 26.32 97.5434 25.74C97.9634 25.16 98.1734 24.33 98.1734 23.25V18.42ZM133.351 14.34V12.84H119.791V10.14H137.221V16.89H123.721V18.39H137.851V21.09H119.821V14.34H133.351ZM116.221 25.32V22.41H141.001V25.32H116.221ZM119.791 35.04V30.78H133.801V29.4H119.671V26.64H137.521V33.33H123.511V34.77H138.211V37.59H122.341C120.641 37.59 119.791 36.74 119.791 35.04ZM173.099 9.63V36.27H169.079V9.63H173.099ZM151.439 16.41C151.439 15.23 151.749 14.2 152.369 13.32C153.009 12.42 153.879 11.73 154.979 11.25C156.099 10.75 157.379 10.5 158.819 10.5C160.259 10.5 161.529 10.75 162.629 11.25C163.749 11.73 164.619 12.42 165.239 13.32C165.879 14.2 166.199 15.23 166.199 16.41C166.199 17.59 165.879 18.63 165.239 19.53C164.619 20.43 163.749 21.13 162.629 21.63C161.529 22.11 160.259 22.35 158.819 22.35C157.379 22.35 156.099 22.11 154.979 21.63C153.879 21.13 153.009 20.43 152.369 19.53C151.749 18.63 151.439 17.59 151.439 16.41ZM155.579 16.68C155.579 17.46 155.869 18.08 156.449 18.54C157.049 18.98 157.839 19.2 158.819 19.2C159.799 19.2 160.579 18.98 161.159 18.54C161.759 18.08 162.059 17.46 162.059 16.68V16.2C162.059 15.42 161.759 14.8 161.159 14.34C160.579 13.88 159.799 13.65 158.819 13.65C157.839 13.65 157.049 13.88 156.449 14.34C155.869 14.8 155.579 15.42 155.579 16.2V16.68ZM167.969 26.55C166.089 26.83 163.749 27.07 160.949 27.27V36.03H156.959V27.48C154.079 27.56 151.879 27.6 150.359 27.6L150.029 24.24C153.429 24.24 156.709 24.17 159.869 24.03C163.029 23.89 165.609 23.68 167.609 23.4L167.969 26.55ZM202.337 18.09V21.45H198.377V30.15H194.357V9.63H198.377V18.09H202.337ZM188.837 13.65H180.797V10.29H188.837V13.65ZM184.667 27.42C183.327 27.42 182.157 27.2 181.157 26.76C180.177 26.32 179.427 25.73 178.907 24.99C178.407 24.25 178.157 23.45 178.157 22.59C178.157 20.89 178.907 19.68 180.407 18.96V18.72H176.627V15.42H192.707V18.72H188.927V18.96C190.447 19.68 191.207 20.89 191.207 22.59C191.207 23.45 190.947 24.25 190.427 24.99C189.907 25.73 189.147 26.32 188.147 26.76C187.167 27.2 186.007 27.42 184.667 27.42ZM184.457 24.06H184.877C185.657 24.06 186.287 23.84 186.767 23.4C187.247 22.94 187.487 22.35 187.487 21.63C187.487 20.91 187.247 20.33 186.767 19.89C186.287 19.43 185.657 19.2 184.877 19.2H184.457C183.697 19.2 183.077 19.42 182.597 19.86C182.117 20.3 181.877 20.89 181.877 21.63C181.877 22.37 182.117 22.96 182.597 23.4C183.077 23.84 183.697 24.06 184.457 24.06ZM185.207 33.81H199.007V37.11H183.707C182.007 37.11 181.157 36.26 181.157 34.56V29.16H185.207V33.81ZM229.695 18.81H224.895V15.45H229.695V9.63H233.715V29.55H229.695V18.81ZM218.835 20.64C218.695 20.64 218.575 20.7 218.475 20.82C217.415 22.54 215.685 24.5 213.285 26.7L210.285 24.09C212.525 22.13 214.125 20.33 215.085 18.69C216.045 17.03 216.525 15.22 216.525 13.26V10.95H220.575V13.44C220.575 15.56 220.175 17.48 219.375 19.2L219.555 19.29L220.365 18.63C220.725 18.33 221.075 18.18 221.415 18.18C221.755 18.18 222.075 18.33 222.375 18.63L227.055 23.46L224.085 26.22L219.195 20.82C219.075 20.7 218.955 20.64 218.835 20.64ZM234.225 33.51V36.81H218.745C217.045 36.81 216.195 35.96 216.195 34.26V27.45H220.245V33.51H234.225ZM260.973 9.63V26.25H257.133V19.26H255.273V26.04H251.463V10.02H255.273V15.99H257.133V9.63H260.973ZM250.353 24.72C248.993 25.02 247.573 25.25 246.093 25.41C244.633 25.55 242.803 25.62 240.603 25.62H238.353V11.19H249.183V14.37H242.103V16.71H248.823V19.86H242.103V22.47C243.743 22.45 245.153 22.37 246.333 22.23C247.533 22.09 248.713 21.89 249.873 21.63L250.353 24.72ZM242.613 27.48H260.973V37.68H257.013V30.84H242.613V27.48ZM267.051 26.4L265.641 17.88V12.06H270.321V17.88L268.941 26.4H267.051ZM267.951 33.36C266.991 33.36 266.301 33.14 265.881 32.7C265.481 32.26 265.281 31.72 265.281 31.08V30.36C265.281 29.72 265.481 29.18 265.881 28.74C266.301 28.3 266.991 28.08 267.951 28.08C268.911 28.08 269.591 28.3 269.991 28.74C270.411 29.18 270.621 29.72 270.621 30.36V31.08C270.621 31.72 270.411 32.26 269.991 32.7C269.591 33.14 268.911 33.36 267.951 33.36Z" fill="#E22F2F"/>
</svg>
