<svg width="263" height="29" viewBox="0 0 263 29" fill="none" xmlns="http://www.w3.org/2000/svg">
<path d="M4.05 6.36C4.05 4.66 4.83 3.33 6.39 2.37C7.95 1.39 10.28 0.899999 13.38 0.899999C16.48 0.899999 18.81 1.39 20.37 2.37C21.93 3.33 22.71 4.66 22.71 6.36C22.71 8.06 21.93 9.4 20.37 10.38C18.81 11.34 16.48 11.82 13.38 11.82C10.28 11.82 7.95 11.34 6.39 10.38C4.83 9.4 4.05 8.06 4.05 6.36ZM18.45 6.54V6.18C18.45 5.48 18.03 4.94 17.19 4.56C16.35 4.16 15.08 3.96 13.38 3.96C11.68 3.96 10.41 4.16 9.57 4.56C8.75 4.94 8.34 5.48 8.34 6.18V6.54C8.34 7.24 8.75 7.78 9.57 8.16C10.41 8.54 11.68 8.73 13.38 8.73C15.08 8.73 16.35 8.54 17.19 8.16C18.03 7.78 18.45 7.24 18.45 6.54ZM0.99 16.5V13.17H25.77V16.5H0.99ZM4.44 25.68V18.39H22.29V28.23H6.99C5.29 28.23 4.44 27.38 4.44 25.68ZM18.33 21.57H8.4V25.05H18.33V21.57ZM50.808 0.629999V16.56H46.758V0.629999H50.808ZM30.528 16.59L27.528 13.98C29.748 12.18 31.338 10.51 32.298 8.97C33.278 7.41 33.768 5.72 33.768 3.9V1.92H37.818V4.14C37.818 6.14 37.418 7.95 36.618 9.57L36.768 9.66L37.638 8.94C37.998 8.64 38.348 8.49 38.688 8.49C39.028 8.49 39.348 8.64 39.648 8.94L44.268 13.29L41.358 16.11L36.468 11.13C36.348 11.01 36.208 10.95 36.048 10.95C35.928 10.95 35.808 11.01 35.688 11.13C34.608 12.75 32.888 14.57 30.528 16.59ZM32.928 17.88H50.808V28.68H46.848V21.27H32.928V17.88ZM87.0759 13.65H83.0859V27.27H79.0659V0.629999H83.0859V10.29H87.0759V13.65ZM63.0459 2.85H75.4659V8.16C75.4659 10.32 75.0859 12.19 74.3259 13.77C73.5659 15.33 72.3759 16.78 70.7559 18.12C69.1559 19.46 66.9259 20.93 64.0659 22.53L61.7559 19.56C64.3359 18.12 66.3059 16.87 67.6659 15.81C69.0459 14.73 70.0459 13.58 70.6659 12.36L62.3859 13.11L61.8459 9.72L71.5059 9.21C71.5459 8.73 71.5659 8.35 71.5659 8.07V6.15H63.0459V2.85ZM111.904 0.629999V27.27H108.094V0.629999H111.904ZM102.544 1.02H106.294V26.55H102.544V13.26H99.664V9.96H102.544V1.02ZM100.504 16.86L100.984 20.04C99.644 20.34 98.234 20.57 96.754 20.73C95.294 20.87 93.474 20.94 91.294 20.94H89.074V3.12H99.274V6.39H92.944V10.11H98.614V13.35H92.944V17.7C94.524 17.68 95.894 17.6 97.054 17.46C98.214 17.32 99.364 17.12 100.504 16.86ZM132.862 6.12H118.192V2.73H136.852V5.04C136.852 7.48 136.722 9.83 136.462 12.09C136.222 14.33 135.912 16.29 135.532 17.97L131.632 17.34C132.392 13.8 132.802 10.06 132.862 6.12ZM139.852 21.03V24.42H115.072V21.03H123.712V12.3H127.732V21.03H139.852ZM164.8 0.629999V27.27H160.75V0.629999H164.8ZM158.38 16.92L158.86 20.16C157.1 20.46 155.27 20.69 153.37 20.85C151.47 20.99 149.1 21.06 146.26 21.06H143.35V9.72H151.96V5.91H143.29V2.55H155.98V13.02H147.37V17.76C149.71 17.74 151.73 17.66 153.43 17.52C155.13 17.38 156.78 17.18 158.38 16.92ZM182.458 14.19H169.468V1.62H173.308V4.95H178.648V1.62H182.458V3.54H187.618V0.629999H191.638V14.46H187.618V12.09H182.458V14.19ZM182.458 6.69V8.94H187.618V6.69H182.458ZM178.648 8.19H173.308V10.95H178.648V8.19ZM192.178 25.41V28.53H176.608C174.908 28.53 174.058 27.68 174.058 25.98V20.73H187.648V18.9H173.938V15.84H191.638V23.58H178.048V25.41H192.178ZM227.936 7.08V10.44H223.976V16.56H219.956V0.629999H223.976V7.08H227.936ZM214.376 4.17H205.946V0.96H214.376V4.17ZM204.596 17.31L201.836 14.91C203.796 13.79 205.266 12.73 206.246 11.73C207.246 10.73 207.846 9.71 208.046 8.67H202.856V5.52H217.496V8.67H211.886C211.766 9.83 211.376 10.91 210.716 11.91L210.896 12L211.736 11.4C212.076 11.14 212.426 11.01 212.786 11.01C213.106 11.01 213.476 11.13 213.896 11.37L218.336 14.25L215.576 16.71L210.806 13.32C210.586 13.18 210.366 13.11 210.146 13.11C209.946 13.11 209.766 13.18 209.606 13.32C208.486 14.56 206.816 15.89 204.596 17.31ZM218.096 22.83C218.336 22.83 218.646 22.91 219.026 23.07L225.386 25.74L223.436 28.77L216.176 25.29C215.896 25.15 215.606 25.08 215.306 25.08C214.986 25.08 214.666 25.16 214.346 25.32L214.196 25.41C212.536 26.59 210.036 27.73 206.696 28.83L204.776 25.8C207.376 25.08 209.326 24.34 210.626 23.58C211.946 22.8 212.766 21.95 213.086 21.03H206.156V17.73H223.976V21.03H217.136C216.976 22.09 216.536 23.07 215.816 23.97L215.996 24.03L216.836 23.4C217.336 23.02 217.756 22.83 218.096 22.83ZM248.084 0.629999H252.134V27.27H248.084V0.629999ZM229.844 18.84C232.404 17.56 234.354 16.38 235.694 15.3C237.034 14.22 237.974 13.07 238.514 11.85C239.074 10.61 239.354 9.08 239.354 7.26V6.12H230.774V2.73H243.434V7.26C243.434 9.56 243.074 11.52 242.354 13.14C241.654 14.76 240.504 16.25 238.904 17.61C237.304 18.95 235.064 20.39 232.184 21.93L229.844 18.84ZM258.812 17.4L257.402 8.88V3.06H262.082V8.88L260.702 17.4H258.812ZM259.712 24.36C258.752 24.36 258.062 24.14 257.642 23.7C257.242 23.26 257.042 22.72 257.042 22.08V21.36C257.042 20.72 257.242 20.18 257.642 19.74C258.062 19.3 258.752 19.08 259.712 19.08C260.672 19.08 261.352 19.3 261.752 19.74C262.172 20.18 262.382 20.72 262.382 21.36V22.08C262.382 22.72 262.172 23.26 261.752 23.7C261.352 24.14 260.672 24.36 259.712 24.36Z" fill="#E22F2F"/>
</svg>
