<svg width="286" height="14" viewBox="0 0 286 14" fill="none" xmlns="http://www.w3.org/2000/svg">
<path d="M2.28063 2.754C2.28063 1.97933 2.63997 1.368 3.35863 0.92C4.0773 0.462666 5.1553 0.233999 6.59263 0.233999C8.02997 0.233999 9.10797 0.462666 9.82663 0.92C10.5453 1.368 10.9046 1.97933 10.9046 2.754C10.9046 3.538 10.5453 4.15867 9.82663 4.616C9.10797 5.064 8.02997 5.288 6.59263 5.288C5.1553 5.288 4.0773 5.064 3.35863 4.616C2.63997 4.15867 2.28063 3.538 2.28063 2.754ZM9.14063 2.852V2.67C9.14063 2.31533 8.92597 2.03533 8.49663 1.83C8.07663 1.61533 7.44197 1.508 6.59263 1.508C5.7433 1.508 5.10863 1.61533 4.68863 1.83C4.26863 2.03533 4.05863 2.31533 4.05863 2.67V2.852C4.05863 3.20667 4.26397 3.48667 4.67463 3.692C5.09463 3.89733 5.73397 4 6.59263 4C7.4513 4 8.09063 3.89733 8.51063 3.692C8.93063 3.48667 9.14063 3.20667 9.14063 2.852ZM12.3606 6.03V7.416H0.824633V6.03H12.3606ZM2.46263 11.882V8.41H10.7086V12.946H3.52663C2.8173 12.946 2.46263 12.5913 2.46263 11.882ZM9.07063 9.726H4.10063V11.616H9.07063V9.726ZM24.0031 0.136V7.528H22.3231V0.136H24.0031ZM17.1571 4.77C17.1011 4.77 17.0451 4.798 16.9891 4.854C16.7277 5.26467 16.3964 5.68 15.9951 6.1C15.5937 6.52 15.1084 6.97733 14.5391 7.472L13.2931 6.394C14.3664 5.498 15.1271 4.69533 15.5751 3.986C16.0231 3.26733 16.2471 2.474 16.2471 1.606V0.71H17.9271V1.704C17.9271 2.6 17.7451 3.426 17.3811 4.182L17.4511 4.238L17.8151 3.93C17.9644 3.80867 18.1137 3.748 18.2631 3.748C18.4124 3.748 18.5477 3.80867 18.6691 3.93L20.9651 6.086L19.7471 7.262L17.3531 4.854C17.2971 4.798 17.2317 4.77 17.1571 4.77ZM15.7431 8.186H24.0031V13.142H22.3651V9.586H15.7431V8.186ZM27.2595 2.502C27.2595 1.78333 27.6141 1.21867 28.3235 0.807999C29.0421 0.397333 30.1201 0.192 31.5575 0.192C32.9948 0.192 34.0681 0.397333 34.7775 0.807999C35.4961 1.21867 35.8555 1.78333 35.8555 2.502C35.8555 3.23 35.4961 3.79933 34.7775 4.21C34.0681 4.62067 32.9948 4.826 31.5575 4.826C30.1201 4.826 29.0421 4.62067 28.3235 4.21C27.6141 3.79933 27.2595 3.23 27.2595 2.502ZM34.0775 2.558V2.432C34.0775 2.11467 33.8675 1.86267 33.4475 1.676C33.0368 1.48933 32.4068 1.396 31.5575 1.396C30.7081 1.396 30.0735 1.48933 29.6535 1.676C29.2428 1.86267 29.0375 2.11467 29.0375 2.432V2.558C29.0375 2.894 29.2428 3.15067 29.6535 3.328C30.0735 3.50533 30.7081 3.594 31.5575 3.594C32.4068 3.594 33.0368 3.50533 33.4475 3.328C33.8675 3.15067 34.0775 2.894 34.0775 2.558ZM37.3255 5.47V6.814H25.7895V5.47H37.3255ZM27.5115 11.98V9.74H34.0495V8.858H27.4415V7.626H35.6455V10.888H29.1075V11.784H35.9815V13.044H28.5755C27.8661 13.044 27.5115 12.6893 27.5115 11.98ZM53.1165 5.288V6.646H41.5805V5.288H49.6025C49.6865 4.83067 49.7565 4.40133 49.8125 4L42.8965 4.28L42.7285 2.964L49.9105 2.782L49.9385 1.774H43.1485V0.444H51.5765V1.494C51.5765 2.82867 51.4598 4.09333 51.2265 5.288H53.1165ZM44.8985 11.784H51.7725V13.044H44.3665C43.6572 13.044 43.3025 12.6893 43.3025 11.98V9.74H49.8405V8.844H43.2325V7.612H51.4365V10.888H44.8985V11.784ZM64.7589 0.136V7.822H63.0789V0.136H64.7589ZM62.0709 7.094C61.2682 7.22467 60.4142 7.32733 59.5089 7.402C58.6036 7.47667 57.5116 7.514 56.2329 7.514H54.8469V3.426H58.8929V2.166H54.8049V0.821999H60.5309V4.756H56.4709V6.184C58.5709 6.17467 60.3676 6.03933 61.8609 5.778L62.0709 7.094ZM56.4989 8.466H64.7589V13.142H63.1209V9.866H56.4989V8.466ZM78.4173 6.394H76.5973V12.498H74.9313V0.136H76.5973V4.994H78.4173V6.394ZM72.3833 2.236H68.2113V0.821999H72.3833V2.236ZM66.4333 3.412H73.9233V4.784H72.1733V4.882C72.92 5.32067 73.2933 6.07667 73.2933 7.15C73.2933 7.72867 73.1627 8.24667 72.9013 8.704C72.64 9.152 72.276 9.502 71.8093 9.754C71.352 9.99667 70.834 10.118 70.2553 10.118C69.6673 10.118 69.14 9.99667 68.6733 9.754C68.216 9.502 67.8567 9.152 67.5953 8.704C67.334 8.256 67.2033 7.738 67.2033 7.15C67.2033 6.07667 67.5767 5.32067 68.3233 4.882V4.784H66.4333V3.412ZM71.6833 6.506C71.6833 6.02067 71.5527 5.64733 71.2913 5.386C71.0393 5.11533 70.694 4.98 70.2553 4.98C69.8167 4.98 69.462 5.11533 69.1913 5.386C68.93 5.64733 68.7993 6.02067 68.7993 6.506V7.192C68.7993 7.668 68.93 8.04133 69.1913 8.312C69.462 8.58267 69.8167 8.718 70.2553 8.718C70.694 8.718 71.0393 8.58733 71.2913 8.326C71.5527 8.05533 71.6833 7.67733 71.6833 7.192V6.506ZM85.5798 7.122H79.5598V0.947999H85.5798V2.026H88.0578V0.136H89.7238V9.404H88.0578V6.114H85.5798V7.122ZM83.9278 2.306H81.2118V5.764H83.9278V2.306ZM85.5798 3.37V4.77H88.0578V3.37H85.5798ZM89.9618 11.378V12.75H82.7098C82.0004 12.75 81.6458 12.3953 81.6458 11.686V8.396H83.3258V11.378H89.9618ZM106.691 4.084V5.484H104.997V9.614H103.345V0.136H104.997V4.084H106.691ZM100.265 2.306H95.4068V0.933999H101.903V1.774C101.903 2.95933 101.767 4.22867 101.497 5.582L99.9008 5.372C100.115 4.42 100.237 3.398 100.265 2.306ZM102.687 7.528C101.679 7.67733 100.447 7.79867 98.9908 7.892C97.5441 7.976 96.0788 8.018 94.5948 8.018L94.4548 6.632C95.0428 6.632 95.9154 6.62267 97.0728 6.604V4H98.6968V6.548C100.162 6.492 101.441 6.38933 102.533 6.24L102.687 7.528ZM98.5428 11.378H105.249V12.75H97.9408C97.2314 12.75 96.8768 12.3953 96.8768 11.686V8.9H98.5428V11.378ZM116.317 6.058H114.273V4.728H116.317V3.3H114.273V1.97H116.317V0.136H117.997V9.544H116.317V6.058ZM114.119 7.444C113.457 7.584 112.738 7.69133 111.963 7.766C111.189 7.84067 110.255 7.878 109.163 7.878H107.987V3.622H111.711V2.264H107.959V0.906H113.321V4.966H109.611V6.52C111.217 6.52 112.654 6.38933 113.923 6.128L114.119 7.444ZM118.235 11.378V12.75H110.927C110.218 12.75 109.863 12.3953 109.863 11.686V8.844H111.543V11.378H118.235ZM124.548 2.754C124.548 1.97933 124.908 1.368 125.626 0.92C126.345 0.462666 127.423 0.233999 128.86 0.233999C130.298 0.233999 131.376 0.462666 132.094 0.92C132.813 1.368 133.172 1.97933 133.172 2.754C133.172 3.538 132.813 4.15867 132.094 4.616C131.376 5.064 130.298 5.288 128.86 5.288C127.423 5.288 126.345 5.064 125.626 4.616C124.908 4.15867 124.548 3.538 124.548 2.754ZM131.408 2.852V2.67C131.408 2.31533 131.194 2.03533 130.764 1.83C130.344 1.61533 129.71 1.508 128.86 1.508C128.011 1.508 127.376 1.61533 126.956 1.83C126.536 2.03533 126.326 2.31533 126.326 2.67V2.852C126.326 3.20667 126.532 3.48667 126.942 3.692C127.362 3.89733 128.002 4 128.86 4C129.719 4 130.358 3.89733 130.778 3.692C131.198 3.48667 131.408 3.20667 131.408 2.852ZM134.628 6.03V7.416H123.092V6.03H134.628ZM124.73 11.882V8.41H132.976V12.946H125.794C125.085 12.946 124.73 12.5913 124.73 11.882ZM131.338 9.726H126.368V11.616H131.338V9.726ZM146.271 0.136V7.528H144.591V0.136H146.271ZM139.425 4.77C139.369 4.77 139.313 4.798 139.257 4.854C138.995 5.26467 138.664 5.68 138.263 6.1C137.861 6.52 137.376 6.97733 136.807 7.472L135.561 6.394C136.634 5.498 137.395 4.69533 137.843 3.986C138.291 3.26733 138.515 2.474 138.515 1.606V0.71H140.195V1.704C140.195 2.6 140.013 3.426 139.649 4.182L139.719 4.238L140.083 3.93C140.232 3.80867 140.381 3.748 140.531 3.748C140.68 3.748 140.815 3.80867 140.937 3.93L143.233 6.086L142.015 7.262L139.621 4.854C139.565 4.798 139.499 4.77 139.425 4.77ZM138.011 8.186H146.271V13.142H144.633V9.586H138.011V8.186ZM158.753 0.136V7.262H157.087V4.392H154.903V3.034H157.087V0.136H158.753ZM149.359 7.346L148.113 6.296C149.149 5.54933 149.896 4.86333 150.353 4.238C150.82 3.61267 151.058 2.94067 151.067 2.222H148.561V0.836H155.197V2.222H152.733V2.236C152.733 3.02 152.556 3.73867 152.201 4.392L152.285 4.434L152.635 4.196C152.775 4.084 152.92 4.028 153.069 4.028C153.228 4.028 153.386 4.084 153.545 4.196L155.743 6.03L154.497 7.108L152.187 5.078C152.084 5.01267 152 4.98 151.935 4.98C151.86 4.98 151.795 5.008 151.739 5.064C151.478 5.41867 151.156 5.77333 150.773 6.128C150.39 6.48267 149.919 6.88867 149.359 7.346ZM150.703 8.032H158.753V12.988H151.767C151.058 12.988 150.703 12.6333 150.703 11.924V8.032ZM152.341 11.658H157.115V9.362H152.341V11.658ZM170.507 4.56H162.247V0.458H170.423V1.774H163.913V3.244H170.507V4.56ZM172.075 5.442V6.8H160.539V5.442H172.075ZM163.857 11.784H170.731V13.044H163.325C162.616 13.044 162.261 12.6893 162.261 11.98V9.74H168.799V8.858H162.191V7.626H170.395V10.888H163.857V11.784ZM174.492 2.502C174.492 1.78333 174.847 1.21867 175.556 0.807999C176.275 0.397333 177.353 0.192 178.79 0.192C180.227 0.192 181.301 0.397333 182.01 0.807999C182.729 1.21867 183.088 1.78333 183.088 2.502C183.088 3.23 182.729 3.79933 182.01 4.21C181.301 4.62067 180.227 4.826 178.79 4.826C177.353 4.826 176.275 4.62067 175.556 4.21C174.847 3.79933 174.492 3.23 174.492 2.502ZM181.31 2.558V2.432C181.31 2.11467 181.1 1.86267 180.68 1.676C180.269 1.48933 179.639 1.396 178.79 1.396C177.941 1.396 177.306 1.48933 176.886 1.676C176.475 1.86267 176.27 2.11467 176.27 2.432V2.558C176.27 2.894 176.475 3.15067 176.886 3.328C177.306 3.50533 177.941 3.594 178.79 3.594C179.639 3.594 180.269 3.50533 180.68 3.328C181.1 3.15067 181.31 2.894 181.31 2.558ZM184.558 5.47V6.814H173.022V5.47H184.558ZM174.744 11.98V9.74H181.282V8.858H174.674V7.626H182.878V10.888H176.34V11.784H183.214V13.044H175.808C175.099 13.044 174.744 12.6893 174.744 11.98ZM200.685 5.302H198.991V8.788H197.339V0.136H198.991V3.902H200.685V5.302ZM194.483 1.508H190.745V0.233999H194.483V1.508ZM196.737 8.284C195.72 8.44267 194.478 8.56867 193.013 8.662C191.557 8.746 190.078 8.788 188.575 8.788L188.449 7.444C189.578 7.444 190.68 7.43 191.753 7.402V6.674C191.062 6.58067 190.526 6.38 190.143 6.072C189.76 5.764 189.569 5.39533 189.569 4.966C189.569 4.34067 189.896 3.89733 190.549 3.636V3.524H188.855V2.306H196.191V3.524H194.511V3.636C195.174 3.89733 195.505 4.34067 195.505 4.966C195.505 5.386 195.314 5.75467 194.931 6.072C194.548 6.38 194.016 6.58067 193.335 6.674V7.332C194.604 7.276 195.692 7.18267 196.597 7.052L196.737 8.284ZM192.299 5.456H192.761C193.144 5.456 193.447 5.37667 193.671 5.218C193.904 5.05 194.021 4.82133 194.021 4.532C194.021 4.24267 193.904 4.01867 193.671 3.86C193.447 3.70133 193.144 3.622 192.761 3.622H192.299C191.916 3.622 191.608 3.70133 191.375 3.86C191.151 4.01867 191.039 4.24267 191.039 4.532C191.039 4.82133 191.156 5.05 191.389 5.218C191.622 5.37667 191.926 5.456 192.299 5.456ZM190.619 9.39H198.991V13.198H197.367V10.664H190.619V9.39ZM211.991 0.136V9.404H210.311V0.136H211.991ZM201.617 4.042C201.617 3.36067 201.757 2.77267 202.037 2.278C202.327 1.78333 202.723 1.40533 203.227 1.144C203.731 0.882666 204.31 0.751999 204.963 0.751999C205.617 0.751999 206.195 0.882666 206.699 1.144C207.203 1.40533 207.595 1.78333 207.875 2.278C208.165 2.77267 208.309 3.36067 208.309 4.042C208.309 4.714 208.165 5.29733 207.875 5.792C207.595 6.28667 207.203 6.66933 206.699 6.94C206.195 7.20133 205.617 7.332 204.963 7.332C204.31 7.332 203.731 7.20133 203.227 6.94C202.723 6.66933 202.327 6.28667 202.037 5.792C201.757 5.29733 201.617 4.714 201.617 4.042ZM206.531 4.406V3.678C206.531 3.19267 206.387 2.81 206.097 2.53C205.817 2.25 205.439 2.11 204.963 2.11C204.487 2.11 204.105 2.25 203.815 2.53C203.526 2.81 203.381 3.19267 203.381 3.678V4.406C203.381 4.89133 203.521 5.274 203.801 5.554C204.091 5.82467 204.478 5.96 204.963 5.96C205.439 5.96 205.817 5.82467 206.097 5.554C206.387 5.274 206.531 4.89133 206.531 4.406ZM203.913 11.686V8.396H205.593V11.378H212.229V12.75H204.977C204.268 12.75 203.913 12.3953 203.913 11.686ZM225.664 3.006V4.406H223.788V7.108H222.122V0.136H223.788V3.006H225.664ZM219.392 1.662H215.64V0.345999H219.392V1.662ZM217.446 7.094C216.82 7.094 216.279 7.01467 215.822 6.856C215.374 6.69733 215.028 6.478 214.786 6.198C214.543 5.918 214.422 5.61 214.422 5.274C214.422 4.62067 214.762 4.15867 215.444 3.888V3.79H213.666V2.516H221.198V3.79H219.434V3.888C220.115 4.15867 220.456 4.62067 220.456 5.274C220.456 5.61 220.334 5.918 220.092 6.198C219.858 6.478 219.513 6.69733 219.056 6.856C218.598 7.01467 218.062 7.094 217.446 7.094ZM217.264 5.778H217.614C218.006 5.778 218.323 5.694 218.566 5.526C218.818 5.358 218.944 5.12933 218.944 4.84C218.944 4.55067 218.818 4.32667 218.566 4.168C218.323 4 218.006 3.916 217.614 3.916H217.264C216.872 3.916 216.55 4 216.298 4.168C216.055 4.32667 215.934 4.55067 215.934 4.84C215.934 5.12933 216.055 5.358 216.298 5.526C216.55 5.694 216.872 5.778 217.264 5.778ZM217.32 11.84H224.068V13.072H216.774C216.064 13.072 215.71 12.7173 215.71 12.008V9.81H222.192V8.928H215.654V7.724H223.788V10.944H217.32V11.84ZM231.053 6.268L230.129 4.994C231.249 4.518 232.131 4.06533 232.775 3.636C233.428 3.19733 233.89 2.754 234.161 2.306C234.441 1.858 234.581 1.368 234.581 0.836V0.332H236.289V0.877999C236.289 1.86733 236.009 2.72133 235.449 3.44L235.547 3.482L236.093 3.076C236.289 2.936 236.48 2.866 236.667 2.866C236.835 2.866 236.998 2.91267 237.157 3.006L240.545 4.938L239.607 6.226L235.813 3.958C235.673 3.874 235.528 3.832 235.379 3.832C235.229 3.832 235.08 3.88333 234.931 3.986H234.917C234.515 4.35933 234.007 4.728 233.391 5.092C232.775 5.44667 231.995 5.83867 231.053 6.268ZM241.105 8.62H236.177V12.96H234.497V8.62H229.569V7.206H241.105V8.62ZM256.056 7.248H254.376V0.136H256.056V7.248ZM245.682 3.79C245.682 3.15533 245.822 2.6 246.102 2.124C246.391 1.648 246.788 1.284 247.292 1.032C247.796 0.78 248.374 0.654 249.028 0.654C249.672 0.654 250.246 0.78 250.75 1.032C251.254 1.284 251.646 1.648 251.926 2.124C252.215 2.6 252.36 3.15533 252.36 3.79C252.36 4.42467 252.215 4.98 251.926 5.456C251.646 5.932 251.254 6.30067 250.75 6.562C250.246 6.814 249.672 6.94 249.028 6.94C248.374 6.94 247.796 6.814 247.292 6.562C246.788 6.30067 246.391 5.932 246.102 5.456C245.822 4.98 245.682 4.42467 245.682 3.79ZM247.446 4.07C247.446 4.53667 247.586 4.90533 247.866 5.176C248.155 5.43733 248.542 5.568 249.028 5.568C249.504 5.568 249.882 5.43733 250.162 5.176C250.451 4.90533 250.596 4.53667 250.596 4.07V3.496C250.596 3.03867 250.451 2.67933 250.162 2.418C249.882 2.14733 249.504 2.012 249.028 2.012C248.552 2.012 248.169 2.14733 247.88 2.418C247.59 2.67933 247.446 3.03867 247.446 3.496V4.07ZM257.288 11.966L256.224 13.086L254.362 11.21C254.306 11.1353 254.24 11.098 254.166 11.098C254.11 11.098 254.049 11.1213 253.984 11.168C253.554 11.7467 252.831 12.4187 251.814 13.184L249.742 11.126C249.658 11.0607 249.592 11.028 249.546 11.028C249.49 11.028 249.424 11.056 249.35 11.112C248.93 11.7 248.248 12.3767 247.306 13.142L246.242 12.036C247.082 11.4387 247.693 10.8413 248.076 10.244C248.468 9.63733 248.664 8.998 248.664 8.326V7.78H250.232V8.368C250.232 9.11467 250.078 9.80533 249.77 10.44L249.84 10.482L250.12 10.258C250.222 10.1647 250.348 10.118 250.498 10.118C250.656 10.118 250.792 10.174 250.904 10.286L251.926 11.238C252.402 10.846 252.752 10.4167 252.976 9.95C253.2 9.48333 253.312 8.95133 253.312 8.354V7.78H254.88V8.438C254.88 9.20333 254.726 9.894 254.418 10.51L254.488 10.552L254.754 10.328C254.903 10.2253 255.048 10.174 255.188 10.174C255.337 10.174 255.463 10.2207 255.566 10.314L257.288 11.966ZM268.51 0.136V12.484H266.858V5.68H264.772C264.688 6.90267 264.343 7.82667 263.736 8.452C263.139 9.07733 262.369 9.39 261.426 9.39C260.4 9.39 259.578 9.03067 258.962 8.312C258.356 7.59333 258.052 6.53867 258.052 5.148C258.052 3.748 258.356 2.69333 258.962 1.984C259.578 1.26533 260.4 0.906 261.426 0.906C262.322 0.906 263.064 1.19067 263.652 1.76C264.25 2.32933 264.614 3.16933 264.744 4.28H266.858V0.136H268.51ZM263.036 4.35C263.036 3.68733 262.892 3.18333 262.602 2.838C262.313 2.48333 261.921 2.306 261.426 2.306C260.932 2.306 260.54 2.48333 260.25 2.838C259.961 3.18333 259.816 3.68733 259.816 4.35V5.946C259.816 6.60867 259.961 7.11733 260.25 7.472C260.54 7.81733 260.932 7.99 261.426 7.99C261.921 7.99 262.313 7.81733 262.602 7.472C262.892 7.11733 263.036 6.60867 263.036 5.946V4.35ZM271.585 3.93C271.585 3.29533 271.753 2.726 272.089 2.222C272.425 1.718 272.929 1.32133 273.601 1.032C274.282 0.733333 275.113 0.584 276.093 0.584C277.073 0.584 277.899 0.733333 278.571 1.032C279.252 1.32133 279.761 1.718 280.097 2.222C280.433 2.726 280.601 3.29533 280.601 3.93C280.601 4.56467 280.433 5.13867 280.097 5.652C279.761 6.156 279.252 6.55733 278.571 6.856C277.899 7.14533 277.073 7.29 276.093 7.29C275.113 7.29 274.282 7.14533 273.601 6.856C272.929 6.55733 272.425 6.156 272.089 5.652C271.753 5.13867 271.585 4.56467 271.585 3.93ZM273.377 4.112C273.377 4.65333 273.605 5.09667 274.063 5.442C274.52 5.78733 275.197 5.96 276.093 5.96C276.989 5.96 277.665 5.78733 278.123 5.442C278.58 5.09667 278.809 4.65333 278.809 4.112V3.762C278.809 3.21133 278.58 2.76333 278.123 2.418C277.675 2.07267 276.998 1.9 276.093 1.9C275.187 1.9 274.506 2.07267 274.049 2.418C273.601 2.76333 273.377 3.21133 273.377 3.762V4.112ZM281.861 9.754V11.14H270.325V9.754H273.041V7.612H274.693V9.754H277.493V7.612H279.131V9.754H281.861ZM284.123 8.06L283.549 3.986V1.228H285.453V3.986L284.907 8.06H284.123ZM284.501 11.168C284.1 11.168 283.81 11.0747 283.633 10.888C283.456 10.7013 283.367 10.4633 283.367 10.174V9.894C283.367 9.60467 283.456 9.36667 283.633 9.18C283.81 8.99333 284.1 8.9 284.501 8.9C284.893 8.9 285.178 8.99333 285.355 9.18C285.532 9.36667 285.621 9.60467 285.621 9.894V10.174C285.621 10.4633 285.532 10.7013 285.355 10.888C285.178 11.0747 284.893 11.168 284.501 11.168Z" fill="#FF7979"/>
</svg>
