<svg width="136" height="47" viewBox="0 0 136 47" fill="none" xmlns="http://www.w3.org/2000/svg">
<rect width="136" height="47" rx="22" fill="#E22F2F"/>
<path d="M84.92 19.84C80.74 19.26 78.62 16.86 78.62 14.72V13.84H75.8V14.72C75.8 16.88 73.7 19.26 69.5 19.84L70.5 21.96C73.72 21.48 76.04 19.98 77.22 18C78.4 19.98 80.7 21.48 83.92 21.96L84.92 19.84ZM85.52 23.32H68.88V25.46H75.82V31.74H78.46V25.46H85.52V23.32ZM97.2584 17.74V19.88H100.018V24.26H102.658V13.3H100.018V17.74H97.2584ZM98.3584 21.7C95.5584 20.78 94.2784 18.62 94.1984 16.52H97.7784V14.4H87.8784V16.52H91.4984C91.4184 18.82 90.0784 21.16 87.1584 22.18L88.4984 24.26C90.6384 23.54 92.0984 22.04 92.8984 20.18C93.6984 21.8 95.0784 23.1 97.0784 23.76L98.3584 21.7ZM96.4384 29.74C94.0184 29.74 92.7584 29.24 92.7584 28.2C92.7584 27.16 94.0184 26.66 96.4384 26.66C98.8384 26.66 100.098 27.16 100.098 28.2C100.098 29.24 98.8384 29.74 96.4384 29.74ZM96.4384 24.66C92.5184 24.66 90.1184 25.96 90.1184 28.2C90.1184 30.44 92.5184 31.74 96.4384 31.74C100.338 31.74 102.738 30.44 102.738 28.2C102.738 25.96 100.338 24.66 96.4384 24.66Z" fill="white"/>
<path d="M34.5573 31.3282H51.458V34.2705H25.583V28.0285L39.8143 13.4642L45.9121 19.7077L34.5559 31.3282H34.5573ZM41.8454 11.3855L44.8958 8.26374C45.1654 7.98794 45.531 7.83301 45.9121 7.83301C46.2933 7.83301 46.6589 7.98794 46.9284 8.26374L50.9951 12.4256C51.2646 12.7015 51.416 13.0756 51.416 13.4657C51.416 13.8558 51.2646 14.2299 50.9951 14.5058L47.9448 17.6261L41.8469 11.3855H41.8454Z" fill="white"/>
</svg>
