<svg width="136" height="47" viewBox="0 0 136 47" fill="none" xmlns="http://www.w3.org/2000/svg">
<rect width="136" height="47" rx="22" fill="#747474"/>
<path d="M70.58 22.7C72.72 22.26 74.18 21.24 75 19.9C75.82 21.1 77.2 22.02 79.26 22.42L80.28 20.38C77.6 19.9 76.34 18.62 76.26 17.16H79.86V15.12H76.26V13.32H73.62V15.12H70.02V17.16H73.62C73.54 18.72 72.28 20.14 69.52 20.66L70.58 22.7ZM80.6 22.94C76.74 23.46 72.28 23.48 68.92 23.48L69.24 25.62C70.56 25.62 72.04 25.62 73.6 25.56V31.16H76.24V25.4C77.74 25.28 79.28 25.1 80.76 24.84L80.6 22.94ZM81.64 13.3V31.7H84.28V13.3H81.64ZM103.378 21.7C99.1784 21.02 96.9184 18.26 96.9184 15.64V14.32H94.0984V15.64C94.0984 18.2 91.8184 21.02 87.6584 21.7L88.7384 23.88C91.9584 23.3 94.2984 21.56 95.4984 19.3C96.6984 21.58 99.0584 23.3 102.298 23.88L103.378 21.7ZM96.8384 27.42V23.3H94.1984V27.42H87.2584V29.54H103.938V27.42H96.8384Z" fill="white"/>
<path d="M34.1542 31.3282H50.6875V34.2705H25.375V28.0285L39.2969 13.4642L45.2622 19.7077L34.1528 31.3282H34.1542ZM41.2839 11.3855L44.268 8.26374C44.5317 7.98794 44.8893 7.83301 45.2622 7.83301C45.6351 7.83301 45.9927 7.98794 46.2564 8.26374L50.2347 12.4256C50.4983 12.7015 50.6464 13.0756 50.6464 13.4657C50.6464 13.8558 50.4983 14.2299 50.2347 14.5058L47.2506 17.6261L41.2853 11.3855H41.2839Z" fill="white"/>
</svg>
