<svg width="176" height="53" viewBox="0 0 176 53" fill="none" xmlns="http://www.w3.org/2000/svg">
<path fill-rule="evenodd" clip-rule="evenodd" d="M21 1C9.95431 1 1 9.95431 1 21V52H175V21C175 9.9543 166.046 1 155 1H21Z" fill="#E22F2F"/>
<path d="M1 52H0V53H1V52ZM175 52V53H176V52H175ZM2 21C2 10.5066 10.5066 2 21 2V0C9.40202 0 0 9.40202 0 21H2ZM2 52V21H0V52H2ZM1 53H175V51H1V53ZM174 21V52H176V21H174ZM155 2C165.493 2 174 10.5066 174 21H176C176 9.40202 166.598 0 155 0V2ZM21 2H155V0H21V2Z" fill="#747474"/>
<path d="M50.4427 19.34H47.8027V31.24H49.0827C50.9227 31.24 53.0427 31.14 55.4427 30.7L55.2227 28.48C53.4627 28.8 51.8827 28.92 50.4427 28.96V19.34ZM60.3427 17.28V24.38H58.6827V17.62H56.2227V34.84H58.6827V26.52H60.3427V35.7H62.8627V17.28H60.3427ZM83.1416 25.7C81.1416 24.64 80.5216 22.56 80.4616 20.5H82.2616V18.4H76.9616V20.5H77.9616C77.9216 21.98 77.6216 23.58 76.6016 24.82C75.5816 23.58 75.2816 21.96 75.2416 20.5H76.2616V18.4H70.8016V20.5H72.7816C72.7216 22.54 72.0816 24.64 70.1016 25.7L71.4616 27.58C72.7416 26.9 73.5616 25.78 74.0216 24.44C74.4816 25.8 75.2816 27.02 76.6016 27.76C77.9416 27.02 78.7416 25.8 79.2016 24.4C79.6616 25.76 80.4816 26.88 81.7816 27.58L83.1416 25.7ZM76.0616 30.94H83.5816V33.4H76.0616V30.94ZM73.4816 35.5H86.1816V28.84H73.4816V35.5ZM83.5216 17.3V27.98H86.1816V17.3H83.5216ZM95.6805 31.78H105.84V35.74H108.48V29.68H95.6805V31.78ZM98.4805 20.08H105.78V22.46H98.4805V20.08ZM103.46 26.26V24.54H108.38V18.02H95.8805V24.54H100.82V26.26H93.8405V28.36H110.48V26.26H103.46ZM114.079 32.38H124.359V35.66H126.999V30.3H114.079V32.38ZM121.899 27.16V25.84H127.259V23.84H116.919V22.64H126.879V17.66H114.279V19.66H124.279V20.78H114.319V25.84H119.259V27.16H112.239V29.26H128.919V27.16H121.899Z" fill="white"/>
</svg>
