<svg width="176" height="53" viewBox="0 0 176 53" fill="none" xmlns="http://www.w3.org/2000/svg">
<path fill-rule="evenodd" clip-rule="evenodd" d="M21 1C9.95431 1 1 9.95431 1 21V52H175V21C175 9.9543 166.046 1 155 1H21Z" fill="white"/>
<path d="M1 52H0V53H1V52ZM175 52V53H176V52H175ZM2 21C2 10.5066 10.5066 2 21 2V0C9.40202 0 0 9.40202 0 21H2ZM2 52V21H0V52H2ZM1 53H175V51H1V53ZM174 21V52H176V21H174ZM155 2C165.493 2 174 10.5066 174 21H176C176 9.40202 166.598 0 155 0V2ZM21 2H155V0H21V2Z" fill="#747474"/>
<path d="M48.4427 18.34H45.8027V30.24H47.0827C48.9227 30.24 51.0427 30.14 53.4427 29.7L53.2227 27.48C51.4627 27.8 49.8827 27.92 48.4427 27.96V18.34ZM58.3427 16.28V23.38H56.6827V16.62H54.2227V33.84H56.6827V25.52H58.3427V34.7H60.8627V16.28H58.3427ZM81.1416 24.7C79.1416 23.64 78.5216 21.56 78.4616 19.5H80.2616V17.4H74.9616V19.5H75.9616C75.9216 20.98 75.6216 22.58 74.6016 23.82C73.5816 22.58 73.2816 20.96 73.2416 19.5H74.2616V17.4H68.8016V19.5H70.7816C70.7216 21.54 70.0816 23.64 68.1016 24.7L69.4616 26.58C70.7416 25.9 71.5616 24.78 72.0216 23.44C72.4816 24.8 73.2816 26.02 74.6016 26.76C75.9416 26.02 76.7416 24.8 77.2016 23.4C77.6616 24.76 78.4816 25.88 79.7816 26.58L81.1416 24.7ZM74.0616 29.94H81.5816V32.4H74.0616V29.94ZM71.4816 34.5H84.1816V27.84H71.4816V34.5ZM81.5216 16.3V26.98H84.1816V16.3H81.5216ZM93.6805 30.78H103.84V34.74H106.48V28.68H93.6805V30.78ZM96.4805 19.08H103.78V21.46H96.4805V19.08ZM101.46 25.26V23.54H106.38V17.02H93.8805V23.54H98.8205V25.26H91.8405V27.36H108.48V25.26H101.46ZM112.079 31.38H122.359V34.66H124.999V29.3H112.079V31.38ZM119.899 26.16V24.84H125.259V22.84H114.919V21.64H124.879V16.66H112.279V18.66H122.279V19.78H112.319V24.84H117.259V26.16H110.239V28.26H126.919V26.16H119.899Z" fill="black"/>
</svg>
