<svg width="181" height="15" viewBox="0 0 181 15" fill="none" xmlns="http://www.w3.org/2000/svg">
<path d="M3.44336 1.47V2.1C3.44336 4.11 2.50336 5.705 0.623359 6.885C0.373359 7.045 0.248359 7.205 0.248359 7.365C0.238359 7.515 0.343359 7.72 0.563359 7.98L1.16336 8.73C1.37336 8.99 1.56336 9.135 1.73336 9.165C1.91336 9.195 2.15836 9.135 2.46836 8.985C2.87836 8.795 3.35836 8.445 3.90836 7.935C4.46836 7.425 4.88836 6.89 5.16836 6.33C5.50836 6.85 5.91836 7.325 6.39836 7.755C6.88836 8.175 7.32336 8.47 7.70336 8.64C8.02336 8.79 8.26336 8.855 8.42336 8.835C8.58336 8.805 8.76336 8.65 8.96336 8.37L9.50336 7.62C9.69336 7.37 9.77836 7.155 9.75836 6.975C9.73836 6.795 9.60336 6.63 9.35336 6.48C8.84336 6.19 8.40836 5.875 8.04836 5.535C7.69836 5.185 7.42836 4.825 7.23836 4.455C7.04836 4.075 6.91336 3.705 6.83336 3.345C6.76336 2.985 6.72836 2.6 6.72836 2.19V1.47C6.72836 1.18 6.66836 0.98 6.54836 0.869999C6.42836 0.76 6.20836 0.705 5.88836 0.705H4.28336C3.96336 0.705 3.74336 0.76 3.62336 0.869999C3.50336 0.98 3.44336 1.18 3.44336 1.47ZM10.8684 9.72C10.8684 10.02 10.9284 10.235 11.0484 10.365C11.1784 10.495 11.3984 10.56 11.7084 10.56H13.1034C13.4134 10.56 13.6284 10.495 13.7484 10.365C13.8784 10.235 13.9434 10.02 13.9434 9.72V1.47C13.9434 1.17 13.8784 0.954999 13.7484 0.824999C13.6284 0.695 13.4134 0.63 13.1034 0.63H11.7084C11.3984 0.63 11.1784 0.695 11.0484 0.824999C10.9284 0.954999 10.8684 1.17 10.8684 1.47V3.015H9.03836C8.73836 3.015 8.52836 3.07 8.40836 3.18C8.29836 3.29 8.24336 3.5 8.24336 3.81V5.055C8.24336 5.355 8.29836 5.56 8.40836 5.67C8.51836 5.77 8.72836 5.82 9.03836 5.82H10.8684V9.72ZM2.78336 10.095V12.675C2.78336 13.375 2.90836 13.835 3.15836 14.055C3.41836 14.275 3.89336 14.385 4.58336 14.385H13.2384C13.5484 14.385 13.7584 14.33 13.8684 14.22C13.9784 14.12 14.0334 13.92 14.0334 13.62V12.555C14.0334 12.245 13.9734 12.035 13.8534 11.925C13.7434 11.815 13.5384 11.76 13.2384 11.76H5.93336V10.095C5.93336 9.795 5.86836 9.58 5.73836 9.45C5.61836 9.32 5.40336 9.255 5.09336 9.255H3.62336C3.31336 9.255 3.09336 9.32 2.96336 9.45C2.84336 9.58 2.78336 9.795 2.78336 10.095ZM26.2693 8.415C26.2693 8.715 26.3293 8.93 26.4493 9.06C26.5793 9.19 26.7993 9.255 27.1093 9.255H28.2343C28.5443 9.255 28.7593 9.19 28.8793 9.06C29.0093 8.93 29.0743 8.715 29.0743 8.415V1.47C29.0743 1.17 29.0093 0.954999 28.8793 0.824999C28.7593 0.695 28.5443 0.63 28.2343 0.63H27.1093C26.7993 0.63 26.5793 0.695 26.4493 0.824999C26.3293 0.954999 26.2693 1.17 26.2693 1.47V3.615H25.6243V1.47C25.6243 1.17 25.5593 0.954999 25.4293 0.824999C25.3093 0.695 25.0943 0.63 24.7843 0.63H23.6593C23.3493 0.63 23.1293 0.695 22.9993 0.824999C22.8793 0.954999 22.8193 1.17 22.8193 1.47V8.415C22.8193 8.715 22.8793 8.93 22.9993 9.06C23.1293 9.19 23.3493 9.255 23.6593 9.255H24.7843C25.0943 9.255 25.3093 9.19 25.4293 9.06C25.5593 8.93 25.6243 8.715 25.6243 8.415V6.165H26.2693V8.415ZM15.7543 7.515C15.7543 8.115 15.8443 8.495 16.0243 8.655C16.2143 8.815 16.6093 8.895 17.2093 8.895H21.7243C22.0343 8.895 22.2343 8.855 22.3243 8.775C22.4143 8.685 22.4593 8.49 22.4593 8.19V7.41C22.4593 7.1 22.4093 6.9 22.3093 6.81C22.2193 6.72 22.0243 6.675 21.7243 6.675H18.6943V5.94H21.4993C21.8093 5.94 22.0093 5.9 22.0993 5.82C22.1893 5.73 22.2343 5.535 22.2343 5.235V4.455C22.2343 4.145 22.1843 3.945 22.0843 3.855C21.9943 3.765 21.7993 3.72 21.4993 3.72H18.6943V3.105H21.4993C21.8093 3.105 22.0093 3.065 22.0993 2.985C22.1893 2.895 22.2343 2.7 22.2343 2.4V1.62C22.2343 1.31 22.1843 1.11 22.0843 1.02C21.9943 0.929999 21.7993 0.884999 21.4993 0.884999H16.5643C16.2543 0.884999 16.0393 0.944999 15.9193 1.065C15.8093 1.175 15.7543 1.38 15.7543 1.68V7.515ZM25.8343 13.695C25.8343 13.995 25.8943 14.21 26.0143 14.34C26.1443 14.47 26.3643 14.535 26.6743 14.535H28.2343C28.5443 14.535 28.7593 14.47 28.8793 14.34C29.0093 14.21 29.0743 13.995 29.0743 13.695V10.695C29.0743 10.235 28.9893 9.925 28.8193 9.765C28.6593 9.605 28.3543 9.525 27.9043 9.525H17.8843C17.5643 9.525 17.3493 9.58 17.2393 9.69C17.1393 9.79 17.0893 9.99 17.0893 10.29V11.31C17.0893 11.62 17.1393 11.825 17.2393 11.925C17.3493 12.025 17.5643 12.075 17.8843 12.075H25.8343V13.695ZM33.5628 9.405C32.6128 9.895 32.1378 10.705 32.1378 11.835C32.1378 12.965 32.6128 13.775 33.5628 14.265C34.5128 14.755 35.8678 15 37.6278 15C39.3878 15 40.7428 14.755 41.6928 14.265C42.6528 13.775 43.1328 12.965 43.1328 11.835C43.1328 10.705 42.6528 9.895 41.6928 9.405C40.7428 8.915 39.3878 8.67 37.6278 8.67C35.8678 8.67 34.5128 8.915 33.5628 9.405ZM37.4328 8.25C37.8228 8.38 38.0928 8.435 38.2428 8.415C38.3928 8.385 38.5428 8.25 38.6928 8.01L39.2178 7.2C39.4078 6.91 39.4928 6.705 39.4728 6.585C39.4528 6.465 39.3178 6.34 39.0678 6.21C38.1778 5.76 37.5278 5.32 37.1178 4.89C36.7078 4.45 36.4628 3.935 36.3828 3.345H38.3628C38.6728 3.345 38.8828 3.295 38.9928 3.195C39.1028 3.085 39.1578 2.88 39.1578 2.58V1.68C39.1578 1.37 39.0978 1.16 38.9778 1.05C38.8678 0.939999 38.6628 0.884999 38.3628 0.884999H31.3278C31.0078 0.884999 30.7928 0.939999 30.6828 1.05C30.5828 1.15 30.5328 1.35 30.5328 1.65V2.58C30.5328 2.89 30.5828 3.095 30.6828 3.195C30.7928 3.295 31.0078 3.345 31.3278 3.345H33.1278C32.9078 4.835 31.9278 5.975 30.1878 6.765C29.9678 6.865 29.8528 6.995 29.8428 7.155C29.8328 7.305 29.9278 7.51 30.1278 7.77L30.7278 8.55C30.9078 8.78 31.0778 8.905 31.2378 8.925C31.3978 8.945 31.6328 8.885 31.9428 8.745C32.4128 8.555 32.9328 8.25 33.5028 7.83C34.0728 7.4 34.5128 6.9 34.8228 6.33C35.1328 6.79 35.5528 7.195 36.0828 7.545C36.6128 7.895 37.0628 8.13 37.4328 8.25ZM40.1178 7.965C40.1178 8.265 40.1778 8.48 40.2978 8.61C40.4278 8.74 40.6478 8.805 40.9578 8.805H42.2778C42.5878 8.805 42.8028 8.74 42.9228 8.61C43.0528 8.48 43.1178 8.265 43.1178 7.965V5.97H43.8378C44.1478 5.97 44.3578 5.92 44.4678 5.82C44.5778 5.71 44.6328 5.505 44.6328 5.205V4.065C44.6328 3.755 44.5728 3.545 44.4528 3.435C44.3428 3.325 44.1378 3.27 43.8378 3.27H43.1178V1.47C43.1178 1.17 43.0528 0.954999 42.9228 0.824999C42.8028 0.695 42.5878 0.63 42.2778 0.63H40.9578C40.6478 0.63 40.4278 0.695 40.2978 0.824999C40.1778 0.954999 40.1178 1.17 40.1178 1.47V7.965ZM35.6628 12.54C35.3228 12.42 35.1528 12.185 35.1528 11.835C35.1528 11.485 35.3228 11.255 35.6628 11.145C36.0028 11.025 36.6578 10.965 37.6278 10.965C38.5978 10.965 39.2528 11.025 39.5928 11.145C39.9328 11.255 40.1028 11.485 40.1028 11.835C40.1028 12.185 39.9278 12.42 39.5778 12.54C39.2378 12.66 38.5878 12.72 37.6278 12.72C36.6678 12.72 36.0128 12.66 35.6628 12.54ZM55.978 13.35C55.978 13.65 56.038 13.865 56.158 13.995C56.288 14.125 56.508 14.19 56.818 14.19H57.943C58.253 14.19 58.468 14.125 58.588 13.995C58.718 13.865 58.783 13.65 58.783 13.35V1.47C58.783 1.17 58.718 0.954999 58.588 0.824999C58.468 0.695 58.253 0.63 57.943 0.63H56.818C56.508 0.63 56.288 0.695 56.158 0.824999C56.038 0.954999 55.978 1.17 55.978 1.47V5.355H55.333V1.47C55.333 1.17 55.268 0.954999 55.138 0.824999C55.018 0.695 54.803 0.63 54.493 0.63H53.368C53.058 0.63 52.838 0.695 52.708 0.824999C52.588 0.954999 52.528 1.17 52.528 1.47V13.35C52.528 13.65 52.588 13.865 52.708 13.995C52.838 14.125 53.058 14.19 53.368 14.19H54.493C54.803 14.19 55.018 14.125 55.138 13.995C55.268 13.865 55.333 13.65 55.333 13.35V8.205H55.978V13.35ZM45.958 2.475C45.408 3.565 45.133 5.16 45.133 7.26C45.133 9.36 45.408 10.955 45.958 12.045C46.508 13.135 47.408 13.68 48.658 13.68C49.908 13.68 50.808 13.135 51.358 12.045C51.908 10.955 52.183 9.36 52.183 7.26C52.183 5.16 51.908 3.565 51.358 2.475C50.808 1.385 49.908 0.84 48.658 0.84C47.408 0.84 46.508 1.385 45.958 2.475ZM47.998 10.29C47.888 9.72 47.833 8.715 47.833 7.275C47.833 5.835 47.888 4.83 47.998 4.26C48.118 3.68 48.338 3.39 48.658 3.39C48.968 3.39 49.183 3.68 49.303 4.26C49.423 4.83 49.483 5.83 49.483 7.26C49.483 8.73 49.428 9.745 49.318 10.305C49.208 10.855 48.988 11.13 48.658 11.13C48.338 11.13 48.118 10.85 47.998 10.29ZM72.5098 9.93C72.5098 9.35 72.1948 9.06 71.5648 9.06H61.9948C61.6748 9.06 61.4598 9.105 61.3498 9.195C61.2498 9.275 61.1998 9.455 61.1998 9.735V10.125C61.1998 10.415 61.2498 10.6 61.3498 10.68C61.4498 10.76 61.6648 10.8 61.9948 10.8H68.9848V10.98H62.1448C61.5148 10.98 61.1998 11.26 61.1998 11.82V13.47C61.1998 13.87 61.3198 14.145 61.5598 14.295C61.7998 14.455 62.1548 14.535 62.6248 14.535H72.0898C72.4098 14.535 72.6198 14.49 72.7198 14.4C72.8298 14.32 72.8848 14.145 72.8848 13.875V13.515C72.8848 13.225 72.8298 13.03 72.7198 12.93C72.6098 12.84 72.3998 12.795 72.0898 12.795H64.7098V12.57H71.5648C72.1948 12.57 72.5098 12.285 72.5098 11.715V9.93ZM72.5548 1.515C72.5548 0.925 72.2398 0.63 71.6098 0.63H61.9498C61.6298 0.63 61.4148 0.675 61.3048 0.765C61.2048 0.855 61.1548 1.04 61.1548 1.32V1.74C61.1548 2.04 61.2048 2.235 61.3048 2.325C61.4048 2.405 61.6198 2.445 61.9498 2.445H69.1798V2.685H62.0998C61.4698 2.685 61.1548 2.965 61.1548 3.525V5.31C61.1548 5.72 61.2598 6.01 61.4698 6.18C61.6898 6.34 62.0248 6.42 62.4748 6.42H72.1048C72.4148 6.42 72.6248 6.375 72.7348 6.285C72.8448 6.195 72.8998 6.01 72.8998 5.73V5.34C72.8998 5.05 72.8448 4.855 72.7348 4.755C72.6248 4.655 72.4148 4.605 72.1048 4.605H64.5148V4.35H71.6098C72.2398 4.35 72.5548 4.07 72.5548 3.51V1.515ZM73.7848 8.085V7.425C73.7848 7.125 73.7298 6.93 73.6198 6.84C73.5198 6.74 73.3198 6.69 73.0198 6.69H60.7648C60.4448 6.69 60.2348 6.735 60.1348 6.825C60.0448 6.915 59.9998 7.105 59.9998 7.395V8.085C59.9998 8.385 60.0448 8.58 60.1348 8.67C60.2348 8.76 60.4448 8.805 60.7648 8.805H73.0198C73.3298 8.805 73.5348 8.76 73.6348 8.67C73.7348 8.57 73.7848 8.375 73.7848 8.085ZM79.7439 3.9C79.7439 4.95 80.1289 5.81 80.8989 6.48C81.6689 7.15 82.7289 7.485 84.0789 7.485C85.4289 7.485 86.4889 7.15 87.2589 6.48C88.0289 5.81 88.4139 4.95 88.4139 3.9C88.4139 2.86 88.0289 2.005 87.2589 1.335C86.4889 0.664999 85.4289 0.329999 84.0789 0.329999C82.7289 0.329999 81.6689 0.664999 80.8989 1.335C80.1289 2.005 79.7439 2.86 79.7439 3.9ZM89.5389 13.35C89.5389 13.65 89.5989 13.865 89.7189 13.995C89.8489 14.125 90.0689 14.19 90.3789 14.19H91.6989C92.0089 14.19 92.2239 14.125 92.3439 13.995C92.4739 13.865 92.5389 13.65 92.5389 13.35V1.47C92.5389 1.17 92.4739 0.954999 92.3439 0.824999C92.2239 0.695 92.0089 0.63 91.6989 0.63H90.3789C90.0689 0.63 89.8489 0.695 89.7189 0.824999C89.5989 0.954999 89.5389 1.17 89.5389 1.47V13.35ZM89.2389 9.6V8.58C89.2389 8.27 89.1789 8.06 89.0589 7.95C88.9489 7.84 88.7439 7.785 88.4439 7.785H79.8489C79.5289 7.785 79.3139 7.84 79.2039 7.95C79.1039 8.05 79.0539 8.25 79.0539 8.55V9.6C79.0539 9.91 79.1039 10.115 79.2039 10.215C79.3139 10.315 79.5289 10.365 79.8489 10.365H82.5039V13.275C82.5039 13.575 82.5639 13.79 82.6839 13.92C82.8139 14.05 83.0339 14.115 83.3439 14.115H84.7989C85.1089 14.115 85.3239 14.05 85.4439 13.92C85.5739 13.79 85.6389 13.575 85.6389 13.275V10.365H88.4439C88.7539 10.365 88.9639 10.315 89.0739 10.215C89.1839 10.105 89.2389 9.9 89.2389 9.6ZM82.6089 3.915C82.6089 3.525 82.7389 3.205 82.9989 2.955C83.2689 2.695 83.6289 2.565 84.0789 2.565C84.5189 2.565 84.8739 2.695 85.1439 2.955C85.4139 3.205 85.5489 3.52 85.5489 3.9C85.5489 4.29 85.4239 4.61 85.1739 4.86C84.9239 5.11 84.5589 5.235 84.0789 5.235C83.6289 5.235 83.2689 5.11 82.9989 4.86C82.7389 4.61 82.6089 4.295 82.6089 3.915ZM94.7024 5.895C94.7024 6.945 95.0624 7.805 95.7824 8.475C96.5024 9.145 97.4874 9.48 98.7374 9.48C99.9874 9.48 100.972 9.145 101.692 8.475C102.412 7.805 102.772 6.945 102.772 5.895C102.772 5.295 102.637 4.755 102.367 4.275H102.757C103.067 4.275 103.277 4.225 103.387 4.125C103.497 4.015 103.552 3.81 103.552 3.51V2.535C103.552 2.225 103.492 2.015 103.372 1.905C103.262 1.795 103.057 1.74 102.757 1.74H100.282V1.02C100.282 0.719999 100.232 0.52 100.132 0.42C100.032 0.309999 99.8274 0.254999 99.5174 0.254999H97.9124C97.6024 0.254999 97.3974 0.309999 97.2974 0.42C97.1974 0.52 97.1474 0.719999 97.1474 1.02V1.74H94.7024C94.3824 1.74 94.1674 1.795 94.0574 1.905C93.9574 2.005 93.9074 2.205 93.9074 2.505V3.51C93.9074 3.82 93.9574 4.025 94.0574 4.125C94.1674 4.225 94.3824 4.275 94.7024 4.275H95.0924C94.8324 4.765 94.7024 5.305 94.7024 5.895ZM96.0824 10.635V12.675C96.0824 13.375 96.2074 13.835 96.4574 14.055C96.7174 14.275 97.1924 14.385 97.8824 14.385H106.387C106.697 14.385 106.907 14.33 107.017 14.22C107.127 14.12 107.182 13.92 107.182 13.62V12.555C107.182 12.245 107.122 12.035 107.002 11.925C106.892 11.815 106.687 11.76 106.387 11.76H99.2324V10.635C99.2324 10.335 99.1674 10.12 99.0374 9.99C98.9174 9.86 98.7024 9.795 98.3924 9.795H96.9224C96.6124 9.795 96.3924 9.86 96.2624 9.99C96.1424 10.12 96.0824 10.335 96.0824 10.635ZM104.017 9.87C104.017 10.17 104.077 10.385 104.197 10.515C104.327 10.645 104.547 10.71 104.857 10.71H106.177C106.487 10.71 106.702 10.645 106.822 10.515C106.952 10.385 107.017 10.17 107.017 9.87V6.795H107.737C108.047 6.795 108.257 6.745 108.367 6.645C108.477 6.535 108.532 6.33 108.532 6.03V4.815C108.532 4.505 108.472 4.295 108.352 4.185C108.242 4.075 108.037 4.02 107.737 4.02H107.017V1.47C107.017 1.17 106.952 0.954999 106.822 0.824999C106.702 0.695 106.487 0.63 106.177 0.63H104.857C104.547 0.63 104.327 0.695 104.197 0.824999C104.077 0.954999 104.017 1.17 104.017 1.47V9.87ZM97.8374 6.885C97.6174 6.655 97.5074 6.32 97.5074 5.88C97.5074 5.44 97.6174 5.115 97.8374 4.905C98.0574 4.685 98.3574 4.575 98.7374 4.575C99.1174 4.575 99.4174 4.685 99.6374 4.905C99.8574 5.115 99.9674 5.435 99.9674 5.865C99.9674 6.315 99.8574 6.655 99.6374 6.885C99.4174 7.115 99.1174 7.23 98.7374 7.23C98.3574 7.23 98.0574 7.115 97.8374 6.885ZM126.141 13.575V9.03C126.141 8.73 126.076 8.515 125.946 8.385C125.826 8.255 125.611 8.19 125.301 8.19H123.981C123.671 8.19 123.451 8.255 123.321 8.385C123.201 8.515 123.141 8.73 123.141 9.03V9.42H118.116V9.03C118.116 8.73 118.051 8.515 117.921 8.385C117.801 8.255 117.586 8.19 117.276 8.19H115.971C115.661 8.19 115.441 8.255 115.311 8.385C115.191 8.515 115.131 8.73 115.131 9.03V13.2C115.131 13.72 115.236 14.07 115.446 14.25C115.666 14.44 116.036 14.535 116.556 14.535H125.166C125.506 14.535 125.751 14.46 125.901 14.31C126.061 14.16 126.141 13.915 126.141 13.575ZM114.951 0.884999C114.291 0.884999 113.961 1.215 113.961 1.875V6.135C113.961 6.705 114.066 7.085 114.276 7.275C114.496 7.455 114.891 7.545 115.461 7.545H121.596C121.906 7.545 122.116 7.495 122.226 7.395C122.336 7.285 122.391 7.08 122.391 6.78V5.865C122.391 5.555 122.331 5.345 122.211 5.235C122.101 5.125 121.896 5.07 121.596 5.07H117.111V3.36H121.401C121.711 3.36 121.921 3.31 122.031 3.21C122.141 3.1 122.196 2.895 122.196 2.595V1.68C122.196 1.37 122.136 1.16 122.016 1.05C121.906 0.939999 121.701 0.884999 121.401 0.884999H114.951ZM123.141 7.05C123.141 7.35 123.201 7.565 123.321 7.695C123.451 7.825 123.671 7.89 123.981 7.89H125.301C125.611 7.89 125.826 7.825 125.946 7.695C126.076 7.565 126.141 7.35 126.141 7.05V5.445H126.861C127.171 5.445 127.381 5.395 127.491 5.295C127.601 5.185 127.656 4.98 127.656 4.68V3.615C127.656 3.305 127.596 3.095 127.476 2.985C127.366 2.875 127.161 2.82 126.861 2.82H126.141V1.47C126.141 1.17 126.076 0.954999 125.946 0.824999C125.826 0.695 125.611 0.63 125.301 0.63H123.981C123.671 0.63 123.451 0.695 123.321 0.824999C123.201 0.954999 123.141 1.17 123.141 1.47V7.05ZM123.141 12.345H118.116V11.52H123.141V12.345ZM135.075 8.46C135.465 8.59 135.735 8.645 135.885 8.625C136.035 8.595 136.185 8.46 136.335 8.22L136.845 7.47C137.035 7.18 137.12 6.975 137.1 6.855C137.08 6.735 136.945 6.61 136.695 6.48C135.785 6.03 135.135 5.565 134.745 5.085C134.365 4.595 134.15 4.015 134.1 3.345H135.765C135.645 3.455 135.585 3.67 135.585 3.99V5.055C135.585 5.355 135.64 5.56 135.75 5.67C135.86 5.77 136.07 5.82 136.38 5.82H138.225V8.175C138.225 8.475 138.285 8.69 138.405 8.82C138.535 8.95 138.755 9.015 139.065 9.015H140.385C140.695 9.015 140.91 8.95 141.03 8.82C141.16 8.69 141.225 8.475 141.225 8.175V1.47C141.225 1.17 141.16 0.954999 141.03 0.824999C140.91 0.695 140.695 0.63 140.385 0.63H139.065C138.755 0.63 138.535 0.695 138.405 0.824999C138.285 0.954999 138.225 1.17 138.225 1.47V3.195H136.56C136.68 3.105 136.74 2.9 136.74 2.58V1.68C136.74 1.37 136.68 1.16 136.56 1.05C136.45 0.939999 136.245 0.884999 135.945 0.884999H129.135C128.815 0.884999 128.6 0.939999 128.49 1.05C128.39 1.15 128.34 1.35 128.34 1.65V2.58C128.34 2.89 128.39 3.095 128.49 3.195C128.6 3.295 128.815 3.345 129.135 3.345H130.875C130.735 4.855 129.775 6.04 127.995 6.9C127.775 7 127.66 7.13 127.65 7.29C127.64 7.44 127.735 7.645 127.935 7.905L128.535 8.685C128.715 8.915 128.885 9.04 129.045 9.06C129.205 9.08 129.44 9.02 129.75 8.88C130.21 8.69 130.71 8.385 131.25 7.965C131.79 7.545 132.22 7.05 132.54 6.48C132.86 6.95 133.275 7.37 133.785 7.74C134.295 8.11 134.725 8.35 135.075 8.46ZM135.675 8.895C131.965 8.895 130.11 9.91 130.11 11.94C130.11 13.97 131.965 14.985 135.675 14.985C139.395 14.985 141.255 13.97 141.255 11.94C141.255 9.91 139.395 8.895 135.675 8.895ZM133.665 12.6C133.305 12.49 133.125 12.27 133.125 11.94C133.125 11.61 133.315 11.385 133.695 11.265C134.075 11.145 134.735 11.095 135.675 11.115C136.665 11.135 137.335 11.195 137.685 11.295C138.045 11.395 138.225 11.61 138.225 11.94C138.225 12.27 138.04 12.49 137.67 12.6C137.31 12.72 136.645 12.78 135.675 12.78C134.705 12.78 134.035 12.72 133.665 12.6ZM152.605 13.35C152.605 13.65 152.665 13.865 152.785 13.995C152.915 14.125 153.135 14.19 153.445 14.19H154.84C155.15 14.19 155.365 14.125 155.485 13.995C155.615 13.865 155.68 13.65 155.68 13.35V1.47C155.68 1.17 155.615 0.954999 155.485 0.824999C155.365 0.695 155.15 0.63 154.84 0.63H153.445C153.135 0.63 152.915 0.695 152.785 0.824999C152.665 0.954999 152.605 1.17 152.605 1.47V4.845H149.02C148.72 4.845 148.51 4.9 148.39 5.01C148.28 5.12 148.225 5.33 148.225 5.64V7.005C148.225 7.305 148.28 7.51 148.39 7.62C148.5 7.72 148.71 7.77 149.02 7.77H152.605V13.35ZM143.2 11.67C143.2 12.27 143.325 12.68 143.575 12.9C143.825 13.12 144.25 13.23 144.85 13.23H150.82C151.13 13.23 151.34 13.175 151.45 13.065C151.56 12.965 151.615 12.765 151.615 12.465V11.325C151.615 11.015 151.555 10.805 151.435 10.695C151.325 10.585 151.12 10.53 150.82 10.53H146.35V1.8C146.35 1.5 146.285 1.285 146.155 1.155C146.035 1.025 145.82 0.959999 145.51 0.959999H144.04C143.73 0.959999 143.51 1.025 143.38 1.155C143.26 1.285 143.2 1.5 143.2 1.8V11.67ZM175.324 13.575V9.135C175.324 8.835 175.259 8.62 175.129 8.49C175.009 8.36 174.794 8.295 174.484 8.295H173.164C172.854 8.295 172.634 8.36 172.504 8.49C172.384 8.62 172.324 8.835 172.324 9.135V9.465H166.549V9.135C166.549 8.835 166.484 8.62 166.354 8.49C166.234 8.36 166.019 8.295 165.709 8.295H164.404C164.094 8.295 163.874 8.36 163.744 8.49C163.624 8.62 163.564 8.835 163.564 9.135V13.2C163.564 13.72 163.669 14.07 163.879 14.25C164.099 14.44 164.469 14.535 164.989 14.535H174.349C174.689 14.535 174.934 14.46 175.084 14.31C175.244 14.16 175.324 13.915 175.324 13.575ZM162.949 0.884999C162.599 0.884999 162.354 0.959999 162.214 1.11C162.074 1.25 162.004 1.49 162.004 1.83V6.405C162.004 7.365 162.514 7.845 163.534 7.845H167.509C167.859 7.845 168.109 7.775 168.259 7.635C168.409 7.485 168.484 7.24 168.484 6.9V1.83C168.484 1.49 168.414 1.25 168.274 1.11C168.134 0.959999 167.889 0.884999 167.539 0.884999H162.949ZM172.519 7.17C172.519 7.47 172.579 7.685 172.699 7.815C172.829 7.945 173.049 8.01 173.359 8.01H174.484C174.794 8.01 175.009 7.945 175.129 7.815C175.259 7.685 175.324 7.47 175.324 7.17V1.47C175.324 1.17 175.259 0.954999 175.129 0.824999C175.009 0.695 174.794 0.63 174.484 0.63H173.359C173.049 0.63 172.829 0.695 172.699 0.824999C172.579 0.954999 172.519 1.17 172.519 1.47V2.85H171.874V1.47C171.874 1.17 171.809 0.954999 171.679 0.824999C171.559 0.695 171.344 0.63 171.034 0.63H169.909C169.599 0.63 169.379 0.695 169.249 0.824999C169.129 0.954999 169.069 1.17 169.069 1.47V7.17C169.069 7.47 169.129 7.685 169.249 7.815C169.379 7.945 169.599 8.01 169.909 8.01H171.034C171.344 8.01 171.559 7.945 171.679 7.815C171.809 7.685 171.874 7.47 171.874 7.17V5.4H172.519V7.17ZM172.324 12.345H166.549V11.565H172.324V12.345ZM164.629 5.55V3.18H165.859V5.55H164.629ZM180.578 12.645C180.578 12.175 180.408 11.785 180.068 11.475C179.728 11.155 179.313 10.995 178.823 10.995C178.343 10.995 177.928 11.155 177.578 11.475C177.238 11.785 177.068 12.175 177.068 12.645C177.068 13.165 177.233 13.58 177.563 13.89C177.903 14.2 178.318 14.355 178.808 14.355C179.298 14.355 179.713 14.195 180.053 13.875C180.403 13.555 180.578 13.145 180.578 12.645ZM178.193 10.26H179.498C179.748 10.26 179.928 10.205 180.038 10.095C180.158 9.975 180.223 9.77 180.233 9.48L180.488 1.56C180.498 1.22 180.458 0.995 180.368 0.884999C180.278 0.774999 180.093 0.719999 179.813 0.719999H177.893C177.583 0.719999 177.383 0.774999 177.293 0.884999C177.203 0.985 177.163 1.17 177.173 1.44L177.428 9.48C177.438 10 177.693 10.26 178.193 10.26Z" fill="#7C7C7C"/>
</svg>
