<svg width="40" height="37" viewBox="0 0 40 37" fill="none" xmlns="http://www.w3.org/2000/svg">
<path d="M30 37C24.477 37 20 32.523 20 27C20 21.477 24.477 17 30 17C35.523 17 40 21.477 40 27C40 32.523 35.523 37 30 37ZM29 26H25V28H29V32H31V28H35V26H31V22H29V26Z" fill="#747474"/>
<path fill-rule="evenodd" clip-rule="evenodd" d="M11 0C14.72 0 18 2 20 4C22 2 25.28 0 29 0C35.076 0 40 5 40 12C40 14.8558 39.3758 17.462 38.3397 19.8269C37.6481 19.0235 36.8424 18.3212 35.9477 17.745C36.6184 15.9576 37 14.0447 37 12C37 6.46906 33.2374 3 29 3C26.323 3 23.7619 4.48079 22.1213 6.12132L20 8.24264L17.8787 6.12132C16.2381 4.48079 13.677 3 11 3C6.8256 3 3 6.48292 3 12C3 17.8397 6.11286 22.6046 10.183 26.4422C13.5532 29.6198 17.3202 31.9246 20 33.5127C20.2576 33.36 20.5253 33.2007 20.8016 33.0347C21.3633 33.8891 22.0408 34.6605 22.8118 35.3267C22.1313 35.7401 21.5037 36.1103 20.9481 36.4379C20.6027 36.6417 20.2851 36.829 20 37C19.7149 36.829 19.3973 36.6417 19.0519 36.4379C13.3383 33.0683 0 25.2018 0 12C0 5 5 0 11 0Z" fill="#747474"/>
</svg>
