<svg width="352" height="74" viewBox="0 0 352 74" fill="none" xmlns="http://www.w3.org/2000/svg">
<path d="M108.931 0.629999V27.27H105.061V13.56H102.871V26.55H99.0313V1.02H102.871V10.26H105.061V0.629999H108.931ZM97.4113 15.96L97.8913 19.2C95.2313 19.82 92.0813 20.13 88.4413 20.13H86.3113V3.33H90.1813V16.8C92.9013 16.74 95.3113 16.46 97.4113 15.96ZM137.599 13.65H133.609V27.27H129.589V0.629999H133.609V10.29H137.599V13.65ZM113.089 2.73H125.599V7.26C125.599 9.56 125.249 11.52 124.549 13.14C123.849 14.74 122.709 16.22 121.129 17.58C119.569 18.92 117.369 20.37 114.529 21.93L112.159 18.87C114.679 17.57 116.599 16.38 117.919 15.3C119.239 14.22 120.169 13.06 120.709 11.82C121.249 10.58 121.519 9.06 121.519 7.26V6.12H113.089V2.73ZM171.467 7.08V10.44H167.507V16.56H163.487V0.629999H167.507V7.08H171.467ZM157.907 4.17H149.477V0.96H157.907V4.17ZM148.127 17.31L145.367 14.91C147.327 13.79 148.797 12.73 149.777 11.73C150.777 10.73 151.377 9.71 151.577 8.67H146.387V5.52H161.027V8.67H155.417C155.297 9.83 154.907 10.91 154.247 11.91L154.427 12L155.267 11.4C155.607 11.14 155.957 11.01 156.317 11.01C156.637 11.01 157.007 11.13 157.427 11.37L161.867 14.25L159.107 16.71L154.337 13.32C154.117 13.18 153.897 13.11 153.677 13.11C153.477 13.11 153.297 13.18 153.137 13.32C152.017 14.56 150.347 15.89 148.127 17.31ZM161.627 22.83C161.867 22.83 162.177 22.91 162.557 23.07L168.917 25.74L166.967 28.77L159.707 25.29C159.427 25.15 159.137 25.08 158.837 25.08C158.517 25.08 158.197 25.16 157.877 25.32L157.727 25.41C156.067 26.59 153.567 27.73 150.227 28.83L148.307 25.8C150.907 25.08 152.857 24.34 154.157 23.58C155.477 22.8 156.297 21.95 156.617 21.03H149.687V17.73H167.507V21.03H160.667C160.507 22.09 160.067 23.07 159.347 23.97L159.527 24.03L160.367 23.4C160.867 23.02 161.287 22.83 161.627 22.83ZM191.735 7.56V0.629999H195.755V20.55H191.735V10.86H185.225V7.56H191.735ZM188.255 15.93C186.715 16.23 185.035 16.47 183.215 16.65C181.415 16.81 179.245 16.89 176.705 16.89H174.065V2.4H186.365V5.76H178.085V13.59C181.885 13.53 185.115 13.25 187.775 12.75L188.255 15.93ZM196.265 24.51V27.81H180.785C179.085 27.81 178.235 26.96 178.235 25.26V18.69H182.285V24.51H196.265ZM232.053 7.32V10.68H228.093V18.51H224.073V0.629999H228.093V7.32H232.053ZM220.083 15.09H207.093V2.31H220.083V15.09ZM216.123 5.52H211.053V11.88H216.123V5.52ZM222.693 21.96C222.993 21.96 223.343 22.07 223.743 22.29L229.803 25.62L227.523 28.77L220.533 24.54C220.253 24.38 219.973 24.3 219.693 24.3C219.453 24.3 219.193 24.38 218.913 24.54L218.793 24.6C217.173 26.04 214.703 27.45 211.383 28.83L209.193 25.74C212.313 24.56 214.493 23.37 215.733 22.17C216.973 20.97 217.593 19.63 217.593 18.15V17.1H221.763V18.3C221.763 20.22 221.203 21.88 220.083 23.28L220.263 23.37L221.463 22.47C221.923 22.13 222.333 21.96 222.693 21.96ZM256.341 0.629999V15.57H252.291V0.629999H256.341ZM236.361 15.93L233.391 13.38C235.511 11.96 237.071 10.61 238.071 9.33C239.091 8.05 239.651 6.7 239.751 5.28H234.531V1.98H249.021V5.28H243.741C243.721 6.78 243.321 8.24 242.541 9.66L242.751 9.78L243.591 9.18C243.951 8.94 244.311 8.82 244.671 8.82C245.031 8.82 245.391 8.94 245.751 9.18L250.221 12.78L247.251 15.39L242.451 11.25C242.251 11.11 242.071 11.04 241.911 11.04C241.731 11.04 241.571 11.11 241.431 11.25C240.831 11.99 240.131 12.72 239.331 13.44C238.531 14.16 237.541 14.99 236.361 15.93ZM252.381 16.92H256.341V28.35H241.431C239.731 28.35 238.881 27.5 238.881 25.8V16.92H242.811V19.5H252.381V16.92ZM252.381 22.65H242.811V25.2H252.381V22.65ZM262.929 17.4L261.519 8.88V3.06H266.199V8.88L264.819 17.4H262.929ZM263.829 24.36C262.869 24.36 262.179 24.14 261.759 23.7C261.359 23.26 261.159 22.72 261.159 22.08V21.36C261.159 20.72 261.359 20.18 261.759 19.74C262.179 19.3 262.869 19.08 263.829 19.08C264.789 19.08 265.469 19.3 265.869 19.74C266.289 20.18 266.499 20.72 266.499 21.36V22.08C266.499 22.72 266.289 23.26 265.869 23.7C265.469 24.14 264.789 24.36 263.829 24.36ZM23.3425 45.63V72.27H19.3225V57.72H15.2725C15.0925 60.32 14.3425 62.29 13.0225 63.63C11.7225 64.97 10.0425 65.64 7.9825 65.64C5.7625 65.64 3.9825 64.87 2.6425 63.33C1.3225 61.77 0.6625 59.48 0.6625 56.46C0.6625 53.44 1.3225 51.16 2.6425 49.62C3.9825 48.06 5.7625 47.28 7.9825 47.28C9.9225 47.28 11.5325 47.88 12.8125 49.08C14.0925 50.26 14.8825 52.02 15.1825 54.36H19.3225V45.63H23.3425ZM11.0725 54.57C11.0725 53.31 10.7925 52.35 10.2325 51.69C9.6925 51.01 8.9425 50.67 7.9825 50.67C7.0425 50.67 6.2925 51.01 5.7325 51.69C5.1925 52.35 4.9225 53.31 4.9225 54.57V58.35C4.9225 59.61 5.1925 60.58 5.7325 61.26C6.2925 61.92 7.0425 62.25 7.9825 62.25C8.9425 62.25 9.6925 61.92 10.2325 61.26C10.7925 60.58 11.0725 59.61 11.0725 58.35V54.57ZM50.4505 45.63V60.96H46.4905V54.21H43.4005V50.97H46.4905V45.63H50.4505ZM32.4805 56.4C32.1005 57.1 31.6405 57.79 31.1005 58.47C30.5805 59.15 29.9405 59.93 29.1805 60.81L26.4205 58.32C27.8005 56.88 28.8005 55.49 29.4205 54.15C30.0605 52.81 30.3805 51.23 30.3805 49.41V46.8H34.2205V49.53C34.2205 51.39 33.9305 53.07 33.3505 54.57L33.4705 54.69L33.7705 54.45C33.9905 54.25 34.2505 54.15 34.5505 54.15C34.9305 54.15 35.2505 54.3 35.5105 54.6L35.9905 55.11C37.2305 53.69 37.8505 51.78 37.8505 49.38V46.65H41.6905V49.56C41.6905 51.4 41.3105 53.14 40.5505 54.78L40.6705 54.9L41.0605 54.6C41.3205 54.4 41.5905 54.3 41.8705 54.3C42.2505 54.3 42.5805 54.47 42.8605 54.81L45.7105 58.23L42.9505 60.75L39.8605 56.58C39.8005 56.48 39.7205 56.45 39.6205 56.49C38.8205 57.75 37.6605 59.16 36.1405 60.72L32.8105 56.4C32.7705 56.34 32.7105 56.31 32.6305 56.31C32.5705 56.29 32.5205 56.32 32.4805 56.4ZM32.6305 62.55H50.4505V73.35H35.1805C33.4805 73.35 32.6305 72.5 32.6305 70.8V62.55ZM36.5905 70.14H46.4905V65.76H36.5905V70.14ZM75.7286 49.29H56.6486V46.23H75.7286V49.29ZM75.9386 55.98H56.4386V52.98H60.0686L59.4686 50.31L63.5486 49.89L63.9386 52.98H68.3786L68.7686 49.89L72.8486 50.31L72.2486 52.98H75.9386V55.98ZM78.5786 57.24V60.42H53.7986V57.24H78.5786ZM61.2686 70.5H75.7286V73.44H60.0086C58.3086 73.44 57.4586 72.59 57.4586 70.89V66.24H71.1986V64.68H57.3386V61.8H75.0386V68.91H61.2686V70.5ZM104.127 45.63V72.27H100.347V45.63H104.127ZM94.9766 46.02H98.6966V71.55H94.9766V57.81H92.2766V54.51H94.9766V46.02ZM92.8766 61.86L93.3566 65.04C91.9966 65.34 90.5766 65.57 89.0966 65.73C87.6166 65.87 85.7666 65.94 83.5466 65.94H81.2966V55.02H87.2666V51.42H81.2366V48.12H91.1366V58.26H85.1666V62.7C86.7866 62.68 88.1866 62.6 89.3666 62.46C90.5466 62.32 91.7166 62.12 92.8766 61.86ZM126.225 45.63H130.275V72.27H126.225V45.63ZM107.835 56.46C107.835 53.44 108.505 51.16 109.845 49.62C111.185 48.06 112.975 47.28 115.215 47.28C117.455 47.28 119.245 48.06 120.585 49.62C121.925 51.16 122.595 53.44 122.595 56.46C122.595 59.48 121.925 61.77 120.585 63.33C119.245 64.87 117.455 65.64 115.215 65.64C112.975 65.64 111.185 64.87 109.845 63.33C108.505 61.77 107.835 59.48 107.835 56.46ZM118.305 58.32V54.6C118.305 53.32 118.025 52.35 117.465 51.69C116.925 51.01 116.175 50.67 115.215 50.67C114.255 50.67 113.495 51.01 112.935 51.69C112.395 52.35 112.125 53.32 112.125 54.6V58.32C112.125 59.6 112.395 60.58 112.935 61.26C113.495 61.92 114.255 62.25 115.215 62.25C116.175 62.25 116.925 61.92 117.465 61.26C118.025 60.58 118.305 59.6 118.305 58.32ZM137.133 61.2L134.853 58.05C138.393 56.47 140.893 54.92 142.353 53.4C143.833 51.86 144.573 50.16 144.573 48.3V46.98H148.743V48.39C148.743 50.75 148.103 52.78 146.823 54.48L147.033 54.6L148.353 53.64C148.813 53.3 149.243 53.13 149.643 53.13C150.023 53.13 150.433 53.27 150.873 53.55L158.013 57.93L155.703 61.11L147.513 55.77C147.233 55.59 146.933 55.5 146.613 55.5C146.253 55.5 145.933 55.61 145.653 55.83L145.593 55.86C144.693 56.74 143.553 57.61 142.173 58.47C140.813 59.31 139.133 60.22 137.133 61.2ZM158.823 66V69.42H134.043V66H158.823ZM184.371 45.63V72.27H180.531V45.63H184.371ZM174.891 46.02H178.671V71.55H174.891V58.26H173.301C173.121 60.74 172.481 62.62 171.381 63.9C170.281 65.16 168.841 65.79 167.061 65.79C165.101 65.79 163.561 65.04 162.441 63.54C161.321 62.02 160.761 59.78 160.761 56.82C160.761 53.84 161.321 51.6 162.441 50.1C163.561 48.6 165.101 47.85 167.061 47.85C168.781 47.85 170.181 48.45 171.261 49.65C172.361 50.83 173.031 52.6 173.271 54.96H174.891V46.02ZM169.281 54.39C169.281 53.31 169.081 52.48 168.681 51.9C168.281 51.32 167.741 51.03 167.061 51.03C166.401 51.03 165.861 51.32 165.441 51.9C165.041 52.48 164.841 53.31 164.841 54.39V59.28C164.841 60.36 165.041 61.19 165.441 61.77C165.861 62.35 166.401 62.64 167.061 62.64C167.741 62.64 168.281 62.35 168.681 61.77C169.081 61.19 169.281 60.36 169.281 59.28V54.39ZM210.579 45.63V72.27H206.559V57.3H201.879V53.94H206.559V45.63H210.579ZM198.309 56.76C198.709 56.76 199.039 56.93 199.299 57.27L204.159 63.54L201.039 66.18L196.089 59.4C196.049 59.3 195.959 59.25 195.819 59.25C195.699 59.25 195.609 59.3 195.549 59.4C195.009 60.46 194.319 61.56 193.479 62.7C192.639 63.82 191.569 65.14 190.269 66.66L187.179 64.05C189.459 61.59 191.089 59.37 192.069 57.39C193.049 55.39 193.539 53.19 193.539 50.79V47.4H197.589V50.76C197.589 53.3 197.189 55.59 196.389 57.63L196.539 57.72L197.259 57.15C197.579 56.89 197.929 56.76 198.309 56.76ZM246.907 52.08V55.44H242.947V61.56H238.927V45.63H242.947V52.08H246.907ZM233.347 49.17H224.917V45.96H233.347V49.17ZM223.567 62.31L220.807 59.91C222.767 58.79 224.237 57.73 225.217 56.73C226.217 55.73 226.817 54.71 227.017 53.67H221.827V50.52H236.467V53.67H230.857C230.737 54.83 230.347 55.91 229.687 56.91L229.867 57L230.707 56.4C231.047 56.14 231.397 56.01 231.757 56.01C232.077 56.01 232.447 56.13 232.867 56.37L237.307 59.25L234.547 61.71L229.777 58.32C229.557 58.18 229.337 58.11 229.117 58.11C228.917 58.11 228.737 58.18 228.577 58.32C227.457 59.56 225.787 60.89 223.567 62.31ZM237.067 67.83C237.307 67.83 237.617 67.91 237.997 68.07L244.357 70.74L242.407 73.77L235.147 70.29C234.867 70.15 234.577 70.08 234.277 70.08C233.957 70.08 233.637 70.16 233.317 70.32L233.167 70.41C231.507 71.59 229.007 72.73 225.667 73.83L223.747 70.8C226.347 70.08 228.297 69.34 229.597 68.58C230.917 67.8 231.737 66.95 232.057 66.03H225.127V62.73H242.947V66.03H236.107C235.947 67.09 235.507 68.07 234.787 68.97L234.967 69.03L235.807 68.4C236.307 68.02 236.727 67.83 237.067 67.83ZM251.185 52.02C251.185 50.24 251.965 48.82 253.525 47.76C255.105 46.7 257.435 46.17 260.515 46.17C263.595 46.17 265.915 46.7 267.475 47.76C269.055 48.82 269.845 50.24 269.845 52.02C269.845 53.82 269.055 55.25 267.475 56.31C265.915 57.35 263.595 57.87 260.515 57.87C257.435 57.87 255.105 57.35 253.525 56.31C251.965 55.25 251.185 53.82 251.185 52.02ZM265.585 52.23V51.78C265.585 51 265.165 50.39 264.325 49.95C263.485 49.49 262.215 49.26 260.515 49.26C258.815 49.26 257.545 49.49 256.705 49.95C255.885 50.39 255.475 51 255.475 51.78V52.23C255.475 53.03 255.885 53.65 256.705 54.09C257.545 54.53 258.815 54.75 260.515 54.75C262.215 54.75 263.485 54.53 264.325 54.09C265.165 53.65 265.585 53.03 265.585 52.23ZM248.125 62.82V59.49H272.905V62.82H248.125ZM251.515 70.17V64.41H255.565V69.39H269.815V72.72H254.065C252.365 72.72 251.515 71.87 251.515 70.17ZM307.493 52.32V55.68H303.533V63.51H299.513V45.63H303.533V52.32H307.493ZM295.523 60.09H282.533V47.31H295.523V60.09ZM291.563 50.52H286.493V56.88H291.563V50.52ZM298.133 66.96C298.433 66.96 298.783 67.07 299.183 67.29L305.243 70.62L302.963 73.77L295.973 69.54C295.693 69.38 295.413 69.3 295.133 69.3C294.893 69.3 294.633 69.38 294.353 69.54L294.233 69.6C292.613 71.04 290.143 72.45 286.823 73.83L284.633 70.74C287.753 69.56 289.933 68.37 291.173 67.17C292.413 65.97 293.033 64.63 293.033 63.15V62.1H297.203V63.3C297.203 65.22 296.643 66.88 295.523 68.28L295.703 68.37L296.903 67.47C297.363 67.13 297.773 66.96 298.133 66.96ZM331.781 45.63V60.57H327.731V45.63H331.781ZM311.801 60.93L308.831 58.38C310.951 56.96 312.511 55.61 313.511 54.33C314.531 53.05 315.091 51.7 315.191 50.28H309.971V46.98H324.461V50.28H319.181C319.161 51.78 318.761 53.24 317.981 54.66L318.191 54.78L319.031 54.18C319.391 53.94 319.751 53.82 320.111 53.82C320.471 53.82 320.831 53.94 321.191 54.18L325.661 57.78L322.691 60.39L317.891 56.25C317.691 56.11 317.511 56.04 317.351 56.04C317.171 56.04 317.011 56.11 316.871 56.25C316.271 56.99 315.571 57.72 314.771 58.44C313.971 59.16 312.981 59.99 311.801 60.93ZM327.821 61.92H331.781V73.35H316.871C315.171 73.35 314.321 72.5 314.321 70.8V61.92H318.251V64.5H327.821V61.92ZM327.821 67.65H318.251V70.2H327.821V67.65ZM338.369 62.4L336.959 53.88V48.06H341.639V53.88L340.259 62.4H338.369ZM339.269 69.36C338.309 69.36 337.619 69.14 337.199 68.7C336.799 68.26 336.599 67.72 336.599 67.08V66.36C336.599 65.72 336.799 65.18 337.199 64.74C337.619 64.3 338.309 64.08 339.269 64.08C340.229 64.08 340.909 64.3 341.309 64.74C341.729 65.18 341.939 65.72 341.939 66.36V67.08C341.939 67.72 341.729 68.26 341.309 68.7C340.909 69.14 340.229 69.36 339.269 69.36ZM347.978 62.4L346.568 53.88V48.06H351.248V53.88L349.868 62.4H347.978ZM348.878 69.36C347.918 69.36 347.228 69.14 346.808 68.7C346.408 68.26 346.208 67.72 346.208 67.08V66.36C346.208 65.72 346.408 65.18 346.808 64.74C347.228 64.3 347.918 64.08 348.878 64.08C349.838 64.08 350.518 64.3 350.918 64.74C351.338 65.18 351.548 65.72 351.548 66.36V67.08C351.548 67.72 351.338 68.26 350.918 68.7C350.518 69.14 349.838 69.36 348.878 69.36Z" fill="#E22F2F"/>
</svg>
