<svg width="24" height="32" viewBox="0 0 24 32" fill="none" xmlns="http://www.w3.org/2000/svg">
<path d="M20.4853 20.506L12 31.5L3.51467 20.506C1.83646 18.8261 0.693582 16.6857 0.230571 14.3556C-0.232439 12.0255 0.00520915 9.61022 0.913465 7.41529C1.82172 5.22036 3.35979 3.34432 5.33318 2.02441C7.30656 0.704499 9.62663 0 12 0C14.3734 0 16.6934 0.704499 18.6668 2.02441C20.6402 3.34432 22.1783 5.22036 23.0865 7.41529C23.9948 9.61022 24.2324 12.0255 23.7694 14.3556C23.3064 16.6857 22.1635 18.8261 20.4853 20.506ZM12 17.3508C13.4145 17.3508 14.771 16.7884 15.7712 15.7872C16.7714 14.7859 17.3333 13.428 17.3333 12.0121C17.3333 10.5962 16.7714 9.23823 15.7712 8.23702C14.771 7.23581 13.4145 6.67334 12 6.67334C10.5855 6.67334 9.22896 7.23581 8.22877 8.23702C7.22857 9.23823 6.66667 10.5962 6.66667 12.0121C6.66667 13.428 7.22857 14.7859 8.22877 15.7872C9.22896 16.7884 10.5855 17.3508 12 17.3508ZM12 14.6815C11.2928 14.6815 10.6145 14.4002 10.1144 13.8996C9.61429 13.399 9.33333 12.7201 9.33333 12.0121C9.33333 11.3041 9.61429 10.6252 10.1144 10.1246C10.6145 9.62395 11.2928 9.34271 12 9.34271C12.7072 9.34271 13.3855 9.62395 13.8856 10.1246C14.3857 10.6252 14.6667 11.3041 14.6667 12.0121C14.6667 12.7201 14.3857 13.399 13.8856 13.8996C13.3855 14.4002 12.7072 14.6815 12 14.6815Z" fill="#E22F2F"/>
</svg>
