<svg width="155" height="20" viewBox="0 0 155 20" fill="none" xmlns="http://www.w3.org/2000/svg">
<path d="M16.5 13.4554L29.3339 2L33 5.27231L16.5 20L0 5.27231L3.66609 2L16.5 13.4554Z" fill="#E22F2F"/>
<path d="M138.5 13.4554L151.334 2L155 5.27231L138.5 20L122 5.27231L125.666 2L138.5 13.4554Z" fill="#E22F2F"/>
<path d="M51.5823 13.18V15.36H53.0823C56.4623 15.36 58.6823 15.26 61.1623 14.8L60.9023 12.66C58.5023 13.1 56.3623 13.18 53.0823 13.18H51.5823ZM51.5823 2.9V14H54.2423V5.02H59.9623V2.9H51.5823ZM63.6023 1.26V19.84H66.2623V1.26H63.6023ZM59.0623 7.64V9.8H64.7223V7.64H59.0623ZM69.1208 15.48V17.64H85.8808V15.48H69.1208ZM76.1408 11.52V16H78.8008V11.52H76.1408ZM70.8808 2.44V12.08H84.0608V2.44H81.4208V5.28H73.5208V2.44H70.8808ZM73.5208 7.36H81.4208V9.96H73.5208V7.36ZM100.259 1.26V19.78H102.939V1.26H100.259ZM94.7992 3.18V3.66C94.7992 8.62 92.8792 11.98 87.5592 14.54L88.9392 16.66C95.5192 13.48 97.4392 8.84 97.4392 3.18H94.7992ZM88.5392 3.18V5.28H96.0592V3.18H88.5392Z" fill="#E22F2F"/>
</svg>
