<svg width="176" height="53" viewBox="0 0 176 53" fill="none" xmlns="http://www.w3.org/2000/svg">
<g filter="url(#filter0_i_423_1171)">
<path fill-rule="evenodd" clip-rule="evenodd" d="M21 1C9.95431 1 1 9.95431 1 21V52H175V21C175 9.9543 166.046 1 155 1H21Z" fill="#E22F2F"/>
</g>
<path d="M1 52H0V53H1V52ZM175 52V53H176V52H175ZM2 21C2 10.5066 10.5066 2 21 2V0C9.40202 0 0 9.40202 0 21H2ZM2 52V21H0V52H2ZM1 53H175V51H1V53ZM174 21V52H176V21H174ZM155 2C165.493 2 174 10.5066 174 21H176C176 9.40202 166.598 0 155 0V2ZM21 2H155V0H21V2Z" fill="#747474"/>
<path d="M64.6223 19.34H61.9823V31.24H63.2623C65.1023 31.24 67.2223 31.14 69.6223 30.7L69.4023 28.48C67.6423 28.8 66.0623 28.92 64.6223 28.96V19.34ZM74.5223 17.28V24.38H72.8623V17.62H70.4023V34.84H72.8623V26.52H74.5223V35.7H77.0423V17.28H74.5223ZM89.6608 21.74V23.88H92.4208V28.26H95.0608V17.3H92.4208V21.74H89.6608ZM90.7608 25.7C87.9608 24.78 86.6808 22.62 86.6008 20.52H90.1808V18.4H80.2808V20.52H83.9008C83.8208 22.82 82.4808 25.16 79.5608 26.18L80.9008 28.26C83.0408 27.54 84.5008 26.04 85.3008 24.18C86.1008 25.8 87.4808 27.1 89.4808 27.76L90.7608 25.7ZM88.8408 33.74C86.4208 33.74 85.1608 33.24 85.1608 32.2C85.1608 31.16 86.4208 30.66 88.8408 30.66C91.2408 30.66 92.5008 31.16 92.5008 32.2C92.5008 33.24 91.2408 33.74 88.8408 33.74ZM88.8408 28.66C84.9208 28.66 82.5208 29.96 82.5208 32.2C82.5208 34.44 84.9208 35.74 88.8408 35.74C92.7408 35.74 95.1408 34.44 95.1408 32.2C95.1408 29.96 92.7408 28.66 88.8408 28.66ZM102.439 23.38H110.319V25.96H102.439V23.38ZM107.699 31.44V28.06H112.919V18.44H110.319V21.3H102.439V18.44H99.8192V28.06H105.059V31.44H98.0592V33.58H114.739V31.44H107.699Z" fill="white"/>
<defs>
<filter id="filter0_i_423_1171" x="0" y="0" width="182" height="59" filterUnits="userSpaceOnUse" color-interpolation-filters="sRGB">
<feFlood flood-opacity="0" result="BackgroundImageFix"/>
<feBlend mode="normal" in="SourceGraphic" in2="BackgroundImageFix" result="shape"/>
<feColorMatrix in="SourceAlpha" type="matrix" values="0 0 0 0 0 0 0 0 0 0 0 0 0 0 0 0 0 0 127 0" result="hardAlpha"/>
<feOffset dx="6" dy="6"/>
<feGaussianBlur stdDeviation="3"/>
<feComposite in2="hardAlpha" operator="arithmetic" k2="-1" k3="1"/>
<feColorMatrix type="matrix" values="0 0 0 0 0 0 0 0 0 0 0 0 0 0 0 0 0 0 0.25 0"/>
<feBlend mode="normal" in2="shape" result="effect1_innerShadow_423_1171"/>
</filter>
</defs>
</svg>
