<svg width="176" height="53" viewBox="0 0 176 53" fill="none" xmlns="http://www.w3.org/2000/svg">
<path fill-rule="evenodd" clip-rule="evenodd" d="M21 1C9.95431 1 1 9.95431 1 21V52H175V21C175 9.9543 166.046 1 155 1H21Z" fill="white"/>
<path d="M1 52H0V53H1V52ZM175 52V53H176V52H175ZM2 21C2 10.5066 10.5066 2 21 2V0C9.40202 0 0 9.40202 0 21H2ZM2 52V21H0V52H2ZM1 53H175V51H1V53ZM174 21V52H176V21H174ZM155 2C165.493 2 174 10.5066 174 21H176C176 9.40202 166.598 0 155 0V2ZM21 2H155V0H21V2Z" fill="#747474"/>
<path d="M72.0321 16.26V34.78H74.5721V16.26H72.0321ZM69.6121 23.4V25.52H72.6921V23.4H69.6121ZM67.8921 16.58V33.9H70.3721V16.58H67.8921ZM59.4321 18.3V29H62.0921V18.3H59.4321ZM59.4321 28V30.28H60.7121C62.5921 30.28 64.7121 30.18 67.1321 29.74L66.8721 27.46C64.5721 27.9 62.4921 28 60.7121 28H59.4321ZM92.131 20.74V22.9H95.651V20.74H92.131ZM94.931 16.26V27.26H97.591V16.26H94.931ZM91.311 27.66C87.391 27.66 84.971 29 84.971 31.24C84.971 33.5 87.391 34.8 91.311 34.8C95.231 34.8 97.651 33.5 97.651 31.24C97.651 29 95.231 27.66 91.311 27.66ZM91.311 29.68C93.731 29.68 95.011 30.18 95.011 31.24C95.011 32.28 93.731 32.78 91.311 32.78C88.911 32.78 87.631 32.28 87.631 31.24C87.631 30.18 88.911 29.68 91.311 29.68ZM86.371 18.12V19.28C86.371 21.66 85.051 24.12 81.991 25.16L83.351 27.26C86.891 26.06 88.531 22.82 88.531 19.28V18.12H86.371ZM86.931 18.12V19.28C86.931 22.58 88.511 25.66 91.951 26.8L93.251 24.7C90.331 23.72 89.071 21.46 89.071 19.28V18.12H86.931ZM82.711 17.38V19.5H92.671V17.38H82.711ZM100.509 30.48V32.64H117.269V30.48H100.509ZM107.529 26.52V31H110.189V26.52H107.529ZM102.269 17.44V27.08H115.449V17.44H112.809V20.28H104.909V17.44H102.269ZM104.909 22.36H112.809V24.96H104.909V22.36Z" fill="#4A4A4A"/>
</svg>
