<svg width="176" height="53" viewBox="0 0 176 53" fill="none" xmlns="http://www.w3.org/2000/svg">
<path fill-rule="evenodd" clip-rule="evenodd" d="M21 1C9.95431 1 1 9.95431 1 21V52H175V21C175 9.9543 166.046 1 155 1H21Z" fill="white"/>
<path d="M1 52H0V53H1V52ZM175 52V53H176V52H175ZM2 21C2 10.5066 10.5066 2 21 2V0C9.40202 0 0 9.40202 0 21H2ZM2 52V21H0V52H2ZM1 53H175V51H1V53ZM174 21V52H176V21H174ZM155 2C165.493 2 174 10.5066 174 21H176C176 9.40202 166.598 0 155 0V2ZM21 2H155V0H21V2Z" fill="#747474"/>
<path d="M44.3842 16.3H41.8842V25.88H44.3842V16.3ZM38.2042 25.78H40.6642V16.58H38.2042V19.14H36.0842V21.24H38.2042V25.78ZM37.6442 23.46C35.3642 22.52 34.5042 20.46 34.5042 18.2V17H31.9242V18.16C31.9242 20.48 30.9642 22.86 28.4442 24L29.9042 25.96C31.5042 25.2 32.5842 23.9 33.2042 22.32C33.8042 23.72 34.8042 24.84 36.3242 25.48L37.6442 23.46ZM34.5042 32.54V31.48H44.3842V26.56H31.8642V28.58H41.7842V29.58H31.9042V34.58H44.9642V32.54H34.5042ZM57.2627 25.52H53.5027V20H57.2627V25.52ZM50.8827 25.52H48.4827V27.62H62.3227V25.52H59.8827V20H62.3827V17.9H48.3827V20H50.8827V25.52ZM47.0827 30.44V32.58H63.7627V30.44H47.0827ZM77.1216 24H73.5816V19.66H77.1216V24ZM79.7216 17.56H71.0016V26.08H79.7216V17.56ZM80.4216 27.6H77.8016V28.06C77.8016 30.06 75.9616 32.06 72.0216 32.62L73.0416 34.66C75.9416 34.22 78.0016 32.98 79.1016 31.28C80.2016 32.98 82.2616 34.22 85.1816 34.66L86.1616 32.62C82.2416 32.06 80.4216 30.06 80.4216 28.06V27.6ZM84.9616 20.9V16.28H82.3216V28.44H84.9616V23.06H87.4016V20.9H84.9616ZM100.34 24.04C97.54 23.22 96.18 21.32 96.04 19.38H99.66V17.3H89.64V19.38H93.32C93.18 21.46 91.84 23.46 88.92 24.32L90.24 26.4C92.4 25.74 93.88 24.36 94.72 22.64C95.56 24.22 96.98 25.48 99.06 26.08L100.34 24.04ZM101.54 32.4H94.54V30.78H101.54V32.4ZM101.54 28.76H94.54V27.08H91.92V34.5H104.16V27.08H101.54V28.76ZM101.5 16.32V26.3H104.16V16.32H101.5ZM119.359 20.24H123.159V18.06H112.839V20.24H116.679V21.26C116.679 24.4 115.179 27.78 112.099 29.16L113.599 31.26C115.759 30.28 117.239 28.26 118.059 25.86C118.879 28.08 120.339 29.88 122.479 30.8L123.919 28.72C120.839 27.44 119.359 24.26 119.359 21.26V20.24ZM124.859 16.3V34.72H127.499V16.3H124.859ZM140.277 30.48V26.64H145.537V24.52H135.237V19.68H145.397V17.56H132.577V26.64H137.637V30.48H130.637V32.64H147.317V30.48H140.277Z" fill="black"/>
</svg>
