<svg width="176" height="53" viewBox="0 0 176 53" fill="none" xmlns="http://www.w3.org/2000/svg">
<g filter="url(#filter0_i_423_1179)">
<path fill-rule="evenodd" clip-rule="evenodd" d="M21 1C9.95431 1 1 9.95431 1 21V52H175V21C175 9.9543 166.046 1 155 1H21Z" fill="#E22F2F"/>
</g>
<path d="M1 52H0V53H1V52ZM175 52V53H176V52H175ZM2 21C2 10.5066 10.5066 2 21 2V0C9.40202 0 0 9.40202 0 21H2ZM2 52V21H0V52H2ZM1 53H175V51H1V53ZM174 21V52H176V21H174ZM155 2C165.493 2 174 10.5066 174 21H176C176 9.40202 166.598 0 155 0V2ZM21 2H155V0H21V2Z" fill="#747474"/>
<path d="M22.685 19.04H20.045V31.2H21.645C24.325 31.2 27.285 31.04 30.345 30.4L30.085 28.24C27.505 28.74 25.005 28.94 22.685 29V19.04ZM36.485 24.24H33.905V17.28H31.265V35.68H33.905V26.42H36.485V24.24ZM44.6034 25.62H41.0034V20.9H44.6034V25.62ZM47.2034 18.82H38.4234V27.7H47.2034V18.82ZM43.1434 29.42H40.5034V35.4H53.0434V33.3H43.1434V29.42ZM52.3834 22.62V17.3H49.7434V30.74H52.3834V24.78H54.8234V22.62H52.3834ZM62.2019 18.52C59.3219 18.52 57.1419 20.42 57.1419 23.06C57.1419 25.72 59.3219 27.6 62.2019 27.6C65.0819 27.6 67.2819 25.72 67.2819 23.06C67.2819 20.42 65.0819 18.52 62.2019 18.52ZM62.2019 20.78C63.6219 20.78 64.7019 21.62 64.7019 23.06C64.7019 24.5 63.6219 25.34 62.2019 25.34C60.7819 25.34 59.7019 24.5 59.7019 23.06C59.7019 21.62 60.7819 20.78 62.2019 20.78ZM69.0019 17.28V35.76H71.6419V17.28H69.0019ZM56.7019 32.02C59.8819 32.02 64.2019 31.98 68.1619 31.18L68.0019 29.28C64.1219 29.86 59.6019 29.88 56.3619 29.88L56.7019 32.02ZM86.3208 25H82.7808V20.66H86.3208V25ZM88.9208 18.56H80.2008V27.08H88.9208V18.56ZM89.6208 28.6H87.0008V29.06C87.0008 31.06 85.1608 33.06 81.2208 33.62L82.2408 35.66C85.1408 35.22 87.2008 33.98 88.3008 32.28C89.4008 33.98 91.4608 35.22 94.3808 35.66L95.3608 33.62C91.4408 33.06 89.6208 31.06 89.6208 29.06V28.6ZM94.1608 21.9V17.28H91.5208V29.44H94.1608V24.06H96.6008V21.9H94.1608ZM109.539 25.04C106.739 24.22 105.379 22.32 105.239 20.38H108.859V18.3H98.8392V20.38H102.519C102.379 22.46 101.039 24.46 98.1192 25.32L99.4392 27.4C101.599 26.74 103.079 25.36 103.919 23.64C104.759 25.22 106.179 26.48 108.259 27.08L109.539 25.04ZM110.739 33.4H103.739V31.78H110.739V33.4ZM110.739 29.76H103.739V28.08H101.119V35.5H113.359V28.08H110.739V29.76ZM110.699 17.32V27.3H113.359V17.32H110.699ZM128.558 21.24H132.358V19.06H122.038V21.24H125.878V22.26C125.878 25.4 124.378 28.78 121.298 30.16L122.798 32.26C124.958 31.28 126.438 29.26 127.258 26.86C128.078 29.08 129.538 30.88 131.678 31.8L133.118 29.72C130.038 28.44 128.558 25.26 128.558 22.26V21.24ZM134.058 17.3V35.72H136.698V17.3H134.058ZM149.477 31.48V27.64H154.737V25.52H144.437V20.68H154.597V18.56H141.777V27.64H146.837V31.48H139.837V33.64H156.517V31.48H149.477Z" fill="white"/>
<defs>
<filter id="filter0_i_423_1179" x="0" y="0" width="176" height="57" filterUnits="userSpaceOnUse" color-interpolation-filters="sRGB">
<feFlood flood-opacity="0" result="BackgroundImageFix"/>
<feBlend mode="normal" in="SourceGraphic" in2="BackgroundImageFix" result="shape"/>
<feColorMatrix in="SourceAlpha" type="matrix" values="0 0 0 0 0 0 0 0 0 0 0 0 0 0 0 0 0 0 127 0" result="hardAlpha"/>
<feOffset dy="4"/>
<feGaussianBlur stdDeviation="2"/>
<feComposite in2="hardAlpha" operator="arithmetic" k2="-1" k3="1"/>
<feColorMatrix type="matrix" values="0 0 0 0 0 0 0 0 0 0 0 0 0 0 0 0 0 0 0.25 0"/>
<feBlend mode="normal" in2="shape" result="effect1_innerShadow_423_1179"/>
</filter>
</defs>
</svg>
