<svg width="160" height="32" viewBox="0 0 160 32" fill="none" xmlns="http://www.w3.org/2000/svg">
<path d="M18.2155 9.645C18.2155 9.945 18.2755 10.16 18.3955 10.29C18.5255 10.42 18.7455 10.485 19.0555 10.485H20.1805C20.4905 10.485 20.7055 10.42 20.8255 10.29C20.9555 10.16 21.0205 9.945 21.0205 9.645V1.47C21.0205 1.17 20.9555 0.954999 20.8255 0.824999C20.7055 0.695 20.4905 0.63 20.1805 0.63H19.0555C18.7455 0.63 18.5255 0.695 18.3955 0.824999C18.2755 0.954999 18.2155 1.17 18.2155 1.47V3.93H17.5705V1.47C17.5705 1.17 17.5055 0.954999 17.3755 0.824999C17.2555 0.695 17.0405 0.63 16.7305 0.63H15.6055C15.2955 0.63 15.0755 0.695 14.9455 0.824999C14.8255 0.954999 14.7655 1.17 14.7655 1.47V9.645C14.7655 9.945 14.8255 10.16 14.9455 10.29C15.0755 10.42 15.2955 10.485 15.6055 10.485H16.7305C17.0405 10.485 17.2555 10.42 17.3755 10.29C17.5055 10.16 17.5705 9.945 17.5705 9.645V6.63H18.2155V9.645ZM7.70055 7.89C7.70055 8.44 7.81055 8.8 8.03055 8.97C8.26055 9.14 8.67555 9.225 9.27555 9.225H13.6405C13.9505 9.225 14.1555 9.18 14.2555 9.09C14.3555 8.99 14.4055 8.79 14.4055 8.49V7.665C14.4055 7.355 14.3505 7.15 14.2405 7.05C14.1405 6.95 13.9405 6.9 13.6405 6.9H10.4905V6.195H12.6655C13.2655 6.195 13.6505 6.12 13.8205 5.97C14.0005 5.82 14.0905 5.45 14.0905 4.86V2.145C14.0905 1.585 14.0055 1.235 13.8355 1.095C13.6655 0.954999 13.3005 0.884999 12.7405 0.884999H8.46555C8.16555 0.884999 7.96055 0.934999 7.85055 1.035C7.75055 1.135 7.70055 1.34 7.70055 1.65V2.475C7.70055 2.775 7.75055 2.975 7.85055 3.075C7.95055 3.165 8.15555 3.21 8.46555 3.21H11.3005V3.87H8.97555C8.44555 3.87 8.10055 3.955 7.94055 4.125C7.78055 4.285 7.70055 4.645 7.70055 5.205V7.89ZM9.41055 10.53V12.675C9.41055 13.375 9.53555 13.835 9.78555 14.055C10.0455 14.275 10.5205 14.385 11.2105 14.385H20.3755C20.6855 14.385 20.8955 14.33 21.0055 14.22C21.1155 14.12 21.1705 13.92 21.1705 13.62V12.555C21.1705 12.245 21.1105 12.035 20.9905 11.925C20.8805 11.815 20.6755 11.76 20.3755 11.76H12.5605V10.53C12.5605 10.23 12.4955 10.015 12.3655 9.885C12.2455 9.755 12.0305 9.69 11.7205 9.69H10.2505C9.94055 9.69 9.72055 9.755 9.59055 9.885C9.47055 10.015 9.41055 10.23 9.41055 10.53ZM30.6691 5.37L29.4391 5.28C29.2491 5.27 29.1041 5.3 29.0041 5.37C28.9041 5.43 28.8241 5.555 28.7641 5.745C28.6941 5.955 28.6191 6.125 28.5391 6.255C28.4591 6.385 28.3791 6.445 28.2991 6.435C27.9891 6.405 27.5641 6.23 27.0241 5.91C26.3541 5.52 25.7291 5.325 25.1491 5.325C24.4091 5.325 23.7941 5.56 23.3041 6.03C22.8141 6.49 22.5091 7.09 22.3891 7.83C22.3391 8.12 22.3491 8.33 22.4191 8.46C22.4991 8.58 22.6691 8.65 22.9291 8.67L24.1591 8.79C24.3291 8.8 24.4541 8.775 24.5341 8.715C24.6141 8.655 24.6841 8.525 24.7441 8.325C24.8241 8.065 24.9041 7.88 24.9841 7.77C25.0741 7.66 25.1891 7.61 25.3291 7.62C25.4691 7.63 25.7491 7.77 26.1691 8.04C27.0591 8.61 27.8591 8.87 28.5691 8.82C29.2691 8.78 29.8491 8.51 30.3091 8.01C30.7791 7.5 31.0741 6.845 31.1941 6.045C31.2241 5.825 31.1991 5.66 31.1191 5.55C31.0491 5.44 30.8991 5.38 30.6691 5.37ZM35.0039 8.64C34.6539 8.64 34.4039 8.715 34.2539 8.865C34.1139 9.015 34.0439 9.26 34.0439 9.6V13.2C34.0439 13.72 34.1489 14.07 34.3589 14.25C34.5789 14.44 34.9489 14.535 35.4689 14.535H44.2289C44.5689 14.535 44.8139 14.46 44.9639 14.31C45.1239 14.16 45.2039 13.915 45.2039 13.575V9.6C45.2039 9.26 45.1289 9.015 44.9789 8.865C44.8389 8.715 44.5939 8.64 44.2439 8.64H35.0039ZM33.7139 0.884999C33.0539 0.884999 32.7239 1.215 32.7239 1.875V6.81C32.7239 7.38 32.8289 7.76 33.0389 7.95C33.2589 8.13 33.6539 8.22 34.2239 8.22H40.0589C40.3689 8.22 40.5789 8.17 40.6889 8.07C40.7989 7.96 40.8539 7.755 40.8539 7.455V6.735C40.8539 6.425 40.7939 6.215 40.6739 6.105C40.5639 5.995 40.3589 5.94 40.0589 5.94H35.8739V3.165H39.7139C40.0239 3.165 40.2339 3.115 40.3439 3.015C40.4539 2.905 40.5089 2.7 40.5089 2.4V1.68C40.5089 1.37 40.4489 1.16 40.3289 1.05C40.2189 0.939999 40.0139 0.884999 39.7139 0.884999H33.7139ZM42.2039 7.5C42.2039 7.8 42.2639 8.015 42.3839 8.145C42.5139 8.275 42.7339 8.34 43.0439 8.34H44.3639C44.6739 8.34 44.8889 8.275 45.0089 8.145C45.1389 8.015 45.2039 7.8 45.2039 7.5V1.47C45.2039 1.17 45.1389 0.954999 45.0089 0.824999C44.8889 0.695 44.6739 0.63 44.3639 0.63H43.0439C42.7339 0.63 42.5139 0.695 42.3839 0.824999C42.2639 0.954999 42.2039 1.17 42.2039 1.47V3.33H39.8339C39.5339 3.33 39.3339 3.38 39.2339 3.48C39.1339 3.58 39.0839 3.785 39.0839 4.095V4.92C39.0839 5.22 39.1289 5.42 39.2189 5.52C39.3189 5.61 39.5239 5.655 39.8339 5.655H42.2039V7.5ZM37.0289 12.225V10.95H42.2039V12.225H37.0289ZM53.9616 13.35C53.9616 13.65 54.0216 13.865 54.1416 13.995C54.2716 14.125 54.4916 14.19 54.8016 14.19H56.0016C56.3116 14.19 56.5266 14.125 56.6466 13.995C56.7766 13.865 56.8416 13.65 56.8416 13.35V1.47C56.8416 1.17 56.7766 0.954999 56.6466 0.824999C56.5266 0.695 56.3116 0.63 56.0016 0.63H54.8016C54.4916 0.63 54.2716 0.695 54.1416 0.824999C54.0216 0.954999 53.9616 1.17 53.9616 1.47V5.085H52.9566C53.0166 4.425 53.0466 3.525 53.0466 2.385C53.0366 1.885 52.9366 1.535 52.7466 1.335C52.5566 1.135 52.2266 1.035 51.7566 1.035H47.5266C47.2166 1.035 47.0066 1.09 46.8966 1.2C46.7866 1.3 46.7316 1.5 46.7316 1.8V2.865C46.7316 3.175 46.7866 3.385 46.8966 3.495C47.0166 3.605 47.2266 3.66 47.5266 3.66H49.9566C49.9566 4.17 49.9516 4.59 49.9416 4.92C49.9316 5.24 49.8666 5.705 49.7466 6.315C49.6366 6.925 49.4766 7.48 49.2666 7.98C49.0566 8.47 48.7316 9.04 48.2916 9.69C47.8516 10.33 47.3216 10.95 46.7016 11.55C46.5816 11.67 46.4966 11.775 46.4466 11.865C46.3966 11.955 46.3866 12.055 46.4166 12.165C46.4566 12.285 46.5616 12.405 46.7316 12.525L47.6316 13.17C47.9516 13.39 48.1766 13.495 48.3066 13.485C48.4466 13.485 48.6516 13.37 48.9216 13.14C50.5716 11.71 51.7266 9.975 52.3866 7.935H53.9616V13.35ZM57.3966 13.35C57.3966 13.65 57.4566 13.865 57.5766 13.995C57.7066 14.125 57.9266 14.19 58.2366 14.19H59.4366C59.7466 14.19 59.9616 14.125 60.0816 13.995C60.2116 13.865 60.2766 13.65 60.2766 13.35V1.47C60.2766 1.17 60.2116 0.954999 60.0816 0.824999C59.9616 0.695 59.7466 0.63 59.4366 0.63H58.2366C57.9266 0.63 57.7066 0.695 57.5766 0.824999C57.4566 0.954999 57.3966 1.17 57.3966 1.47V13.35ZM62.8169 1.485C62.0269 2.185 61.6319 3.095 61.6319 4.215C61.6319 5.335 62.0269 6.245 62.8169 6.945C63.6069 7.645 64.6719 7.995 66.0119 7.995C67.3519 7.995 68.4169 7.645 69.2069 6.945C69.9969 6.245 70.3919 5.335 70.3919 4.215C70.3919 3.095 69.9969 2.185 69.2069 1.485C68.4169 0.785 67.3519 0.435 66.0119 0.435C64.6719 0.435 63.6069 0.785 62.8169 1.485ZM64.5869 4.23C64.5869 3.74 64.7219 3.365 64.9919 3.105C65.2619 2.835 65.6019 2.7 66.0119 2.7C66.4119 2.7 66.7469 2.835 67.0169 3.105C67.2969 3.375 67.4369 3.745 67.4369 4.215C67.4369 4.705 67.3069 5.08 67.0469 5.34C66.7969 5.6 66.4519 5.73 66.0119 5.73C65.5919 5.73 65.2469 5.6 64.9769 5.34C64.7169 5.08 64.5869 4.71 64.5869 4.23ZM64.2569 8.565C63.9069 8.565 63.6569 8.64 63.5069 8.79C63.3669 8.94 63.2969 9.185 63.2969 9.525V13.2C63.2969 13.72 63.4019 14.07 63.6119 14.25C63.8319 14.44 64.2019 14.535 64.7219 14.535H73.4819C73.8219 14.535 74.0669 14.46 74.2169 14.31C74.3769 14.16 74.4569 13.915 74.4569 13.575V9.525C74.4569 9.185 74.3819 8.94 74.2319 8.79C74.0919 8.64 73.8469 8.565 73.4969 8.565H64.2569ZM66.2819 12.225V10.875H71.4569V12.225H66.2819ZM71.4569 7.35C71.4569 7.65 71.5169 7.865 71.6369 7.995C71.7669 8.125 71.9869 8.19 72.2969 8.19H73.6169C73.9269 8.19 74.1419 8.125 74.2619 7.995C74.3919 7.865 74.4569 7.65 74.4569 7.35V1.47C74.4569 1.17 74.3919 0.954999 74.2619 0.824999C74.1419 0.695 73.9269 0.63 73.6169 0.63H72.2969C71.9869 0.63 71.7669 0.695 71.6369 0.824999C71.5169 0.954999 71.4569 1.17 71.4569 1.47V7.35ZM84.3995 5.37L83.1695 5.28C82.9795 5.27 82.8345 5.3 82.7345 5.37C82.6345 5.43 82.5545 5.555 82.4945 5.745C82.4245 5.955 82.3495 6.125 82.2695 6.255C82.1895 6.385 82.1095 6.445 82.0295 6.435C81.7195 6.405 81.2945 6.23 80.7545 5.91C80.0845 5.52 79.4595 5.325 78.8795 5.325C78.1395 5.325 77.5245 5.56 77.0345 6.03C76.5445 6.49 76.2395 7.09 76.1195 7.83C76.0695 8.12 76.0795 8.33 76.1495 8.46C76.2295 8.58 76.3995 8.65 76.6595 8.67L77.8895 8.79C78.0595 8.8 78.1845 8.775 78.2645 8.715C78.3445 8.655 78.4145 8.525 78.4745 8.325C78.5545 8.065 78.6345 7.88 78.7145 7.77C78.8045 7.66 78.9195 7.61 79.0595 7.62C79.1995 7.63 79.4795 7.77 79.8995 8.04C80.7895 8.61 81.5895 8.87 82.2995 8.82C82.9995 8.78 83.5795 8.51 84.0395 8.01C84.5095 7.5 84.8045 6.845 84.9245 6.045C84.9545 5.825 84.9295 5.66 84.8495 5.55C84.7795 5.44 84.6295 5.38 84.3995 5.37ZM101.301 9.645C101.301 9.945 101.361 10.16 101.481 10.29C101.611 10.42 101.831 10.485 102.141 10.485H103.266C103.576 10.485 103.791 10.42 103.911 10.29C104.041 10.16 104.106 9.945 104.106 9.645V1.47C104.106 1.17 104.041 0.954999 103.911 0.824999C103.791 0.695 103.576 0.63 103.266 0.63H102.141C101.831 0.63 101.611 0.695 101.481 0.824999C101.361 0.954999 101.301 1.17 101.301 1.47V3.93H100.656V1.47C100.656 1.17 100.591 0.954999 100.461 0.824999C100.341 0.695 100.126 0.63 99.8165 0.63H98.6915C98.3815 0.63 98.1615 0.695 98.0315 0.824999C97.9115 0.954999 97.8515 1.17 97.8515 1.47V9.645C97.8515 9.945 97.9115 10.16 98.0315 10.29C98.1615 10.42 98.3815 10.485 98.6915 10.485H99.8165C100.126 10.485 100.341 10.42 100.461 10.29C100.591 10.16 100.656 9.945 100.656 9.645V6.63H101.301V9.645ZM90.7865 7.89C90.7865 8.44 90.8965 8.8 91.1165 8.97C91.3465 9.14 91.7615 9.225 92.3615 9.225H96.7265C97.0365 9.225 97.2415 9.18 97.3415 9.09C97.4415 8.99 97.4915 8.79 97.4915 8.49V7.665C97.4915 7.355 97.4365 7.15 97.3265 7.05C97.2265 6.95 97.0265 6.9 96.7265 6.9H93.5765V6.195H95.7515C96.3515 6.195 96.7365 6.12 96.9065 5.97C97.0865 5.82 97.1765 5.45 97.1765 4.86V2.145C97.1765 1.585 97.0915 1.235 96.9215 1.095C96.7515 0.954999 96.3865 0.884999 95.8265 0.884999H91.5515C91.2515 0.884999 91.0465 0.934999 90.9365 1.035C90.8365 1.135 90.7865 1.34 90.7865 1.65V2.475C90.7865 2.775 90.8365 2.975 90.9365 3.075C91.0365 3.165 91.2415 3.21 91.5515 3.21H94.3865V3.87H92.0615C91.5315 3.87 91.1865 3.955 91.0265 4.125C90.8665 4.285 90.7865 4.645 90.7865 5.205V7.89ZM92.4965 10.53V12.675C92.4965 13.375 92.6215 13.835 92.8715 14.055C93.1315 14.275 93.6065 14.385 94.2965 14.385H103.461C103.771 14.385 103.981 14.33 104.091 14.22C104.201 14.12 104.256 13.92 104.256 13.62V12.555C104.256 12.245 104.196 12.035 104.076 11.925C103.966 11.815 103.761 11.76 103.461 11.76H95.6465V10.53C95.6465 10.23 95.5815 10.015 95.4515 9.885C95.3315 9.755 95.1165 9.69 94.8065 9.69H93.3365C93.0265 9.69 92.8065 9.755 92.6765 9.885C92.5565 10.015 92.4965 10.23 92.4965 10.53ZM108.085 8.64C107.735 8.64 107.485 8.715 107.335 8.865C107.195 9.015 107.125 9.26 107.125 9.6V13.2C107.125 13.72 107.23 14.07 107.44 14.25C107.66 14.44 108.03 14.535 108.55 14.535H117.31C117.65 14.535 117.895 14.46 118.045 14.31C118.205 14.16 118.285 13.915 118.285 13.575V9.6C118.285 9.26 118.21 9.015 118.06 8.865C117.92 8.715 117.675 8.64 117.325 8.64H108.085ZM106.795 0.884999C106.135 0.884999 105.805 1.215 105.805 1.875V6.81C105.805 7.38 105.91 7.76 106.12 7.95C106.34 8.13 106.735 8.22 107.305 8.22H113.14C113.45 8.22 113.66 8.17 113.77 8.07C113.88 7.96 113.935 7.755 113.935 7.455V6.735C113.935 6.425 113.875 6.215 113.755 6.105C113.645 5.995 113.44 5.94 113.14 5.94H108.955V3.165H112.795C113.105 3.165 113.315 3.115 113.425 3.015C113.535 2.905 113.59 2.7 113.59 2.4V1.68C113.59 1.37 113.53 1.16 113.41 1.05C113.3 0.939999 113.095 0.884999 112.795 0.884999H106.795ZM115.285 7.5C115.285 7.8 115.345 8.015 115.465 8.145C115.595 8.275 115.815 8.34 116.125 8.34H117.445C117.755 8.34 117.97 8.275 118.09 8.145C118.22 8.015 118.285 7.8 118.285 7.5V1.47C118.285 1.17 118.22 0.954999 118.09 0.824999C117.97 0.695 117.755 0.63 117.445 0.63H116.125C115.815 0.63 115.595 0.695 115.465 0.824999C115.345 0.954999 115.285 1.17 115.285 1.47V3.33H112.915C112.615 3.33 112.415 3.38 112.315 3.48C112.215 3.58 112.165 3.785 112.165 4.095V4.92C112.165 5.22 112.21 5.42 112.3 5.52C112.4 5.61 112.605 5.655 112.915 5.655H115.285V7.5ZM110.11 12.225V10.95H115.285V12.225H110.11ZM127.043 13.35C127.043 13.65 127.103 13.865 127.223 13.995C127.353 14.125 127.573 14.19 127.883 14.19H129.083C129.393 14.19 129.608 14.125 129.728 13.995C129.858 13.865 129.923 13.65 129.923 13.35V1.47C129.923 1.17 129.858 0.954999 129.728 0.824999C129.608 0.695 129.393 0.63 129.083 0.63H127.883C127.573 0.63 127.353 0.695 127.223 0.824999C127.103 0.954999 127.043 1.17 127.043 1.47V5.085H126.038C126.098 4.425 126.128 3.525 126.128 2.385C126.118 1.885 126.018 1.535 125.828 1.335C125.638 1.135 125.308 1.035 124.838 1.035H120.608C120.298 1.035 120.088 1.09 119.978 1.2C119.868 1.3 119.813 1.5 119.813 1.8V2.865C119.813 3.175 119.868 3.385 119.978 3.495C120.098 3.605 120.308 3.66 120.608 3.66H123.038C123.038 4.17 123.033 4.59 123.023 4.92C123.013 5.24 122.948 5.705 122.828 6.315C122.718 6.925 122.558 7.48 122.348 7.98C122.138 8.47 121.813 9.04 121.373 9.69C120.933 10.33 120.403 10.95 119.783 11.55C119.663 11.67 119.578 11.775 119.528 11.865C119.478 11.955 119.468 12.055 119.498 12.165C119.538 12.285 119.643 12.405 119.813 12.525L120.713 13.17C121.033 13.39 121.258 13.495 121.388 13.485C121.528 13.485 121.733 13.37 122.003 13.14C123.653 11.71 124.808 9.975 125.468 7.935H127.043V13.35ZM130.478 13.35C130.478 13.65 130.538 13.865 130.658 13.995C130.788 14.125 131.008 14.19 131.318 14.19H132.518C132.828 14.19 133.043 14.125 133.163 13.995C133.293 13.865 133.358 13.65 133.358 13.35V1.47C133.358 1.17 133.293 0.954999 133.163 0.824999C133.043 0.695 132.828 0.63 132.518 0.63H131.318C131.008 0.63 130.788 0.695 130.658 0.824999C130.538 0.954999 130.478 1.17 130.478 1.47V13.35ZM135.898 1.485C135.108 2.185 134.713 3.095 134.713 4.215C134.713 5.335 135.108 6.245 135.898 6.945C136.688 7.645 137.753 7.995 139.093 7.995C140.433 7.995 141.498 7.645 142.288 6.945C143.078 6.245 143.473 5.335 143.473 4.215C143.473 3.095 143.078 2.185 142.288 1.485C141.498 0.785 140.433 0.435 139.093 0.435C137.753 0.435 136.688 0.785 135.898 1.485ZM137.668 4.23C137.668 3.74 137.803 3.365 138.073 3.105C138.343 2.835 138.683 2.7 139.093 2.7C139.493 2.7 139.828 2.835 140.098 3.105C140.378 3.375 140.518 3.745 140.518 4.215C140.518 4.705 140.388 5.08 140.128 5.34C139.878 5.6 139.533 5.73 139.093 5.73C138.673 5.73 138.328 5.6 138.058 5.34C137.798 5.08 137.668 4.71 137.668 4.23ZM137.338 8.565C136.988 8.565 136.738 8.64 136.588 8.79C136.448 8.94 136.378 9.185 136.378 9.525V13.2C136.378 13.72 136.483 14.07 136.693 14.25C136.913 14.44 137.283 14.535 137.803 14.535H146.563C146.903 14.535 147.148 14.46 147.298 14.31C147.458 14.16 147.538 13.915 147.538 13.575V9.525C147.538 9.185 147.463 8.94 147.313 8.79C147.173 8.64 146.928 8.565 146.578 8.565H137.338ZM139.363 12.225V10.875H144.538V12.225H139.363ZM144.538 7.35C144.538 7.65 144.598 7.865 144.718 7.995C144.848 8.125 145.068 8.19 145.378 8.19H146.698C147.008 8.19 147.223 8.125 147.343 7.995C147.473 7.865 147.538 7.65 147.538 7.35V1.47C147.538 1.17 147.473 0.954999 147.343 0.824999C147.223 0.695 147.008 0.63 146.698 0.63H145.378C145.068 0.63 144.848 0.695 144.718 0.824999C144.598 0.954999 144.538 1.17 144.538 1.47V7.35ZM153.086 12.645C153.086 12.175 152.916 11.785 152.576 11.475C152.236 11.155 151.821 10.995 151.331 10.995C150.851 10.995 150.436 11.155 150.086 11.475C149.746 11.785 149.576 12.175 149.576 12.645C149.576 13.165 149.741 13.58 150.071 13.89C150.411 14.2 150.826 14.355 151.316 14.355C151.806 14.355 152.221 14.195 152.561 13.875C152.911 13.555 153.086 13.145 153.086 12.645ZM150.701 10.26H152.006C152.256 10.26 152.436 10.205 152.546 10.095C152.666 9.975 152.731 9.77 152.741 9.48L152.996 1.56C153.006 1.22 152.966 0.995 152.876 0.884999C152.786 0.774999 152.601 0.719999 152.321 0.719999H150.401C150.091 0.719999 149.891 0.774999 149.801 0.884999C149.711 0.985 149.671 1.17 149.681 1.44L149.936 9.48C149.946 10 150.201 10.26 150.701 10.26ZM1.78791 23.21C1.78791 23.91 1.91291 24.37 2.16291 24.59C2.42291 24.81 2.89791 24.92 3.58791 24.92H12.3329C12.8029 24.92 13.1279 24.83 13.3079 24.65C13.4879 24.47 13.5779 24.155 13.5779 23.705V19.07C13.5779 18.62 13.4879 18.305 13.3079 18.125C13.1279 17.945 12.8029 17.855 12.3329 17.855H3.03291C2.56291 17.855 2.23791 17.945 2.05791 18.125C1.87791 18.305 1.78791 18.62 1.78791 19.07V23.21ZM14.4479 27.485V26.42C14.4479 26.11 14.3879 25.9 14.2679 25.79C14.1579 25.68 13.9529 25.625 13.6529 25.625H1.69791C1.37791 25.625 1.16291 25.68 1.05291 25.79C0.95291 25.89 0.90291 26.09 0.90291 26.39V27.485C0.90291 27.795 0.95291 28 1.05291 28.1C1.16291 28.2 1.37791 28.25 1.69791 28.25H5.98791V30.8C5.98791 31.1 6.04791 31.315 6.16791 31.445C6.29791 31.575 6.51791 31.64 6.82791 31.64H8.52291C8.83291 31.64 9.04791 31.575 9.16791 31.445C9.29791 31.315 9.36291 31.1 9.36291 30.8V28.25H13.6529C13.9629 28.25 14.1729 28.2 14.2829 28.1C14.3929 27.99 14.4479 27.785 14.4479 27.485ZM4.83291 20.27H10.5329V22.505H4.83291V20.27ZM22.4723 25.67C22.8623 25.79 23.1273 25.84 23.2673 25.82C23.4173 25.8 23.5723 25.67 23.7323 25.43L24.2573 24.545C24.4473 24.255 24.5323 24.05 24.5123 23.93C24.5023 23.81 24.3673 23.685 24.1073 23.555C23.1973 23.085 22.5373 22.61 22.1273 22.13C21.7173 21.65 21.4773 21.085 21.4073 20.435H23.4023C23.7123 20.435 23.9223 20.385 24.0323 20.285C24.1423 20.175 24.1973 19.97 24.1973 19.67V18.68C24.1973 18.37 24.1373 18.16 24.0173 18.05C23.9073 17.94 23.7023 17.885 23.4023 17.885H16.3673C16.0473 17.885 15.8323 17.94 15.7223 18.05C15.6223 18.15 15.5723 18.35 15.5723 18.65V19.67C15.5723 19.98 15.6223 20.185 15.7223 20.285C15.8323 20.385 16.0473 20.435 16.3673 20.435H18.1823C17.9823 21.975 16.9973 23.17 15.2273 24.02C15.0073 24.12 14.8923 24.245 14.8823 24.395C14.8723 24.545 14.9673 24.755 15.1673 25.025L15.7673 25.88C15.9373 26.12 16.1023 26.25 16.2623 26.27C16.4323 26.29 16.6723 26.225 16.9823 26.075C17.4423 25.885 17.9523 25.575 18.5123 25.145C19.0823 24.715 19.5273 24.22 19.8473 23.66C20.1573 24.13 20.5823 24.555 21.1223 24.935C21.6623 25.305 22.1123 25.55 22.4723 25.67ZM24.9173 30.695C24.9173 30.995 24.9773 31.21 25.0973 31.34C25.2273 31.47 25.4473 31.535 25.7573 31.535H27.3173C27.6273 31.535 27.8423 31.47 27.9623 31.34C28.0923 31.21 28.1573 30.995 28.1573 30.695V27.575C28.1573 27.115 28.0723 26.805 27.9023 26.645C27.7423 26.485 27.4373 26.405 26.9873 26.405H17.7923C17.4723 26.405 17.2573 26.46 17.1473 26.57C17.0473 26.67 16.9973 26.87 16.9973 27.17V28.19C16.9973 28.5 17.0473 28.705 17.1473 28.805C17.2573 28.905 17.4723 28.955 17.7923 28.955H24.9173V30.695ZM25.1573 25.31C25.1573 25.61 25.2173 25.825 25.3373 25.955C25.4673 26.085 25.6873 26.15 25.9973 26.15H27.3173C27.6273 26.15 27.8423 26.085 27.9623 25.955C28.0923 25.825 28.1573 25.61 28.1573 25.31V23.255H28.8773C29.1873 23.255 29.3973 23.205 29.5073 23.105C29.6173 22.995 29.6723 22.79 29.6723 22.49V21.35C29.6723 21.04 29.6123 20.83 29.4923 20.72C29.3823 20.61 29.1773 20.555 28.8773 20.555H28.1573V18.47C28.1573 18.17 28.0923 17.955 27.9623 17.825C27.8423 17.695 27.6273 17.63 27.3173 17.63H25.9973C25.6873 17.63 25.4673 17.695 25.3373 17.825C25.2173 17.955 25.1573 18.17 25.1573 18.47V25.31ZM30.6526 20.9C30.6526 21.95 31.0376 22.81 31.8076 23.48C32.5776 24.15 33.6376 24.485 34.9876 24.485C36.3376 24.485 37.3976 24.15 38.1676 23.48C38.9376 22.81 39.3226 21.95 39.3226 20.9C39.3226 19.86 38.9376 19.005 38.1676 18.335C37.3976 17.665 36.3376 17.33 34.9876 17.33C33.6376 17.33 32.5776 17.665 31.8076 18.335C31.0376 19.005 30.6526 19.86 30.6526 20.9ZM40.4476 30.35C40.4476 30.65 40.5076 30.865 40.6276 30.995C40.7576 31.125 40.9776 31.19 41.2876 31.19H42.6076C42.9176 31.19 43.1326 31.125 43.2526 30.995C43.3826 30.865 43.4476 30.65 43.4476 30.35V18.47C43.4476 18.17 43.3826 17.955 43.2526 17.825C43.1326 17.695 42.9176 17.63 42.6076 17.63H41.2876C40.9776 17.63 40.7576 17.695 40.6276 17.825C40.5076 17.955 40.4476 18.17 40.4476 18.47V30.35ZM40.1476 26.6V25.58C40.1476 25.27 40.0876 25.06 39.9676 24.95C39.8576 24.84 39.6526 24.785 39.3526 24.785H30.7576C30.4376 24.785 30.2226 24.84 30.1126 24.95C30.0126 25.05 29.9626 25.25 29.9626 25.55V26.6C29.9626 26.91 30.0126 27.115 30.1126 27.215C30.2226 27.315 30.4376 27.365 30.7576 27.365H33.4126V30.275C33.4126 30.575 33.4726 30.79 33.5926 30.92C33.7226 31.05 33.9426 31.115 34.2526 31.115H35.7076C36.0176 31.115 36.2326 31.05 36.3526 30.92C36.4826 30.79 36.5476 30.575 36.5476 30.275V27.365H39.3526C39.6626 27.365 39.8726 27.315 39.9826 27.215C40.0926 27.105 40.1476 26.9 40.1476 26.6ZM33.5176 20.915C33.5176 20.525 33.6476 20.205 33.9076 19.955C34.1776 19.695 34.5376 19.565 34.9876 19.565C35.4276 19.565 35.7826 19.695 36.0526 19.955C36.3226 20.205 36.4576 20.52 36.4576 20.9C36.4576 21.29 36.3326 21.61 36.0826 21.86C35.8326 22.11 35.4676 22.235 34.9876 22.235C34.5376 22.235 34.1776 22.11 33.9076 21.86C33.6476 21.61 33.5176 21.295 33.5176 20.915ZM58.4811 29.885V28.82C58.4811 28.51 58.4211 28.3 58.3011 28.19C58.1911 28.08 57.9861 28.025 57.6861 28.025H53.3961V26.69H56.6811C56.9911 26.69 57.2011 26.64 57.3111 26.54C57.4211 26.43 57.4761 26.225 57.4761 25.925V25.07C57.4761 24.76 57.4161 24.55 57.2961 24.44C57.1861 24.33 56.9811 24.275 56.6811 24.275H49.0311V23.54H56.0661C56.7961 23.54 57.1611 23.125 57.1611 22.295V19.07C57.1611 18.31 56.7811 17.93 56.0211 17.93H46.6161C46.2961 17.93 46.0811 17.985 45.9711 18.095C45.8711 18.195 45.8211 18.395 45.8211 18.695V19.58C45.8211 19.89 45.8711 20.095 45.9711 20.195C46.0811 20.295 46.2961 20.345 46.6161 20.345H53.9361V21.14H47.0211C46.2211 21.14 45.8211 21.535 45.8211 22.325V25.4C45.8211 25.91 45.9511 26.255 46.2111 26.435C46.4711 26.605 46.8511 26.69 47.3511 26.69H50.0211V28.025H45.7311C45.4111 28.025 45.1961 28.08 45.0861 28.19C44.9861 28.29 44.9361 28.49 44.9361 28.79V29.885C44.9361 30.195 44.9861 30.4 45.0861 30.5C45.1961 30.6 45.4111 30.65 45.7311 30.65H57.6861C57.9961 30.65 58.2061 30.595 58.3161 30.485C58.4261 30.385 58.4811 30.185 58.4811 29.885ZM71.4226 30.35C71.4226 30.65 71.4826 30.865 71.6026 30.995C71.7326 31.125 71.9526 31.19 72.2626 31.19H73.3876C73.6976 31.19 73.9126 31.125 74.0326 30.995C74.1626 30.865 74.2276 30.65 74.2276 30.35V18.47C74.2276 18.17 74.1626 17.955 74.0326 17.825C73.9126 17.695 73.6976 17.63 73.3876 17.63H72.2626C71.9526 17.63 71.7326 17.695 71.6026 17.825C71.4826 17.955 71.4226 18.17 71.4226 18.47V22.475H70.5676V19.025C70.5676 18.365 70.2376 18.035 69.5776 18.035H65.1676C64.5076 18.035 64.1776 18.365 64.1776 19.025V28.865C64.1776 29.465 64.2826 29.855 64.4926 30.035C64.7026 30.215 65.1076 30.305 65.7076 30.305H69.5476C70.2276 30.305 70.5676 29.975 70.5676 29.315V25.325H71.4226V30.35ZM74.6926 30.35C74.6926 30.65 74.7526 30.865 74.8726 30.995C75.0026 31.125 75.2226 31.19 75.5326 31.19H76.6576C76.9676 31.19 77.1826 31.125 77.3026 30.995C77.4326 30.865 77.4976 30.65 77.4976 30.35V18.47C77.4976 18.17 77.4326 17.955 77.3026 17.825C77.1826 17.695 76.9676 17.63 76.6576 17.63H75.5326C75.2226 17.63 75.0026 17.695 74.8726 17.825C74.7526 17.955 74.6926 18.17 74.6926 18.47V30.35ZM66.8026 27.86V20.48H67.9426V27.86H66.8026ZM92.2311 27.245V26.18C92.2311 25.87 92.1711 25.66 92.0511 25.55C91.9411 25.44 91.7361 25.385 91.4361 25.385H79.4811C79.1611 25.385 78.9461 25.44 78.8361 25.55C78.7361 25.65 78.6861 25.85 78.6861 26.15V27.245C78.6861 27.555 78.7361 27.76 78.8361 27.86C78.9461 27.96 79.1611 28.01 79.4811 28.01H81.3261V30.8C81.3261 31.1 81.3861 31.315 81.5061 31.445C81.6361 31.575 81.8561 31.64 82.1661 31.64H83.7111C84.0211 31.64 84.2361 31.575 84.3561 31.445C84.4861 31.315 84.5511 31.1 84.5511 30.8V28.01H86.3511V30.8C86.3511 31.1 86.4111 31.315 86.5311 31.445C86.6611 31.575 86.8811 31.64 87.1911 31.64H88.7361C89.0461 31.64 89.2611 31.575 89.3811 31.445C89.5111 31.315 89.5761 31.1 89.5761 30.8V28.01H91.4361C91.7461 28.01 91.9561 27.96 92.0661 27.86C92.1761 27.75 92.2311 27.545 92.2311 27.245ZM79.7211 22.865C79.7211 23.565 79.8461 24.025 80.0961 24.245C80.3561 24.465 80.8311 24.575 81.5211 24.575H90.5211C90.8311 24.575 91.0411 24.525 91.1511 24.425C91.2611 24.315 91.3161 24.11 91.3161 23.81V22.745C91.3161 22.435 91.2561 22.225 91.1361 22.115C91.0261 22.005 90.8211 21.95 90.5211 21.95H82.9461V18.695C82.9461 18.395 82.8811 18.18 82.7511 18.05C82.6311 17.92 82.4161 17.855 82.1061 17.855H80.5611C80.2511 17.855 80.0311 17.92 79.9011 18.05C79.7811 18.18 79.7211 18.395 79.7211 18.695V22.865ZM110.033 20.705V19.64C110.033 19.33 109.973 19.12 109.853 19.01C109.743 18.9 109.538 18.845 109.238 18.845H106.043V18.035C106.043 17.735 105.993 17.535 105.893 17.435C105.793 17.325 105.588 17.27 105.278 17.27H103.433C103.123 17.27 102.918 17.325 102.818 17.435C102.718 17.535 102.668 17.735 102.668 18.035V18.845H99.4726C99.1526 18.845 98.9376 18.9 98.8276 19.01C98.7276 19.11 98.6776 19.31 98.6776 19.61V20.705C98.6776 21.015 98.7276 21.22 98.8276 21.32C98.9376 21.42 99.1526 21.47 99.4726 21.47H102.323C101.953 22.41 100.703 23.085 98.5726 23.495C98.3326 23.545 98.1876 23.62 98.1376 23.72C98.0976 23.81 98.1226 24 98.2126 24.29L98.5276 25.22C98.6276 25.52 98.7376 25.71 98.8576 25.79C98.9876 25.87 99.2076 25.905 99.5176 25.895C100.288 25.875 101.153 25.695 102.113 25.355C103.083 25.005 103.828 24.5 104.348 23.84C104.868 24.5 105.608 25.005 106.568 25.355C107.538 25.695 108.408 25.875 109.178 25.895C109.488 25.905 109.703 25.87 109.823 25.79C109.953 25.71 110.068 25.52 110.168 25.22L110.468 24.29C110.558 24 110.578 23.81 110.528 23.72C110.488 23.62 110.348 23.545 110.108 23.495C107.978 23.085 106.728 22.41 106.358 21.47H109.238C109.548 21.47 109.758 21.42 109.868 21.32C109.978 21.21 110.033 21.005 110.033 20.705ZM111.128 28.055V27.035C111.128 26.725 111.068 26.515 110.948 26.405C110.838 26.295 110.633 26.24 110.333 26.24H98.3776C98.0576 26.24 97.8426 26.295 97.7326 26.405C97.6326 26.505 97.5826 26.705 97.5826 27.005V28.055C97.5826 28.365 97.6326 28.57 97.7326 28.67C97.8426 28.77 98.0576 28.82 98.3776 28.82H102.668V30.8C102.668 31.1 102.728 31.315 102.848 31.445C102.978 31.575 103.198 31.64 103.508 31.64H105.203C105.513 31.64 105.728 31.575 105.848 31.445C105.978 31.315 106.043 31.1 106.043 30.8V28.82H110.333C110.643 28.82 110.853 28.77 110.963 28.67C111.073 28.56 111.128 28.355 111.128 28.055ZM121.987 26.945C121.987 27.245 122.047 27.46 122.167 27.59C122.297 27.72 122.517 27.785 122.827 27.785H124.147C124.457 27.785 124.672 27.72 124.792 27.59C124.922 27.46 124.987 27.245 124.987 26.945V18.47C124.987 18.17 124.922 17.955 124.792 17.825C124.672 17.695 124.457 17.63 124.147 17.63H122.827C122.517 17.63 122.297 17.695 122.167 17.825C122.047 17.955 121.987 18.17 121.987 18.47V21.26H120.622C120.672 21.17 120.697 21.015 120.697 20.795V19.715C120.697 19.405 120.637 19.195 120.517 19.085C120.407 18.975 120.202 18.92 119.902 18.92H117.907V18.02C117.907 17.72 117.857 17.52 117.757 17.42C117.657 17.31 117.452 17.255 117.142 17.255H115.537C115.227 17.255 115.022 17.31 114.922 17.42C114.822 17.52 114.772 17.72 114.772 18.02V18.92H112.747C112.427 18.92 112.212 18.975 112.102 19.085C112.002 19.185 111.952 19.385 111.952 19.685V20.795C111.952 21.105 112.002 21.31 112.102 21.41C112.212 21.51 112.427 21.56 112.747 21.56H114.697C114.447 22.82 113.522 23.83 111.922 24.59C111.672 24.71 111.532 24.835 111.502 24.965C111.472 25.095 111.532 25.265 111.682 25.475L112.297 26.405C112.477 26.675 112.632 26.83 112.762 26.87C112.892 26.91 113.117 26.875 113.437 26.765C113.897 26.615 114.432 26.325 115.042 25.895C115.652 25.465 116.127 24.97 116.467 24.41C116.757 24.87 117.152 25.295 117.652 25.685C118.152 26.065 118.627 26.35 119.077 26.54C119.377 26.67 119.602 26.715 119.752 26.675C119.902 26.625 120.072 26.46 120.262 26.18L120.757 25.445C120.897 25.245 120.982 25.09 121.012 24.98C121.052 24.87 121.042 24.775 120.982 24.695C120.932 24.605 120.822 24.52 120.652 24.44C119.832 24.04 119.222 23.61 118.822 23.15C118.422 22.68 118.167 22.15 118.057 21.56H119.722C119.672 21.66 119.647 21.825 119.647 22.055V23.195C119.647 23.495 119.702 23.7 119.812 23.81C119.922 23.91 120.132 23.96 120.442 23.96H121.987V26.945ZM113.827 27.71V29.675C113.827 30.375 113.952 30.835 114.202 31.055C114.462 31.275 114.937 31.385 115.627 31.385H124.282C124.592 31.385 124.802 31.33 124.912 31.22C125.022 31.12 125.077 30.92 125.077 30.62V29.555C125.077 29.245 125.017 29.035 124.897 28.925C124.787 28.815 124.582 28.76 124.282 28.76H116.977V27.71C116.977 27.41 116.912 27.195 116.782 27.065C116.662 26.935 116.447 26.87 116.137 26.87H114.667C114.357 26.87 114.137 26.935 114.007 27.065C113.887 27.195 113.827 27.41 113.827 27.71ZM126.815 18.65V23.645C126.815 24.245 126.94 24.655 127.19 24.875C127.44 25.095 127.865 25.205 128.465 25.205H133.985C134.665 25.205 135.005 24.875 135.005 24.215V18.65C135.005 18.35 134.94 18.135 134.81 18.005C134.69 17.875 134.475 17.81 134.165 17.81H132.845C132.535 17.81 132.315 17.875 132.185 18.005C132.065 18.135 132.005 18.35 132.005 18.65V19.46H129.815V18.65C129.815 18.35 129.75 18.135 129.62 18.005C129.5 17.875 129.285 17.81 128.975 17.81H127.655C127.345 17.81 127.125 17.875 126.995 18.005C126.875 18.135 126.815 18.35 126.815 18.65ZM131.42 29.12V28.205H138.38C138.69 28.205 138.89 28.16 138.98 28.07C139.08 27.97 139.13 27.77 139.13 27.47V26.555C139.13 26.245 139.08 26.04 138.98 25.94C138.88 25.84 138.68 25.79 138.38 25.79H129.245C128.895 25.79 128.645 25.865 128.495 26.015C128.355 26.165 128.285 26.41 128.285 26.75V30.2C128.285 30.72 128.39 31.07 128.6 31.25C128.82 31.44 129.19 31.535 129.71 31.535H138.5C138.81 31.535 139.01 31.485 139.1 31.385C139.2 31.295 139.25 31.1 139.25 30.8V29.885C139.25 29.575 139.2 29.37 139.1 29.27C139 29.17 138.8 29.12 138.5 29.12H131.42ZM136.145 24.575C136.145 24.875 136.205 25.09 136.325 25.22C136.455 25.35 136.675 25.415 136.985 25.415H138.305C138.615 25.415 138.83 25.35 138.95 25.22C139.08 25.09 139.145 24.875 139.145 24.575V22.91H139.865C140.175 22.91 140.385 22.86 140.495 22.76C140.605 22.65 140.66 22.445 140.66 22.145V21.005C140.66 20.695 140.6 20.485 140.48 20.375C140.37 20.265 140.165 20.21 139.865 20.21H139.145V18.47C139.145 18.17 139.08 17.955 138.95 17.825C138.83 17.695 138.615 17.63 138.305 17.63H136.985C136.675 17.63 136.455 17.695 136.325 17.825C136.205 17.955 136.145 18.17 136.145 18.47V24.575ZM132.005 22.94H129.815V21.725H132.005V22.94ZM150.839 30.35C150.839 30.65 150.899 30.865 151.019 30.995C151.149 31.125 151.369 31.19 151.679 31.19H153.149C153.459 31.19 153.674 31.125 153.794 30.995C153.924 30.865 153.989 30.65 153.989 30.35V18.47C153.989 18.17 153.924 17.955 153.794 17.825C153.674 17.695 153.459 17.63 153.149 17.63H151.679C151.369 17.63 151.149 17.695 151.019 17.825C150.899 17.955 150.839 18.17 150.839 18.47V30.35ZM142.019 17.96C141.709 17.96 141.499 18.015 141.389 18.125C141.279 18.225 141.224 18.425 141.224 18.725V19.865C141.224 20.175 141.279 20.385 141.389 20.495C141.509 20.605 141.719 20.66 142.019 20.66H146.204C146.214 22.2 145.809 23.61 144.989 24.89C144.179 26.16 142.934 27.205 141.254 28.025C140.774 28.255 140.709 28.59 141.059 29.03L141.779 29.93C141.989 30.19 142.184 30.33 142.364 30.35C142.554 30.38 142.839 30.31 143.219 30.14C145.399 29.16 146.999 27.735 148.019 25.865C149.049 23.985 149.564 21.795 149.564 19.295C149.564 18.805 149.449 18.46 149.219 18.26C148.999 18.06 148.659 17.96 148.199 17.96H142.019ZM159.538 29.645C159.538 29.175 159.368 28.785 159.028 28.475C158.688 28.155 158.273 27.995 157.783 27.995C157.303 27.995 156.888 28.155 156.538 28.475C156.198 28.785 156.028 29.175 156.028 29.645C156.028 30.165 156.193 30.58 156.523 30.89C156.863 31.2 157.278 31.355 157.768 31.355C158.258 31.355 158.673 31.195 159.013 30.875C159.363 30.555 159.538 30.145 159.538 29.645ZM157.153 27.26H158.458C158.708 27.26 158.888 27.205 158.998 27.095C159.118 26.975 159.183 26.77 159.193 26.48L159.448 18.56C159.458 18.22 159.418 17.995 159.328 17.885C159.238 17.775 159.053 17.72 158.773 17.72H156.853C156.543 17.72 156.343 17.775 156.253 17.885C156.163 17.985 156.123 18.17 156.133 18.44L156.388 26.48C156.398 27 156.653 27.26 157.153 27.26Z" fill="#7C7C7C"/>
</svg>
