<svg width="225" height="64" viewBox="0 0 225 64" fill="none" xmlns="http://www.w3.org/2000/svg">
<rect x="0.5" y="0.5" width="224" height="63" rx="31.5" fill="#E22F2F" stroke="#E22F2F"/>
<path d="M111.495 31.375H108.17V42.725H104.82V20.525H108.17V28.575H111.495V31.375ZM103.095 33.775L103.495 36.45C102.145 36.7 100.67 36.9 99.0699 37.05C97.4866 37.1833 95.5866 37.25 93.3699 37.25H91.0449V22.3H101.545V25.1H94.3949V34.475C97.8283 34.425 100.728 34.1917 103.095 33.775ZM131.685 20.525V42.725H128.31V20.525H131.685ZM121.76 29.8C122.093 29.8 122.368 29.9417 122.585 30.225L126.635 35.45L124.035 37.65L119.91 32C119.877 31.9167 119.802 31.875 119.685 31.875C119.585 31.875 119.51 31.9167 119.46 32C119.01 32.8833 118.435 33.8 117.735 34.75C117.035 35.6833 116.143 36.7833 115.06 38.05L112.485 35.875C114.385 33.825 115.743 31.975 116.56 30.325C117.377 28.6583 117.785 26.825 117.785 24.825V22H121.16V24.8C121.16 26.9167 120.827 28.825 120.16 30.525L120.285 30.6L120.885 30.125C121.152 29.9083 121.443 29.8 121.76 29.8ZM156.075 31.925H152.925V42.725H149.575V20.525H152.925V29.125H156.075V31.925ZM145.275 24.6H137.7V21.75H145.275V24.6ZM134.575 26.4H147.975V29.15H145.025V29.35C146.308 30.1333 146.95 31.45 146.95 33.3C146.95 34.3333 146.708 35.25 146.225 36.05C145.758 36.85 145.108 37.475 144.275 37.925C143.442 38.375 142.492 38.6 141.425 38.6C140.358 38.6 139.4 38.375 138.55 37.925C137.717 37.475 137.058 36.85 136.575 36.05C136.108 35.25 135.875 34.3333 135.875 33.3C135.875 31.4667 136.517 30.1583 137.8 29.375V29.15H134.575V26.4ZM143.725 32.025C143.725 31.2417 143.517 30.6333 143.1 30.2C142.683 29.7667 142.125 29.55 141.425 29.55C140.708 29.55 140.142 29.7667 139.725 30.2C139.308 30.6333 139.1 31.2417 139.1 32.025V33.325C139.1 34.1083 139.308 34.7167 139.725 35.15C140.142 35.5833 140.708 35.8 141.425 35.8C142.125 35.8 142.683 35.5833 143.1 35.15C143.517 34.7167 143.725 34.1083 143.725 33.325V32.025ZM172.89 20.525H176.265V42.725H172.89V20.525ZM157.69 35.7C159.823 34.6333 161.448 33.65 162.565 32.75C163.682 31.85 164.465 30.8917 164.915 29.875C165.382 28.8417 165.615 27.5667 165.615 26.05V25.1H158.465V22.275H169.015V26.05C169.015 27.9667 168.715 29.6 168.115 30.95C167.532 32.3 166.573 33.5417 165.24 34.675C163.907 35.7917 162.04 36.9917 159.64 38.275L157.69 35.7Z" fill="white"/>
<path d="M60 23.4062C60 23.4062 61.9031 22.4688 55 22.4688C52.5277 22.4688 50.111 23.2019 48.0554 24.5754C45.9998 25.9489 44.3976 27.9011 43.4515 30.1852C42.5054 32.4693 42.2579 34.9826 42.7402 37.4074C43.2225 39.8321 44.413 42.0594 46.1612 43.8076C47.9093 45.5557 50.1366 46.7462 52.5614 47.2286C54.9861 47.7109 57.4995 47.4633 59.7835 46.5172C62.0676 45.5711 64.0199 43.969 65.3934 41.9134C66.7669 39.8578 67.5 37.441 67.5 34.9687" stroke="white" stroke-width="5" stroke-miterlimit="10" stroke-linecap="round"/>
<path d="M55 16.5312L61.25 22.7812L55 29.0312" stroke="white" stroke-width="5" stroke-linecap="round" stroke-linejoin="round"/>
</svg>
