<svg width="18" height="18" viewBox="0 0 18 18" fill="none" xmlns="http://www.w3.org/2000/svg">
<path d="M5.205 10.527C5.03025 10.995 4.8825 11.427 4.7505 11.8643C5.4705 11.3415 6.32625 11.01 7.314 10.8863C9.19875 10.6508 10.8735 9.4065 11.721 7.84275L10.629 6.7515L11.6888 5.69025L12.4387 4.9395C12.7612 4.617 13.125 4.0215 13.5098 3.1635C9.315 3.81375 6.74625 6.3825 5.20425 10.527H5.205ZM12.75 6.75075L13.5 7.5C12.75 9.75 10.5 12 7.5 12.375C5.49825 12.6255 4.248 14.0002 3.7485 16.5H2.25C3 12 4.5 1.5 15.75 1.5C15 3.74775 14.2515 5.247 13.5023 5.99775L12.75 6.75075Z" fill="#FF8E25"/>
</svg>
