<svg width="55" height="55" viewBox="0 0 55 55" fill="none" xmlns="http://www.w3.org/2000/svg">
<rect x="0.5" y="0.5" width="54" height="54" rx="9.5" fill="#FFE9E9" stroke="#FFD4D4"/>
<path d="M7.03303 43.787H10.92V39.159H5.26503V40.524H9.16503V42.435H5.27803V47.362H6.35703C8.52803 47.362 10.283 47.284 12.233 46.946L12.051 45.555C10.361 45.841 8.85303 45.932 7.03303 45.945V43.787ZM12.883 38.132V50.144H14.599V38.132H12.883ZM24.465 42.435H19.538V41.239H24.465V42.435ZM26.155 38.574H24.465V39.887H19.538V38.574H17.835V43.8H26.155V38.574ZM27.442 44.931H16.6V46.309H19.018V50.131H20.734V46.309H23.295V50.131H25.024V46.309H27.442V44.931ZM39.453 43.969C37.828 43.267 37.204 41.811 37.204 40.355V39.003H35.475V40.355C35.475 41.538 35.072 42.812 33.967 43.644C32.862 42.812 32.446 41.525 32.446 40.355V39.003H30.743V40.355C30.743 41.759 30.106 43.254 28.494 43.969L29.378 45.23C30.47 44.762 31.172 43.917 31.588 42.89C32.004 43.995 32.758 44.931 33.967 45.412C35.176 44.931 35.93 43.995 36.346 42.903C36.762 43.93 37.464 44.762 38.569 45.23L39.453 43.969ZM28.559 48.649H39.388V47.258H28.559V48.649ZM41.181 39.38V40.745H45.172C44.925 43.397 43.599 45.269 40.544 46.738L41.441 48.09C45.692 46.036 46.927 43.046 46.927 39.38H41.181ZM48.76 38.132V50.105H50.489V38.132H48.76Z" fill="#747474"/>
<path d="M20.41 23.054C20.0605 23.99 19.765 24.854 19.501 25.7285C20.941 24.683 22.6525 24.02 24.628 23.7725C28.3975 23.3015 31.747 20.813 33.442 17.6855L31.258 15.503L33.3775 13.3805L34.8775 11.879C35.5225 11.234 36.25 10.043 37.0195 8.327C28.63 9.6275 23.4925 14.765 20.4085 23.054H20.41ZM35.5 15.5015L37 17C35.5 21.5 31 26 25 26.75C20.9965 27.251 18.496 30.0005 17.497 35H14.5C16 26 19 5 41.5 5C40 9.4955 38.503 12.494 37.0045 13.9955L35.5 15.5015Z" fill="#747474"/>
</svg>
