<svg width="116" height="41" viewBox="0 0 116 41" fill="none" xmlns="http://www.w3.org/2000/svg">
<rect x="0.5" y="0.5" width="115" height="40" rx="20" fill="#E22F2F" stroke="#FF0000"/>
<path d="M47.0361 27.3872L52.0329 32.3828L50.3821 34.0336L45.3864 29.0368C43.5276 30.5269 41.2156 31.3374 38.8333 31.334C33.0373 31.334 28.3333 26.63 28.3333 20.834C28.3333 15.038 33.0373 10.334 38.8333 10.334C44.6293 10.334 49.3333 15.038 49.3333 20.834C49.3366 23.2163 48.5262 25.5283 47.0361 27.3872ZM44.6958 26.5215C46.1764 24.9989 47.0033 22.9578 46.9999 20.834C46.9999 16.3213 43.3448 12.6673 38.8333 12.6673C34.3206 12.6673 30.6666 16.3213 30.6666 20.834C30.6666 25.3455 34.3206 29.0007 38.8333 29.0007C40.9571 29.004 42.9981 28.1771 44.5208 26.6965L44.6958 26.5215V26.5215Z" fill="white"/>
<path d="M60.0416 13.36V15.46H65.6416C65.2216 17.9 63.0016 19.9 59.0416 20.98L60.0816 23.02C65.4416 21.54 68.4416 18.22 68.4416 13.36H60.0416ZM64.8416 25.42H71.7616V28.44H64.8416V25.42ZM62.2416 30.5H74.3616V23.34H62.2416V30.5ZM71.7216 12.32V16.66H68.5416V18.8H71.7216V22.58H74.3616V12.32H71.7216ZM86.64 20.54C84.2 19.52 83.22 17.5 83.22 15.46V13.32H80.68V15.46C80.68 17.56 79.68 19.84 77.1 20.98L78.5 23.04C80.2 22.3 81.32 21 82 19.44C82.64 20.8 83.7 21.9 85.24 22.54L86.64 20.54ZM80.38 26.38H90.42V30.74H93.06V24.3H80.38V26.38ZM90.56 12.3V16.78H89.12V12.58H86.66V23.38H89.12V18.9H90.56V23.48H93.06V12.3H90.56Z" fill="white"/>
</svg>
