<svg width="98" height="18" viewBox="0 0 98 18" fill="none" xmlns="http://www.w3.org/2000/svg">
<path d="M9 14.7264L3.43818 18L4.68019 11.4262L0 6.87562L6.32989 6.08624L9 0L11.6701 6.08624L18 6.87562L13.3198 11.4262L14.5618 18L9 14.7264Z" fill="#E22F2F"/>
<path d="M67 14.7264L61.4382 18L62.6802 11.4262L58 6.87562L64.3299 6.08624L67 0L69.6701 6.08624L76 6.87562L71.3198 11.4262L72.5618 18L67 14.7264Z" fill="#E22F2F"/>
<path d="M47 14.7264L41.4382 18L42.6802 11.4262L38 6.87562L44.3299 6.08624L47 0L49.6701 6.08624L56 6.87562L51.3198 11.4262L52.5618 18L47 14.7264Z" fill="#E22F2F"/>
<path d="M27 14.7264L21.4382 18L22.6802 11.4262L18 6.87562L24.3299 6.08624L27 0L29.6701 6.08624L36 6.87562L31.3198 11.4262L32.5618 18L27 14.7264Z" fill="#E22F2F"/>
<path d="M89 14.7264L83.4382 18L84.6802 11.4262L80 6.87562L86.3299 6.08624L89 0L91.6701 6.08624L98 6.87562L93.3198 11.4262L94.5618 18L89 14.7264Z" fill="#C9C9C9"/>
<path fill-rule="evenodd" clip-rule="evenodd" d="M88.9994 0L86.3299 6.08488L80 6.87427L84.6802 11.4248L83.4382 17.9986L88.9994 14.7254V0Z" fill="#E22F2F"/>
</svg>
