<svg width="225" height="40" viewBox="0 0 225 40" fill="none" xmlns="http://www.w3.org/2000/svg">
<rect x="0.5" y="0.5" width="224" height="39" rx="19.5" fill="#E22F2F" stroke="#E22F2F"/>
<path d="M88.3949 8.525V30.725H85.0199V8.525H88.3949ZM78.4699 17.8C78.8033 17.8 79.0783 17.9417 79.2949 18.225L83.3449 23.45L80.7449 25.65L76.6199 20C76.5866 19.9167 76.5116 19.875 76.3949 19.875C76.2949 19.875 76.2199 19.9167 76.1699 20C75.7199 20.8833 75.1449 21.8 74.4449 22.75C73.7449 23.6833 72.8533 24.7833 71.7699 26.05L69.1949 23.875C71.0949 21.825 72.4533 19.975 73.2699 18.325C74.0866 16.6583 74.4949 14.825 74.4949 12.825V10H77.8699V12.8C77.8699 14.9167 77.5366 16.825 76.8699 18.525L76.9949 18.6L77.5949 18.125C77.8616 17.9083 78.1533 17.8 78.4699 17.8ZM112.81 16.5H109.51V21.8H106.16V8.525H109.51V13.7H112.81V16.5ZM93.485 21.75L90.985 19.625C92.7183 18.3917 94.0016 17.2167 94.835 16.1C95.6683 14.9833 96.1183 13.825 96.185 12.625H91.86V9.85H103.86V12.625H99.535C99.5183 13.975 99.185 15.2417 98.535 16.425L98.71 16.5L99.385 16.025C99.6516 15.8083 99.9433 15.7 100.26 15.7C100.56 15.7 100.868 15.8167 101.185 16.05L104.835 19.1L102.335 21.275L98.435 17.8C98.285 17.6833 98.1433 17.625 98.01 17.625C97.86 17.625 97.735 17.675 97.635 17.775C97.1516 18.3917 96.5766 19.0167 95.91 19.65C95.26 20.2667 94.4516 20.9667 93.485 21.75ZM94.86 22.9H109.51V31.9H106.21V25.725H94.86V22.9ZM135.075 19.925H131.925V30.725H128.575V8.525H131.925V17.125H135.075V19.925ZM124.275 12.6H116.7V9.75H124.275V12.6ZM113.575 14.4H126.975V17.15H124.025V17.35C125.308 18.1333 125.95 19.45 125.95 21.3C125.95 22.3333 125.708 23.25 125.225 24.05C124.758 24.85 124.108 25.475 123.275 25.925C122.442 26.375 121.492 26.6 120.425 26.6C119.358 26.6 118.4 26.375 117.55 25.925C116.717 25.475 116.058 24.85 115.575 24.05C115.108 23.25 114.875 22.3333 114.875 21.3C114.875 19.4667 115.517 18.1583 116.8 17.375V17.15H113.575V14.4ZM122.725 20.025C122.725 19.2417 122.517 18.6333 122.1 18.2C121.683 17.7667 121.125 17.55 120.425 17.55C119.708 17.55 119.142 17.7667 118.725 18.2C118.308 18.6333 118.1 19.2417 118.1 20.025V21.325C118.1 22.1083 118.308 22.7167 118.725 23.15C119.142 23.5833 119.708 23.8 120.425 23.8C121.125 23.8 121.683 23.5833 122.1 23.15C122.517 22.7167 122.725 22.1083 122.725 21.325V20.025ZM151.89 8.525H155.265V30.725H151.89V8.525ZM136.69 23.7C138.823 22.6333 140.448 21.65 141.565 20.75C142.682 19.85 143.465 18.8917 143.915 17.875C144.382 16.8417 144.615 15.5667 144.615 14.05V13.1H137.465V10.275H148.015V14.05C148.015 15.9667 147.715 17.6 147.115 18.95C146.532 20.3 145.573 21.5417 144.24 22.675C142.907 23.7917 141.04 24.9917 138.64 26.275L136.69 23.7Z" fill="white"/>
</svg>
