<svg width="98" height="18" viewBox="0 0 98 18" fill="none" xmlns="http://www.w3.org/2000/svg">
<path d="M89 14.7264L83.4382 18L84.6802 11.4262L80 6.87562L86.3299 6.08624L89 0L91.6701 6.08624L98 6.87562L93.3198 11.4262L94.5618 18L89 14.7264Z" fill="#C9C9C9"/>
<path d="M9 14.7264L3.43818 18L4.68019 11.4262L0 6.87562L6.32989 6.08624L9 0L11.6701 6.08624L18 6.87562L13.3198 11.4262L14.5618 18L9 14.7264Z" fill="#E22F2F"/>
<path d="M49 14.7264L43.4382 18L44.6802 11.4262L40 6.87562L46.3299 6.08624L49 0L51.6701 6.08624L58 6.87562L53.3198 11.4262L54.5618 18L49 14.7264Z" fill="#E22F2F"/>
<path d="M29 14.7264L23.4382 18L24.6802 11.4262L20 6.87562L26.3299 6.08624L29 0L31.6701 6.08624L38 6.87562L33.3198 11.4262L34.5618 18L29 14.7264Z" fill="#E22F2F"/>
<path d="M69 14.7264L63.4382 18L64.6802 11.4262L60 6.87562L66.3299 6.08624L69 0L71.6701 6.08624L78 6.87562L73.3198 11.4262L74.5618 18L69 14.7264Z" fill="#C9C9C9"/>
<path fill-rule="evenodd" clip-rule="evenodd" d="M68.9994 0L66.3299 6.08488L60 6.87427L64.6802 11.4248L63.4382 17.9986L68.9994 14.7254V0Z" fill="#E22F2F"/>
</svg>
