<svg width="222" height="29" viewBox="0 0 222 29" fill="none" xmlns="http://www.w3.org/2000/svg">
<path d="M23.57 0.629999V27.27H19.76V0.629999H23.57ZM14.21 1.02H17.96V26.55H14.21V13.26H11.33V9.96H14.21V1.02ZM12.17 16.86L12.65 20.04C11.31 20.34 9.9 20.57 8.42 20.73C6.96 20.87 5.14 20.94 2.96 20.94H0.74V3.12H10.94V6.39H4.61V10.11H10.28V13.35H4.61V17.7C6.19 17.68 7.56 17.6 8.72 17.46C9.88 17.32 11.03 17.12 12.17 16.86ZM52.238 13.65H48.248V27.27H44.228V0.629999H48.248V10.29H52.238V13.65ZM27.308 2.7H40.538V20.01H27.308V2.7ZM31.268 16.74H36.578V5.97H31.268V16.74ZM67.3761 14.19H54.3861V1.62H58.2261V4.95H63.5661V1.62H67.3761V3.54H72.5361V0.629999H76.5561V14.46H72.5361V12.09H67.3761V14.19ZM67.3761 6.69V8.94H72.5361V6.69H67.3761ZM63.5661 8.19H58.2261V10.95H63.5661V8.19ZM77.0961 25.41V28.53H61.5261C59.8261 28.53 58.9761 27.68 58.9761 25.98V20.73H72.5661V18.9H58.8561V15.84H76.5561V23.58H62.9661V25.41H77.0961ZM112.854 7.32V10.68H108.894V18.51H104.874V0.629999H108.894V7.32H112.854ZM100.884 15.09H87.894V2.31H100.884V15.09ZM96.924 5.52H91.854V11.88H96.924V5.52ZM103.494 21.96C103.794 21.96 104.144 22.07 104.544 22.29L110.604 25.62L108.324 28.77L101.334 24.54C101.054 24.38 100.774 24.3 100.494 24.3C100.254 24.3 99.994 24.38 99.714 24.54L99.594 24.6C97.974 26.04 95.504 27.45 92.184 28.83L89.994 25.74C93.114 24.56 95.294 23.37 96.534 22.17C97.774 20.97 98.394 19.63 98.394 18.15V17.1H102.564V18.3C102.564 20.22 102.004 21.88 100.884 23.28L101.064 23.37L102.264 22.47C102.724 22.13 103.134 21.96 103.494 21.96ZM137.142 0.629999V15.57H133.092V0.629999H137.142ZM117.162 15.93L114.192 13.38C116.312 11.96 117.872 10.61 118.872 9.33C119.892 8.05 120.452 6.7 120.552 5.28H115.332V1.98H129.822V5.28H124.542C124.522 6.78 124.122 8.24 123.342 9.66L123.552 9.78L124.392 9.18C124.752 8.94 125.112 8.82 125.472 8.82C125.832 8.82 126.192 8.94 126.552 9.18L131.022 12.78L128.052 15.39L123.252 11.25C123.052 11.11 122.872 11.04 122.712 11.04C122.532 11.04 122.372 11.11 122.232 11.25C121.632 11.99 120.932 12.72 120.132 13.44C119.332 14.16 118.342 14.99 117.162 15.93ZM133.182 16.92H137.142V28.35H122.232C120.532 28.35 119.682 27.5 119.682 25.8V16.92H123.612V19.5H133.182V16.92ZM133.182 22.65H123.612V25.2H133.182V22.65ZM149.23 24V3.06H153.79V19.95H161.77V24H149.23ZM167.118 6.57C166.218 6.57 165.558 6.37 165.138 5.97C164.738 5.55 164.538 5.02 164.538 4.38V3.72C164.538 3.08 164.738 2.56 165.138 2.16C165.558 1.74 166.218 1.53 167.118 1.53C168.018 1.53 168.668 1.74 169.068 2.16C169.488 2.56 169.698 3.08 169.698 3.72V4.38C169.698 5.02 169.488 5.55 169.068 5.97C168.668 6.37 168.018 6.57 167.118 6.57ZM164.898 8.25H169.338V24H164.898V8.25ZM178.822 24.36C177.302 24.36 176.022 24.12 174.982 23.64C173.942 23.14 173.012 22.44 172.192 21.54L174.802 18.9C175.362 19.52 175.982 20.01 176.662 20.37C177.342 20.73 178.112 20.91 178.972 20.91C179.852 20.91 180.462 20.78 180.802 20.52C181.142 20.24 181.312 19.87 181.312 19.41C181.312 18.67 180.782 18.23 179.722 18.09L178.012 17.88C174.472 17.44 172.702 15.82 172.702 13.02C172.702 12.26 172.842 11.57 173.122 10.95C173.422 10.31 173.832 9.77 174.352 9.33C174.892 8.87 175.532 8.52 176.272 8.28C177.032 8.02 177.882 7.89 178.822 7.89C179.642 7.89 180.362 7.95 180.982 8.07C181.622 8.17 182.182 8.33 182.662 8.55C183.162 8.75 183.612 9.01 184.012 9.33C184.432 9.63 184.842 9.97 185.242 10.35L182.692 12.96C182.192 12.46 181.622 12.07 180.982 11.79C180.362 11.49 179.722 11.34 179.062 11.34C178.302 11.34 177.762 11.46 177.442 11.7C177.122 11.94 176.962 12.26 176.962 12.66C176.962 13.08 177.072 13.41 177.292 13.65C177.532 13.87 177.972 14.03 178.612 14.13L180.382 14.37C183.842 14.83 185.572 16.41 185.572 19.11C185.572 19.87 185.412 20.57 185.092 21.21C184.772 21.85 184.312 22.41 183.712 22.89C183.132 23.35 182.422 23.71 181.582 23.97C180.762 24.23 179.842 24.36 178.822 24.36ZM193.885 24C192.345 24 191.175 23.61 190.375 22.83C189.595 22.05 189.205 20.91 189.205 19.41V11.7H186.985V8.25H188.095C188.695 8.25 189.105 8.11 189.325 7.83C189.545 7.53 189.655 7.11 189.655 6.57V3.99H193.645V8.25H196.765V11.7H193.645V20.55H196.525V24H193.885ZM208.769 17.4L207.359 8.88V3.06H212.039V8.88L210.659 17.4H208.769ZM209.669 24.36C208.709 24.36 208.019 24.14 207.599 23.7C207.199 23.26 206.999 22.72 206.999 22.08V21.36C206.999 20.72 207.199 20.18 207.599 19.74C208.019 19.3 208.709 19.08 209.669 19.08C210.629 19.08 211.309 19.3 211.709 19.74C212.129 20.18 212.339 20.72 212.339 21.36V22.08C212.339 22.72 212.129 23.26 211.709 23.7C211.309 24.14 210.629 24.36 209.669 24.36ZM218.379 17.4L216.969 8.88V3.06H221.649V8.88L220.269 17.4H218.379ZM219.279 24.36C218.319 24.36 217.629 24.14 217.209 23.7C216.809 23.26 216.609 22.72 216.609 22.08V21.36C216.609 20.72 216.809 20.18 217.209 19.74C217.629 19.3 218.319 19.08 219.279 19.08C220.239 19.08 220.919 19.3 221.319 19.74C221.739 20.18 221.949 20.72 221.949 21.36V22.08C221.949 22.72 221.739 23.26 221.319 23.7C220.919 24.14 220.239 24.36 219.279 24.36Z" fill="#E22F2F"/>
</svg>
