<svg width="533" height="861" viewBox="0 0 533 861" fill="none" xmlns="http://www.w3.org/2000/svg">
<g filter="url(#filter0_d_375_4418)">
<rect x="5" y="25" width="523" height="827" rx="20" fill="white" stroke="#747474" stroke-width="2"/>
<path fill-rule="evenodd" clip-rule="evenodd" d="M374 1C362.954 1 354 9.95431 354 21V52H528V21C528 9.9543 519.046 1 508 1H374Z" fill="white"/>
<path d="M354 52H353V53H354V52ZM528 52V53H529V52H528ZM355 21C355 10.5066 363.507 2 374 2V0C362.402 0 353 9.40202 353 21H355ZM355 52V21H353V52H355ZM354 53H528V51H354V53ZM527 21V52H529V21H527ZM508 2C518.493 2 527 10.5066 527 21H529C529 9.40202 519.598 0 508 0V2ZM374 2H508V0H374V2Z" fill="#747474"/>
<g filter="url(#filter1_i_375_4418)">
<path fill-rule="evenodd" clip-rule="evenodd" d="M25 1C13.9543 1 5 9.95431 5 21V52H179V21C179 9.9543 170.046 1 159 1H25Z" fill="#E22F2F"/>
</g>
<path d="M5 52H4V53H5V52ZM179 52V53H180V52H179ZM6 21C6 10.5066 14.5066 2 25 2V0C13.402 0 4 9.40202 4 21H6ZM6 52V21H4V52H6ZM5 53H179V51H5V53ZM178 21V52H180V21H178ZM159 2C169.493 2 178 10.5066 178 21H180C180 9.40202 170.598 0 159 0V2ZM25 2H159V0H25V2Z" fill="#747474"/>
<path fill-rule="evenodd" clip-rule="evenodd" d="M200 1C188.954 1 180 9.95431 180 21V52H354V21C354 9.9543 345.046 1 334 1H200Z" fill="white"/>
<path d="M180 52H179V53H180V52ZM354 52V53H355V52H354ZM181 21C181 10.5066 189.507 2 200 2V0C188.402 0 179 9.40202 179 21H181ZM181 52V21H179V52H181ZM180 53H354V51H180V53ZM353 21V52H355V21H353ZM334 2C344.493 2 353 10.5066 353 21H355C355 9.40202 345.598 0 334 0V2ZM200 2H334V0H200V2Z" fill="#747474"/>
<path d="M229.443 19.34H226.803V31.24H228.083C229.923 31.24 232.043 31.14 234.443 30.7L234.223 28.48C232.463 28.8 230.883 28.92 229.443 28.96V19.34ZM239.343 17.28V24.38H237.683V17.62H235.223V34.84H237.683V26.52H239.343V35.7H241.863V17.28H239.343ZM262.142 25.7C260.142 24.64 259.522 22.56 259.462 20.5H261.262V18.4H255.962V20.5H256.962C256.922 21.98 256.622 23.58 255.602 24.82C254.582 23.58 254.282 21.96 254.242 20.5H255.262V18.4H249.802V20.5H251.782C251.722 22.54 251.082 24.64 249.102 25.7L250.462 27.58C251.742 26.9 252.562 25.78 253.022 24.44C253.482 25.8 254.282 27.02 255.602 27.76C256.942 27.02 257.742 25.8 258.202 24.4C258.662 25.76 259.482 26.88 260.782 27.58L262.142 25.7ZM255.062 30.94H262.582V33.4H255.062V30.94ZM252.482 35.5H265.182V28.84H252.482V35.5ZM262.522 17.3V27.98H265.182V17.3H262.522ZM274.68 31.78H284.84V35.74H287.48V29.68H274.68V31.78ZM277.48 20.08H284.78V22.46H277.48V20.08ZM282.46 26.26V24.54H287.38V18.02H274.88V24.54H279.82V26.26H272.84V28.36H289.48V26.26H282.46ZM293.079 32.38H303.359V35.66H305.999V30.3H293.079V32.38ZM300.899 27.16V25.84H306.259V23.84H295.919V22.64H305.879V17.66H293.279V19.66H303.279V20.78H293.319V25.84H298.259V27.16H291.239V29.26H307.919V27.16H300.899Z" fill="black"/>
<path d="M397.384 17.3H394.884V26.88H397.384V17.3ZM391.204 26.78H393.664V17.58H391.204V20.14H389.084V22.24H391.204V26.78ZM390.644 24.46C388.364 23.52 387.504 21.46 387.504 19.2V18H384.924V19.16C384.924 21.48 383.964 23.86 381.444 25L382.904 26.96C384.504 26.2 385.584 24.9 386.204 23.32C386.804 24.72 387.804 25.84 389.324 26.48L390.644 24.46ZM387.504 33.54V32.48H397.384V27.56H384.864V29.58H394.784V30.58H384.904V35.58H397.964V33.54H387.504ZM410.263 26.52H406.503V21H410.263V26.52ZM403.883 26.52H401.483V28.62H415.323V26.52H412.883V21H415.383V18.9H401.383V21H403.883V26.52ZM400.083 31.44V33.58H416.763V31.44H400.083ZM430.122 25H426.582V20.66H430.122V25ZM432.722 18.56H424.002V27.08H432.722V18.56ZM433.422 28.6H430.802V29.06C430.802 31.06 428.962 33.06 425.022 33.62L426.042 35.66C428.942 35.22 431.002 33.98 432.102 32.28C433.202 33.98 435.262 35.22 438.182 35.66L439.162 33.62C435.242 33.06 433.422 31.06 433.422 29.06V28.6ZM437.962 21.9V17.28H435.322V29.44H437.962V24.06H440.402V21.9H437.962ZM453.34 25.04C450.54 24.22 449.18 22.32 449.04 20.38H452.66V18.3H442.64V20.38H446.32C446.18 22.46 444.84 24.46 441.92 25.32L443.24 27.4C445.4 26.74 446.88 25.36 447.72 23.64C448.56 25.22 449.98 26.48 452.06 27.08L453.34 25.04ZM454.54 33.4H447.54V31.78H454.54V33.4ZM454.54 29.76H447.54V28.08H444.92V35.5H457.16V28.08H454.54V29.76ZM454.5 17.32V27.3H457.16V17.32H454.5ZM472.359 21.24H476.159V19.06H465.839V21.24H469.679V22.26C469.679 25.4 468.179 28.78 465.099 30.16L466.599 32.26C468.759 31.28 470.239 29.26 471.059 26.86C471.879 29.08 473.339 30.88 475.479 31.8L476.919 29.72C473.839 28.44 472.359 25.26 472.359 22.26V21.24ZM477.859 17.3V35.72H480.499V17.3H477.859ZM493.277 31.48V27.64H498.537V25.52H488.237V20.68H498.397V18.56H485.577V27.64H490.637V31.48H483.637V33.64H500.317V31.48H493.277Z" fill="black"/>
<path d="M68.6223 19.34H65.9823V31.24H67.2623C69.1023 31.24 71.2223 31.14 73.6223 30.7L73.4023 28.48C71.6423 28.8 70.0623 28.92 68.6223 28.96V19.34ZM78.5223 17.28V24.38H76.8623V17.62H74.4023V34.84H76.8623V26.52H78.5223V35.7H81.0423V17.28H78.5223ZM93.6608 21.74V23.88H96.4208V28.26H99.0608V17.3H96.4208V21.74H93.6608ZM94.7608 25.7C91.9608 24.78 90.6808 22.62 90.6008 20.52H94.1808V18.4H84.2808V20.52H87.9008C87.8208 22.82 86.4808 25.16 83.5608 26.18L84.9008 28.26C87.0408 27.54 88.5008 26.04 89.3008 24.18C90.1008 25.8 91.4808 27.1 93.4808 27.76L94.7608 25.7ZM92.8408 33.74C90.4208 33.74 89.1608 33.24 89.1608 32.2C89.1608 31.16 90.4208 30.66 92.8408 30.66C95.2408 30.66 96.5008 31.16 96.5008 32.2C96.5008 33.24 95.2408 33.74 92.8408 33.74ZM92.8408 28.66C88.9208 28.66 86.5208 29.96 86.5208 32.2C86.5208 34.44 88.9208 35.74 92.8408 35.74C96.7408 35.74 99.1408 34.44 99.1408 32.2C99.1408 29.96 96.7408 28.66 92.8408 28.66ZM106.439 23.38H114.319V25.96H106.439V23.38ZM111.699 31.44V28.06H116.919V18.44H114.319V21.3H106.439V18.44H103.819V28.06H109.059V31.44H102.059V33.58H118.739V31.44H111.699Z" fill="white"/>
</g>
<defs>
<filter id="filter0_d_375_4418" x="0" y="0" width="533" height="861" filterUnits="userSpaceOnUse" color-interpolation-filters="sRGB">
<feFlood flood-opacity="0" result="BackgroundImageFix"/>
<feColorMatrix in="SourceAlpha" type="matrix" values="0 0 0 0 0 0 0 0 0 0 0 0 0 0 0 0 0 0 127 0" result="hardAlpha"/>
<feOffset dy="4"/>
<feGaussianBlur stdDeviation="2"/>
<feComposite in2="hardAlpha" operator="out"/>
<feColorMatrix type="matrix" values="0 0 0 0 0 0 0 0 0 0 0 0 0 0 0 0 0 0 0.25 0"/>
<feBlend mode="normal" in2="BackgroundImageFix" result="effect1_dropShadow_375_4418"/>
<feBlend mode="normal" in="SourceGraphic" in2="effect1_dropShadow_375_4418" result="shape"/>
</filter>
<filter id="filter1_i_375_4418" x="4" y="0" width="182" height="59" filterUnits="userSpaceOnUse" color-interpolation-filters="sRGB">
<feFlood flood-opacity="0" result="BackgroundImageFix"/>
<feBlend mode="normal" in="SourceGraphic" in2="BackgroundImageFix" result="shape"/>
<feColorMatrix in="SourceAlpha" type="matrix" values="0 0 0 0 0 0 0 0 0 0 0 0 0 0 0 0 0 0 127 0" result="hardAlpha"/>
<feOffset dx="6" dy="6"/>
<feGaussianBlur stdDeviation="3"/>
<feComposite in2="hardAlpha" operator="arithmetic" k2="-1" k3="1"/>
<feColorMatrix type="matrix" values="0 0 0 0 0 0 0 0 0 0 0 0 0 0 0 0 0 0 0.25 0"/>
<feBlend mode="normal" in2="shape" result="effect1_innerShadow_375_4418"/>
</filter>
</defs>
</svg>
